<?xml version="1.0" encoding="UTF-8" standalone="no"?>
<svg
   viewBox="0 -256 1850 1850"
   id="svg2989"
   version="1.1"
   width="100%"
   height="100%"
   xmlns="http://www.w3.org/2000/svg"
   xmlns:svg="http://www.w3.org/2000/svg"
   xmlns:rdf="http://www.w3.org/1999/02/22-rdf-syntax-ns#"
   xmlns:cc="http://creativecommons.org/ns#"
   xmlns:dc="http://purl.org/dc/elements/1.1/">
  <metadata
     id="metadata2999">
    <rdf:RDF>
      <cc:Work
         rdf:about="">
        <dc:format>image/svg+xml</dc:format>
        <dc:type
           rdf:resource="http://purl.org/dc/dcmitype/StillImage" />
      </cc:Work>
    </rdf:RDF>
  </metadata>
  <defs
     id="defs2997" />
  <path
     d="m 1701.9661,1250.678 v -768 q -32,36 -69,66 -268,206 -426,338 -51,43 -83,67 -32,24 -86.5,48.5 -54.5,24.5 -102.5,24.5 h -1 -1 q -48,0 -102.5,-24.5 -54.5,-24.5 -86.5,-48.5 -32,-24 -83,-67 -158,-132 -426,-338 -37,-30 -69,-66 v 768 q 0,13 9.5,22.5 9.5,9.5 22.5,9.5 h 1472 q 13,0 22.5,-9.5 9.5,-9.5 9.5,-22.5 z m 0,-1051 v -11 -13.5 q 0,0 -0.5,-13 -0.5,-13 -3,-12.5 -2.5,0.5 -5.5,-9 -3,-9.5 -9,-7.5 -6,2 -14,-2.5 h -1472 q -13,0 -22.5,9.5 -9.5,9.5 -9.5,22.5 0,168 147,284 193,152 401,317 6,5 35,29.5 29,24.5 46,37.5 17,13 44.5,31.5 27.5,18.5 50.5,27.5 23,9 43,9 h 1 1 q 20,0 43,-9 23,-9 50.5,-27.5 27.5,-18.5 44.5,-31.5 17,-13 46,-37.5 29,-24.5 35,-29.5 208,-165 401,-317 54,-43 100.5,-115.5 46.5,-72.5 46.5,-131.5 z m 128,-37 v 1088 q 0,66 -47,113 -47,47 -113,47 h -1472 q -66,0 -112.999998,-47 -47,-47 -47,-113 v -1088 q 0,-66 47,-113 46.999998,-47 112.999998,-47 h 1472 q 66,0 113,47 47,47 47,113 z"
     id="path2993"
     style="fill:#f8f8f2;fill-opacity:1" />
</svg>
