<?xml version="1.0" encoding="UTF-8" standalone="no"?>
<!-- Created with Inkscape (http://www.inkscape.org/) -->

<svg
   width="292.2692mm"
   height="45.383389mm"
   viewBox="0 0 292.2692 45.383389"
   version="1.1"
   id="svg2290"
   xmlns="http://www.w3.org/2000/svg"
   xmlns:svg="http://www.w3.org/2000/svg">
  <defs
     id="defs2287" />
  <g
     id="layer1"
     transform="translate(140.83101,-125.8083)">
    <path
       id="path182534"
       clip-path="none"
       style="fill:#75715e;fill-opacity:1;stroke-width:0.466553;stroke-linejoin:bevel"
       d="m -103.23745,171.1917 a -26.591318,-26.591318 0 0 0 2.56781,-34.63044 -26.591318,-26.591318 0 0 0 -37.19877,-5.52111 -26.591318,-26.591318 0 0 0 -2.9626,2.55798 l 9.59321,9.59321 h 1.61695 c 0.18651,0 0.3171,-0.0936 0.39172,-0.28008 l 2.18228,-7.88944 c 0.11189,-0.55952 0.44765,-0.83923 1.00719,-0.83923 l 4.58782,0.0563 c 0.26112,0 0.44776,0.0745 0.55965,0.22376 0.11192,0.18651 0.13046,0.42867 0.0558,0.72708 l -2.07016,7.66569 c -0.11192,0.2238 -0.0189,0.33538 0.27956,0.33538 h 6.32262 c 0.1865,0 0.33612,-0.0931 0.44802,-0.27957 l 2.12598,-7.88944 c 0.1865,-0.55952 0.54075,-0.83923 1.06299,-0.83923 l 4.53202,0.0558 c 0.29839,0 0.50355,0.0751 0.61547,0.22428 0.11189,0.18651 0.13089,0.42867 0.0563,0.72708 l -2.12648,7.66569 c -0.0746,0.2238 0.0375,0.33538 0.33592,0.33538 h 2.79775 c 0.59682,0 0.85802,0.29872 0.78341,0.89555 l -0.50385,3.74861 c -0.0746,0.59681 -0.39185,0.89503 -0.95136,0.89503 h -3.69279 c -0.1492,0 -0.29832,0.11209 -0.44752,0.3359 l -1.79059,6.60218 c -0.0373,0.11191 -0.0183,0.18698 0.0563,0.22428 0.0746,0.0746 0.14915,0.11162 0.22376,0.11162 h 2.74143 c 0.59682,0 0.85801,0.29821 0.78343,0.89503 l -0.50385,3.80494 c -0.0373,0.26111 -0.13041,0.46626 -0.27958,0.61546 -0.18651,0.18651 -0.41016,0.28009 -0.67128,0.28009 h -2.12079 z m -15.99747,-15.99747 1.69963,-6.12831 c 0.0373,-0.22381 -0.0558,-0.33538 -0.27956,-0.33538 h -6.37842 c -0.1865,0 -0.3171,0.11157 -0.39171,0.33538 l -0.16587,0.61237 z" />
    <path
       id="path182536"
       style="font-style:italic;font-weight:600;font-size:55.9522px;line-height:1.25;font-family:Barlow;-inkscape-font-specification:'Barlow Semi-Bold Italic';font-variant-ligatures:none;fill:#75715e;fill-opacity:1;stroke-width:2.33134"
       d="m -131.29935,170.60758 c 0.26111,0 0.48529,-0.0751 0.6718,-0.22428 0.1492,-0.1492 0.26077,-0.35435 0.33538,-0.61546 l 2.18229,-7.88892 c 0.0746,-0.18651 0.20521,-0.28009 0.39171,-0.28009 h 6.37842 c 0.0746,0 0.14915,0.0191 0.22376,0.0563 0.0745,0.0746 0.0936,0.16766 0.0563,0.27957 l -2.12648,7.66568 c -0.0746,0.29841 -0.0561,0.52207 0.0558,0.67128 0.11191,0.1865 0.31707,0.27956 0.61547,0.27956 l 4.53255,0.0558 c 0.59682,0 0.95107,-0.27971 1.06296,-0.83923 l 2.12598,-7.88892 c 0.1119,-0.18651 0.26152,-0.28009 0.44805,-0.28009 h 1.51463 l -6.40376,-6.40374 -0.14674,0.52916 c -0.11192,0.18651 -0.26101,0.27957 -0.44754,0.27957 h -6.26679 c -0.2984,0 -0.39148,-0.11208 -0.27956,-0.33589 l 1.62417,-5.9893 -6.48798,-6.48798 h -2.13061 c -0.55951,0 -0.89474,0.29873 -1.00666,0.89555 l -0.44802,3.74861 c -0.0746,0.59682 0.18659,0.89504 0.78341,0.89504 h 2.85358 c 0.2984,0 0.39148,0.11209 0.27956,0.33589 l -1.84639,6.65851 c -0.0746,0.18651 -0.20469,0.27957 -0.39119,0.27957 h -3.74915 c -0.55951,0 -0.89524,0.29822 -1.00716,0.89504 l -0.50332,3.80493 c -0.0373,0.59683 0.22337,0.89556 0.78288,0.89556 h 2.90991 c 0.22379,0 0.31684,0.11157 0.27956,0.33538 l -2.07015,7.66568 c -0.0746,0.29841 -0.0561,0.52207 0.0558,0.67128 0.11189,0.1865 0.29853,0.27956 0.55964,0.27956 z" />
    <path
       d="m -78.353482,170.77391 q -0.731112,0 -0.940001,-0.67889 L -90.1035,135.1583 q -0.05222,-0.10444 -0.05222,-0.31333 0,-0.62667 0.731112,-0.62667 h 4.75223 q 0.731112,0 0.940001,0.67889 l 7.728901,26.99893 q 0.104444,0.20889 0.208889,0.20889 0.156667,0 0.208889,-0.20889 l 7.676678,-26.94671 q 0.156667,-0.73111 0.940002,-0.73111 h 4.647785 q 0.417778,0 0.574445,0.26111 0.208889,0.26111 0.104445,0.67889 l -10.966684,34.93672 q -0.208889,0.67889 -0.940001,0.67889 z"
       style="font-weight:600;font-size:52.2223px;line-height:1.25;font-family:Barlow;-inkscape-font-specification:'Barlow Semi-Bold';font-variant-ligatures:none;fill:#f8f8f2;stroke-width:2.17593;fill-opacity:1"
       id="path2411" />
    <path
       d="m -47.751339,166.0739 q 1.932225,-0.0522 3.342227,-0.78333 1.462225,-0.78334 2.350004,-2.08889 0.261112,-0.41778 0.67889,-0.41778 0.261111,0 0.470001,0.15667 l 2.50667,1.98444 q 0.365556,0.36556 0.365556,0.67889 0,0.20889 -0.156667,0.47 -1.514446,2.40223 -4.125561,3.76001 -2.611116,1.35778 -6.005565,1.35778 -4.125562,0 -6.945566,-1.93223 -2.767782,-1.98444 -4.021117,-5.48334 -1.044446,-2.87222 -1.044446,-6.47556 0,-3.60334 0.574445,-5.53557 0.992224,-3.70778 3.916672,-5.90112 2.924449,-2.19333 7.102233,-2.19333 9.765571,0 11.436684,10.70557 0.261112,1.72333 0.365557,4.28223 0,0.83555 -0.835557,0.83555 h -16.188914 q -0.313334,0 -0.313334,0.31334 0,1.41 0.313334,2.29778 0.574446,1.88 2.193337,2.92445 1.618891,1.04444 4.021117,1.04444 z m -1.044446,-17.18113 q -1.984447,0 -3.290005,0.99222 -1.253335,0.94 -1.723336,2.66334 -0.365556,1.04444 -0.417778,2.19333 -0.05222,0.31334 0.261111,0.31334 h 10.496683 q 0.313334,0 0.313334,-0.31334 -0.20889,-1.56667 -0.313334,-1.88 -0.470001,-1.82778 -1.880003,-2.87223 -1.35778,-1.09666 -3.446672,-1.09666 z"
       style="font-weight:600;font-size:52.2223px;line-height:1.25;font-family:Barlow;-inkscape-font-specification:'Barlow Semi-Bold';font-variant-ligatures:none;fill:#f8f8f2;stroke-width:2.17593;fill-opacity:1"
       id="path2413" />
    <path
       d="m -18.97686,143.77498 q 1.514446,0 2.767782,0.57445 0.626667,0.31333 0.47,1.04444 l -0.835557,4.33445 q -0.05222,0.41778 -0.313333,0.52223 -0.20889,0.10444 -0.67889,0 -0.626668,-0.20889 -1.671114,-0.20889 -0.626668,0 -0.992224,0.0522 -2.193336,0.10444 -3.655561,1.56667 -1.462224,1.41 -1.462224,3.70778 v 14.57002 q 0,0.83556 -0.835557,0.83556 h -4.386673 q -0.835557,0 -0.835557,-0.83556 v -25.01448 q 0,-0.83556 0.835557,-0.83556 h 4.386673 q 0.835557,0 0.835557,0.83556 v 2.03667 q 0,0.20889 0.104444,0.26111 0.104445,0.0522 0.20889,-0.15666 2.193336,-3.29001 6.057787,-3.29001 z"
       style="font-weight:600;font-size:52.2223px;line-height:1.25;font-family:Barlow;-inkscape-font-specification:'Barlow Semi-Bold';font-variant-ligatures:none;fill:#f8f8f2;stroke-width:2.17593;fill-opacity:1"
       id="path2415" />
    <path
       d="m -8.323541,140.74609 q -1.723336,0 -2.820004,-1.04445 -1.096669,-1.09667 -1.096669,-2.76778 0,-1.67111 1.096669,-2.71556 1.096668,-1.04445 2.820004,-1.04445 1.7233359,0 2.767782,1.04445 1.0966683,1.04445 1.0966683,2.71556 0,1.67111 -1.0966683,2.76778 -1.0444461,1.04445 -2.767782,1.04445 z m -2.193337,30.02782 q -0.835557,0 -0.835557,-0.83556 v -25.01448 q 0,-0.83556 0.835557,-0.83556 h 4.3866736 q 0.8355569,0 0.8355569,0.83556 v 25.01448 q 0,0.83556 -0.8355569,0.83556 z"
       style="font-weight:600;font-size:52.2223px;line-height:1.25;font-family:Barlow;-inkscape-font-specification:'Barlow Semi-Bold';font-variant-ligatures:none;fill:#f8f8f2;stroke-width:2.17593;fill-opacity:1"
       id="path2417" />
    <path
       d="m 22.017572,135.05386 q 0,-0.83556 0.835557,-0.83556 h 4.386673 q 0.835557,0 0.835557,0.83556 v 34.88449 q 0,0.83556 -0.835557,0.83556 h -4.386673 q -0.835557,0 -0.835557,-0.83556 v -14.67446 q 0,-0.31334 -0.313334,-0.31334 H 8.4919959 q -0.3133338,0 -0.3133338,0.31334 v 14.67446 q 0,0.83556 -0.8355568,0.83556 H 2.956432 q -0.8355568,0 -0.8355568,-0.83556 v -34.88449 q 0,-0.83556 0.8355568,-0.83556 h 4.3866733 q 0.8355568,0 0.8355568,0.83556 v 14.36113 q 0,0.31333 0.3133338,0.31333 H 21.704238 q 0.313334,0 0.313334,-0.31333 z"
       style="font-weight:600;font-size:52.2223px;line-height:1.25;font-family:Barlow;-inkscape-font-specification:'Barlow Semi-Bold';font-variant-ligatures:none;fill:#f8f8f2;stroke-width:2.17593;fill-opacity:1"
       id="path2419" />
    <path
       d="m 44.995343,143.67054 q 3.290005,0 5.796675,1.14889 2.558893,1.14889 3.916673,3.18556 1.35778,1.98444 1.35778,4.54334 v 17.39002 q 0,0.83556 -0.835557,0.83556 H 50.84424 q -0.835556,0 -0.835556,-0.83556 v -1.30555 q 0,-0.20889 -0.104445,-0.20889 -0.104445,-0.0522 -0.261112,0.0522 -2.820004,2.71556 -7.520011,2.71556 -3.86445,0 -6.371121,-1.98445 -2.454448,-1.98445 -2.454448,-5.90112 0,-4.07334 2.820004,-6.3189 2.872227,-2.29778 8.042235,-2.29778 h 5.535564 q 0.313334,0 0.313334,-0.31333 v -1.20112 q 0,-2.03666 -1.253336,-3.13333 -1.201113,-1.14889 -3.603338,-1.14889 -1.827781,0 -3.028894,0.67889 -1.201113,0.62666 -1.618891,1.77555 -0.20889,0.73112 -0.940002,0.67889 l -4.700007,-0.57444 q -0.417778,-0.0522 -0.626668,-0.20889 -0.208889,-0.20889 -0.156666,-0.47 0.47,-3.13334 3.446671,-5.11779 3.028894,-1.98444 7.46779,-1.98444 z m -1.201113,22.7167 q 2.558892,0 4.386673,-1.35778 1.827781,-1.35778 1.827781,-3.44667 v -2.40223 q 0,-0.31333 -0.313334,-0.31333 h -4.334451 q -2.767782,0 -4.386674,1.04444 -1.618891,1.04445 -1.618891,2.97667 0,1.67112 1.253335,2.61112 1.253336,0.88778 3.185561,0.88778 z"
       style="font-weight:600;font-size:52.2223px;line-height:1.25;font-family:Barlow;-inkscape-font-specification:'Barlow Semi-Bold';font-variant-ligatures:none;fill:#f8f8f2;stroke-width:2.17593;fill-opacity:1"
       id="path2421" />
    <path
       d="m 72.046463,171.08724 q -3.290005,0 -5.796675,-0.94 -2.454448,-0.99222 -3.812228,-2.66333 -1.35778,-1.72334 -1.35778,-3.81223 v -0.26111 q 0,-0.83556 0.835557,-0.83556 h 4.177784 q 0.835557,0 0.835557,0.36556 v 0.36555 q 0,1.30556 1.410002,2.29778 1.462224,0.94 3.655561,0.94 2.088892,0 3.394449,-0.83555 1.305558,-0.88778 1.305558,-2.19334 0,-1.20111 -1.096668,-1.77556 -1.044446,-0.62667 -3.446672,-1.30556 l -1.984448,-0.62666 q -2.663337,-0.78334 -4.491118,-1.67112 -1.82778,-0.88778 -3.081115,-2.40222 -1.253336,-1.56667 -1.253336,-3.9689 0,-3.65556 2.820005,-5.79667 2.872226,-2.19334 7.572233,-2.19334 3.185561,0 5.587787,1.04445 2.402225,0.99222 3.707783,2.82 1.35778,1.77556 1.35778,4.07334 0,0.26111 -0.261112,0.47 -0.208889,0.15667 -0.574445,0.15667 h -4.021117 q -0.835557,0 -0.835557,-0.31334 v -0.31333 q 0,-1.35778 -1.35778,-2.24556 -1.305557,-0.94 -3.603339,-0.94 -2.036669,0 -3.342227,0.78333 -1.253335,0.73112 -1.253335,2.0889 0,1.25333 1.201113,1.93222 1.201113,0.62667 4.021117,1.41 l 1.201113,0.31334 q 2.820004,0.83555 4.700007,1.67111 1.880003,0.83556 3.18556,2.40223 1.305558,1.56667 1.305558,4.02111 0,3.70779 -2.924449,5.8489 -2.924449,2.08889 -7.781123,2.08889 z"
       style="font-weight:600;font-size:52.2223px;line-height:1.25;font-family:Barlow;-inkscape-font-specification:'Barlow Semi-Bold';font-variant-ligatures:none;fill:#f8f8f2;stroke-width:2.17593;fill-opacity:1"
       id="path2423" />
    <path
       d="m 100.66426,143.67054 q 4.28223,0 6.7889,2.50667 2.55889,2.50667 2.55889,6.84112 v 16.92002 q 0,0.83556 -0.83556,0.83556 h -4.38667 q -0.83556,0 -0.83556,-0.83556 v -15.66669 q 0,-2.40222 -1.41,-3.86445 -1.35778,-1.51444 -3.603338,-1.51444 -2.245559,0 -3.655561,1.46222 -1.35778,1.46223 -1.35778,3.86445 v 15.71891 q 0,0.83556 -0.835557,0.83556 h -4.386673 q -0.835557,0 -0.835557,-0.83556 v -34.88449 q 0,-0.83556 0.835557,-0.83556 h 4.386673 q 0.835557,0 0.835557,0.83556 v 11.28001 q 0,0.20889 0.104445,0.26111 0.104444,0.0522 0.208889,-0.10444 2.193337,-2.82 6.423345,-2.82 z"
       style="font-weight:600;font-size:52.2223px;line-height:1.25;font-family:Barlow;-inkscape-font-specification:'Barlow Semi-Bold';font-variant-ligatures:none;fill:#f8f8f2;stroke-width:2.17593;fill-opacity:1"
       id="path2425" />
    <path
       d="m 118.07533,170.89113 q -1.1647,0 -1.95368,-0.75142 -0.75142,-0.75141 -0.75142,-1.87854 0,-1.05198 0.82656,-1.8034 0.82656,-0.75141 1.87854,-0.75141 1.05198,0 1.87854,0.75141 0.86413,0.75142 0.86413,1.8034 0,1.08956 -0.78899,1.87854 -0.78899,0.75142 -1.95368,0.75142 z"
       style="font-weight:500;font-size:37.5708px;line-height:1.25;font-family:Barlow;-inkscape-font-specification:'Barlow Medium';font-variant-ligatures:none;fill:#fd971f;stroke-width:2.17593"
       id="path2404" />
    <path
       d="m 127.95644,148.91221 q -1.08955,0 -1.80339,-0.6387 -0.67628,-0.67628 -0.67628,-1.72826 0,-1.05198 0.67628,-1.69069 0.71384,-0.67627 1.80339,-0.67627 1.08956,0 1.76583,0.67627 0.67628,0.63871 0.67628,1.69069 0,1.05198 -0.67628,1.72826 -0.67627,0.6387 -1.76583,0.6387 z m -1.23983,21.97892 q -0.263,0 -0.41328,-0.15028 -0.15028,-0.15029 -0.15028,-0.41328 v -17.99642 q 0,-0.26299 0.15028,-0.41328 0.15028,-0.15028 0.41328,-0.15028 h 2.47967 q 0.263,0 0.41328,0.15028 0.15028,0.15029 0.15028,0.41328 v 17.99642 q 0,0.26299 -0.15028,0.41328 -0.15028,0.15028 -0.41328,0.15028 z"
       style="font-weight:500;font-size:37.5708px;line-height:1.25;font-family:Barlow;-inkscape-font-specification:'Barlow Medium';font-variant-ligatures:none;fill:#fd971f;stroke-width:2.17593"
       id="path2406" />
    <path
       d="m 143.13503,171.19169 q -2.81781,0 -4.88421,-1.39011 -2.02882,-1.4277 -2.85538,-3.94494 -0.67627,-2.02882 -0.67627,-4.58364 0,-2.66752 0.6387,-4.50849 0.82656,-2.47968 2.89295,-3.8698 2.0664,-1.42769 4.92178,-1.42769 2.7051,0 4.69635,1.42769 2.02882,1.39012 2.89295,3.83223 0.67628,1.91611 0.67628,4.50849 0,2.62996 -0.67628,4.62121 -0.82656,2.51724 -2.85538,3.94494 -2.02882,1.39011 -4.77149,1.39011 z m 0,-3.11837 q 1.50283,0 2.62995,-0.82656 1.12713,-0.86413 1.61555,-2.40453 0.41328,-1.42769 0.41328,-3.53166 0,-2.10396 -0.37571,-3.49408 -0.48842,-1.5404 -1.61554,-2.36696 -1.12713,-0.86413 -2.74267,-0.86413 -1.54041,0 -2.66753,0.86413 -1.12712,0.82656 -1.61554,2.36696 -0.41328,1.31498 -0.41328,3.49408 0,2.17911 0.41328,3.53166 0.45084,1.5404 1.57797,2.40453 1.16469,0.82656 2.78024,0.82656 z"
       style="font-weight:500;font-size:37.5708px;line-height:1.25;font-family:Barlow;-inkscape-font-specification:'Barlow Medium';font-variant-ligatures:none;fill:#fd971f;stroke-width:2.17593"
       id="path2408" />
  </g>
</svg>
