<?xml version="1.0" encoding="UTF-8" standalone="no"?>
<!-- Created with Inkscape (http://www.inkscape.org/) -->
<svg width="90.479729mm" height="90.479729mm" viewBox="0 0 90.479729 90.479729" version="1.1" id="svg865" xmlns="http://www.w3.org/2000/svg" xmlns:svg="http://www.w3.org/2000/svg">
  <defs id="defs862"/>
  <g id="layer1" transform="translate(39.936292,-103.26013)">
    <path id="path4342" style="display:inline;fill:#f2f2f2;stroke-width:0.79375;stroke-linejoin:bevel" transform="matrix(-0.80325775,0.59563159,0.59563159,0.80325775,0,0)" d="M 129.43102,122.44275 A 45.239864,45.239864 0 0 1 84.191154,167.68261 45.239864,45.239864 0 0 1 38.95129,122.44275 45.239864,45.239864 0 0 1 84.191154,77.202885 45.239864,45.239864 0 0 1 129.43102,122.44275 Z"/>
    <path d="m 15.71648,170.68096 q -0.78333,0 -1.00714,-0.72738 L 3.12724,132.52155 q -0.056,-0.1119 -0.056,-0.33571 0,-0.67143 0.78333,-0.67143 h 5.09165 q 0.78334,0 1.00714,0.72738 l 8.28093,28.92729 q 0.1119,0.22381 0.22381,0.22381 0.16786,0 0.22381,-0.22381 l 8.22497,-28.87134 q 0.16786,-0.78333 1.00714,-0.78333 h 4.97975 q 0.44761,0 0.61547,0.27977 0.22381,0.27976 0.11191,0.72737 l -11.74997,37.43203 q -0.22381,0.72738 -1.00714,0.72738 z" style="font-weight:600;font-size:55.9522px;line-height:1.25;font-family:Barlow;-inkscape-font-specification:'Barlow Semi-Bold';font-variant-ligatures:none;fill:#ffcc00;stroke-width:2.33134" id="path1047"/>
    <path d="m 4.43361,137.10958 c -0.186507,0 -0.317063,0.0933 -0.391666,0.27976 l -1.846422,6.65831 c -0.111905,0.22381 -0.01865,0.33572 0.279761,0.33572 h 2.853562 c 0.596823,0 0.857934,0.29841 0.783331,0.89523 l -0.447618,3.7488 c -0.111904,0.59682 -0.447617,0.89523 -1.007139,0.89523 H 0.908621 c -0.186507,0 -0.317062,0.0933 -0.391665,0.27976 l -2.182136,7.88927 c -0.111905,0.55952 -0.447618,0.83928 -1.00714,0.83928 l -4.58808,-0.0559 c -0.261111,0 -0.447618,-0.0746 -0.559522,-0.22381 -0.111905,-0.18651 -0.130555,-0.42897 -0.05595,-0.72738 l 2.070232,-7.66545 c 0.111905,-0.22381 0.01865,-0.33572 -0.279761,-0.33572 H -12.408 c -0.186507,0 -0.335713,0.0932 -0.447617,0.27976 l -2.126184,7.88927 c -0.186507,0.55952 -0.540871,0.83928 -1.063092,0.83928 l -4.532128,-0.0559 c -0.298412,0 -0.50357,-0.0746 -0.615475,-0.22381 -0.111904,-0.18651 -0.130554,-0.42897 -0.05595,-0.72738 l 2.126184,-7.66545 c 0.0746,-0.22381 -0.0373,-0.33572 -0.335713,-0.33572 h -2.79761 c -0.596824,0 -0.857934,-0.29841 -0.783331,-0.89523 l 0.50357,-3.7488 c 0.0746,-0.59682 0.391665,-0.89523 0.951187,-0.89523 h 3.69284 c 0.149206,0 0.298412,-0.11191 0.447618,-0.33572 l 1.79047,-6.60236 c 0.0373,-0.1119 0.01865,-0.1865 -0.05595,-0.22381 -0.0746,-0.0746 -0.149206,-0.1119 -0.223809,-0.1119 l 1.56666,-5.59522 c 0.186507,0 0.335713,-0.0932 0.447618,-0.27976 l 2.126183,-7.88926 c 0.111905,-0.55952 0.466269,-0.83929 1.063092,-0.83929 l 4.532129,0.056 c 0.298411,0 0.503569,0.0932 0.615474,0.27976 0.111904,0.14921 0.130554,0.37301 0.05595,0.67142 l -2.126184,7.66546 c -0.0373,0.1119 -0.01865,0.20515 0.05595,0.27976 0.0746,0.0373 0.149205,0.0559 0.223808,0.0559 1.767431,1.78555 3.939198,1.42879 6.378551,0 0.186507,0 0.317063,-0.0932 0.391666,-0.27976 l 2.182136,-7.88926 c 0.0746,-0.26111 0.186507,-0.46627 0.335713,-0.61548 0.186507,-0.14921 0.410316,-0.22381 0.671426,-0.22381 l 4.588081,0.056 c 0.26111,0 0.447617,0.0932 0.559522,0.27976 0.111904,0.14921 0.130554,0.37301 0.05595,0.67142 l -2.070231,7.66546 c -0.0373,0.22381 0.05595,0.33571 0.279761,0.33571 z m -8.952352,7.27379 c 0.186507,0 0.317062,-0.11191 0.391665,-0.33572 l 1.79047,-6.60236 c 0.111905,-0.22381 0.01865,-0.33571 -0.279761,-0.33571 -1.597017,-1.32342 -3.86581,-0.83935 -6.266646,0 -0.186507,0 -0.335713,0.0933 -0.447618,0.27976 l -1.846422,6.65831 c -0.0373,0.22381 0.05595,0.33572 0.279761,0.33572 z" style="font-style:italic;font-weight:600;font-size:55.9522px;line-height:1.25;font-family:Barlow;-inkscape-font-specification:'Barlow Semi-Bold Italic';font-variant-ligatures:none;fill:#999999;stroke-width:2.33134" id="path1924"/>
    <path d="m 9.189549,136.21436 c -0.111905,0.59682 -0.447618,0.89523 -1.00714,0.89523 h -26.857056 c -0.596824,0 -0.857934,-0.29841 -0.783331,-0.89523 l 0.50357,-3.80475 c 0.0373,-0.26111 0.130555,-0.46627 0.279761,-0.61548 0.186507,-0.1865 0.410316,-0.27976 0.671426,-0.27976 l 26.913003,0 c 0.559522,0 0.820632,0.29841 0.783331,0.89523 z" style="font-style:italic;font-weight:600;font-size:55.9522px;line-height:1.25;font-family:Barlow;-inkscape-font-specification:'Barlow Semi-Bold Italic';font-variant-ligatures:none;fill:#ffcc00;fill-opacity:1;stroke-width:2.33134" id="path1928"/>
    <path d="m -26.726686,176.04072 q -0.116535,-0.13429 -0.02514,-0.28086 l 4.693845,-7.55421 q 0.01086,-0.0262 0.04923,-0.0595 0.115101,-0.0999 0.231637,0.0344 l 0.757477,0.87285 q 0.116535,0.13429 0.02514,0.28087 l -3.727007,5.72305 q -0.02172,0.0525 -0.0051,0.0717 0.02497,0.0288 0.07166,0.005 l 6.172975,-2.88515 q 0.159257,-0.0878 0.284116,0.0561 l 0.740829,0.85367 q 0.06659,0.0767 0.0436,0.14713 -0.01466,0.08 -0.108046,0.1274 l -8.164923,3.55443 q -0.157989,0.0699 -0.274524,-0.0644 z" style="font-weight:600;font-size:12.7px;line-height:1.25;font-family:Barlow;-inkscape-font-specification:'Barlow Semi-Bold';font-variant-ligatures:none;letter-spacing:1.32292px;fill:#999999;stroke-width:0.264583" id="path1050"/>
    <path d="m -20.094465,180.82476 q 0.375404,0.28291 0.754378,0.35756 0.396821,0.0726 0.763534,-0.0411 0.112979,-0.0399 0.192436,0.0234 0.04966,0.0396 0.06564,0.10103 l 0.175985,0.75732 q 0.01412,0.12493 -0.03336,0.18452 -0.03166,0.0397 -0.101029,0.0656 -0.652108,0.22735 -1.354498,0.0899 -0.70239,-0.13749 -1.34798,-0.65195 -0.78464,-0.62526 -1.028133,-1.42014 -0.225646,-0.7969 0.06627,-1.65231 0.236665,-0.70456 0.782778,-1.38988 0.546114,-0.68532 0.948211,-0.96575 0.750654,-0.5548 1.639271,-0.52873 0.888618,0.0261 1.68319,0.65925 1.857313,1.48005 0.552631,3.76941 -0.211524,0.36733 -0.57948,0.86984 -0.126635,0.15891 -0.285549,0.0323 l -3.078968,-2.45356 q -0.05959,-0.0475 -0.107081,0.0121 -0.213697,0.26817 -0.288653,0.4845 -0.175676,0.44462 -0.02607,0.88862 0.149604,0.444 0.606483,0.80807 z m 2.405289,-3.42597 q -0.377422,-0.30076 -0.776105,-0.30992 -0.380836,-0.0112 -0.73141,0.24536 -0.227819,0.14324 -0.411874,0.35383 -0.05742,0.0517 0.0022,0.0992 l 1.996363,1.59085 q 0.05959,0.0475 0.107081,-0.0121 0.197712,-0.32963 0.225336,-0.40505 0.187624,-0.41886 0.07775,-0.8312 -0.09203,-0.41435 -0.489314,-0.73094 z" style="font-weight:600;font-size:12.7px;line-height:1.25;font-family:Barlow;-inkscape-font-specification:'Barlow Semi-Bold';font-variant-ligatures:none;letter-spacing:1.32292px;fill:#999999;stroke-width:0.264583" id="path1052"/>
    <path d="m -11.012095,180.26773 q 0.320779,0.18096 0.517613,0.45239 0.0953,0.14125 -0.02525,0.27738 l -0.694892,0.81826 q -0.06098,0.0822 -0.128767,0.0732 -0.05673,-0.003 -0.143798,-0.0811 -0.107777,-0.11913 -0.329004,-0.24393 -0.132737,-0.0749 -0.216406,-0.10749 -0.477057,-0.23996 -0.961492,-0.10495 -0.478195,0.12394 -0.752751,0.61064 l -1.740929,3.08612 q -0.09984,0.17698 -0.27682,0.0771 l -0.929155,-0.52415 q -0.176982,-0.0998 -0.07714,-0.27682 l 2.988908,-5.29839 q 0.09984,-0.17699 0.27682,-0.0772 l 0.929154,0.52415 q 0.176982,0.0998 0.07714,0.27682 l -0.243356,0.4314 q -0.02496,0.0442 -0.0091,0.0678 0.01588,0.0235 0.06297,-0.008 0.857691,-0.43479 1.676232,0.027 z" style="font-weight:600;font-size:12.7px;line-height:1.25;font-family:Barlow;-inkscape-font-specification:'Barlow Semi-Bold';font-variant-ligatures:none;letter-spacing:1.32292px;fill:#999999;stroke-width:0.264583" id="path1054"/>
    <path d="m -8.1905225,180.73379 q -0.386758,-0.16144 -0.5350338,-0.49858 -0.1433837,-0.34885 0.013165,-0.72389 0.1565485,-0.37504 0.5005101,-0.5067 0.3439615,-0.13166 0.7307194,0.0298 0.386758,0.16144 0.5233139,0.49368 0.1482758,0.33713 -0.00827,0.71217 -0.1565486,0.37504 -0.5054023,0.51842 -0.3322416,0.13656 -0.7189995,-0.0249 z m -3.3052195,6.53349 q -0.187519,-0.0783 -0.109244,-0.26579 l 2.3433357,-5.61385 q 0.078274,-0.18752 0.2657933,-0.10925 l 0.9844748,0.41094 q 0.187519,0.0783 0.1092447,0.2658 l -2.3433365,5.61385 q -0.07827,0.18752 -0.265793,0.10924 z" style="font-weight:600;font-size:12.7px;line-height:1.25;font-family:Barlow;-inkscape-font-specification:'Barlow Semi-Bold';font-variant-ligatures:none;letter-spacing:1.32292px;fill:#999999;stroke-width:0.264583" id="path1056"/>
    <path d="m -1.0704952,181.48699 q 0.04858,-0.19731 0.24588743,-0.14873 l 1.03586404,0.25505 q 0.19730744,0.0486 0.14872746,0.24589 l -2.02821413,8.23758 q -0.04858,0.19731 -0.2458874,0.14873 l -1.035864,-0.25505 q -0.1973074,-0.0486 -0.1487275,-0.24588 l 0.8531859,-3.46522 q 0.018217,-0.074 -0.055773,-0.0922 L -5.42122,185.39899 q -0.07399,-0.0182 -0.092208,0.0558 L -6.3666139,188.92 q -0.04858,0.19731 -0.2458874,0.14873 l -1.035864,-0.25505 q -0.1973075,-0.0486 -0.1487275,-0.24588 l 2.0282141,-8.23759 q 0.04858,-0.19731 0.2458874,-0.14873 l 1.035864,0.25505 q 0.1973075,0.0486 0.1487275,0.24588 l -0.8349684,3.39123 q -0.018218,0.074 0.055773,0.0922 l 3.1199239,0.76817 q 0.07399,0.0182 0.092208,-0.0558 z" style="font-weight:600;font-size:12.7px;line-height:1.25;font-family:Barlow;-inkscape-font-specification:'Barlow Semi-Bold';font-variant-ligatures:none;letter-spacing:1.32292px;fill:#999999;stroke-width:0.264583" id="path1058"/>
    <path d="m 3.4757866,184.10298 q 0.7990774,0.0404 1.393777,0.35029 0.6073834,0.31049 0.9121283,0.82185 0.3053866,0.49867 0.2739347,1.12017 l -0.2137448,4.2237 q -0.01027,0.20294 -0.2132103,0.19267 l -1.0654366,-0.0539 q -0.2029403,-0.0103 -0.1926703,-0.21321 l 0.016047,-0.31709 q 0.00257,-0.0507 -0.0228,-0.052 -0.024726,-0.014 -0.064061,0.009 -0.7183011,0.6249 -1.8598403,0.56713 -0.9385989,-0.0475 -1.52302847,-0.56029 -0.57174584,-0.51216 -0.52360512,-1.46344 0.0500664,-0.98933 0.76259059,-1.50007 0.7258498,-0.52279 1.9815429,-0.45924 l 1.3444795,0.068 q 0.076103,0.004 0.079954,-0.0722 l 0.014763,-0.29173 q 0.025033,-0.49467 -0.2658979,-0.77643 -0.2776054,-0.29381 -0.8610587,-0.32333 -0.4439319,-0.0225 -0.744003,0.12766 -0.2994292,0.13744 -0.4150206,0.41135 -0.059721,0.175 -0.2366523,0.15333 l -1.13447851,-0.19729 q -0.10082828,-0.0178 -0.14963772,-0.0584 -0.0481676,-0.0533 -0.0322744,-0.11608 0.15266649,-0.75525 0.90003263,-1.20065 0.7600498,-0.44475 1.8381702,-0.39019 z m -0.5709429,5.50267 q 0.6215047,0.0315 1.0821254,-0.27586 0.4606207,-0.30731 0.4862957,-0.81466 l 0.029526,-0.58346 q 0.00385,-0.0761 -0.072251,-0.0799 l -1.0527528,-0.0533 q -0.6722398,-0.034 -1.0782741,0.19975 -0.4060344,0.23378 -0.4297838,0.70308 -0.02054,0.40588 0.2723166,0.64959 0.2934986,0.23103 0.762798,0.25478 z" style="font-weight:600;font-size:12.7px;line-height:1.25;font-family:Barlow;-inkscape-font-specification:'Barlow Semi-Bold';font-variant-ligatures:none;letter-spacing:1.32292px;fill:#999999;stroke-width:0.264583" id="path1060"/>
    <path d="m 10.52492,190.50074 q -0.7942571,0.0965 -1.4269825,-0.0569 -0.6216503,-0.16753 -0.9984654,-0.53113 -0.3783472,-0.3762 -0.4396306,-0.88049 l -0.00766,-0.063 q -0.024513,-0.20171 0.1772027,-0.22623 l 1.0085799,-0.12256 q 0.2017159,-0.0245 0.2124405,0.0637 l 0.010725,0.0883 q 0.038302,0.31519 0.4078074,0.51336 0.3805804,0.18403 0.910085,0.11968 0.50429,-0.0613 0.794958,-0.3013 0.289136,-0.25263 0.250834,-0.56781 -0.03524,-0.28996 -0.316843,-0.39647 -0.27053,-0.12064 -0.870381,-0.21406 l -0.4974606,-0.0931 q -0.6659509,-0.11097 -1.13325,-0.27167 -0.4672991,-0.1607 -0.8143035,-0.48954 -0.3485365,-0.34145 -0.4190123,-0.92138 -0.1072459,-0.88251 0.5107301,-1.48214 0.6290512,-0.61377 1.7637036,-0.75166 0.7690427,-0.0935 1.3796177,0.0882 0.609043,0.16907 0.977847,0.57202 0.379879,0.38881 0.447291,0.94353 0.0077,0.063 -0.04925,0.12112 -0.04583,0.0439 -0.134083,0.0547 l -0.970758,0.11797 q -0.201716,0.0245 -0.210909,-0.0511 l -0.0092,-0.0756 q -0.03983,-0.32779 -0.393668,-0.50228 -0.342759,-0.18863 -0.8974781,-0.12122 -0.4916827,0.0597 -0.7838827,0.28716 -0.2811248,0.21327 -0.2412906,0.54106 0.03677,0.30258 0.3466538,0.43123 0.3083517,0.11605 1.0121246,0.22243 l 0.299159,0.0404 q 0.705305,0.11899 1.183679,0.26555 0.478375,0.14656 0.839518,0.48648 0.361144,0.33991 0.433152,0.93245 0.108778,0.89512 -0.534413,1.49781 -0.644722,0.59009 -1.817196,0.73257 z" style="font-weight:600;font-size:12.7px;line-height:1.25;font-family:Barlow;-inkscape-font-specification:'Barlow Semi-Bold';font-variant-ligatures:none;letter-spacing:1.32292px;fill:#999999;stroke-width:0.264583" id="path1062"/>
    <path d="m 16.155292,182.47259 q 0.995893,-0.30448 1.75709,0.10024 0.773343,0.40102 1.081542,1.40905 l 1.203092,3.93499 q 0.05941,0.19433 -0.134909,0.25374 l -1.020183,0.31191 q -0.19432,0.0594 -0.253732,-0.13491 l -1.113974,-3.64351 q -0.170809,-0.55867 -0.602696,-0.79847 -0.423455,-0.25566 -0.945691,-0.096 -0.522237,0.15967 -0.746182,0.59999 -0.2118,0.43661 -0.04099,0.99528 l 1.117687,3.65565 q 0.05941,0.19432 -0.134909,0.25374 l -1.020183,0.31191 q -0.19432,0.0594 -0.253732,-0.13491 l -2.480448,-8.11288 q -0.05941,-0.19432 0.134908,-0.25373 l 1.020183,-0.31192 q 0.194321,-0.0594 0.253733,0.13491 l 0.802061,2.62333 q 0.01485,0.0486 0.04286,0.0533 0.028,0.005 0.04115,-0.0391 0.309576,-0.81179 1.293323,-1.11257 z" style="font-weight:600;font-size:12.7px;line-height:1.25;font-family:Barlow;-inkscape-font-specification:'Barlow Semi-Bold';font-variant-ligatures:none;letter-spacing:1.32292px;fill:#999999;stroke-width:0.264583" id="path1064"/>
    <path d="m 22.927024,186.90835 q -0.302787,0.1395 -0.589444,0.0408 -0.278006,-0.10264 -0.409528,-0.38813 -0.123552,-0.26818 -0.0036,-0.55416 0.124609,-0.29861 0.392792,-0.42216 0.276835,-0.12754 0.584779,-0.0282 0.303959,0.0907 0.427511,0.35887 0.127537,0.27683 0.01158,0.57146 -0.111293,0.28199 -0.414081,0.42148 z" style="font-size:9.525px;line-height:1.25;font-family:Barlow;-inkscape-font-specification:'Barlow, Normal';font-variant-ligatures:none;letter-spacing:1.32292px;fill:#999999;stroke-width:0.264583" id="path1066"/>
    <path d="m 23.414404,180.49775 q -0.27333,0.15521 -0.541336,0.0883 -0.272708,-0.0752 -0.423215,-0.34022 -0.150508,-0.26505 -0.07064,-0.52947 0.07987,-0.26443 0.353201,-0.41964 0.273331,-0.15521 0.533054,-0.0836 0.268005,0.0669 0.418512,0.33193 0.150508,0.26505 0.07534,0.53776 -0.07159,0.25972 -0.344919,0.41493 z m 2.356556,4.96013 q -0.132524,0.0753 -0.207778,-0.0573 l -2.252909,-3.96744 q -0.07525,-0.13253 0.05727,-0.20778 l 0.695751,-0.39508 q 0.132524,-0.0753 0.207778,0.0573 l 2.252909,3.96744 q 0.07525,0.13252 -0.05727,0.20777 z" style="font-size:9.525px;line-height:1.25;font-family:Barlow;-inkscape-font-specification:'Barlow, Normal';font-variant-ligatures:none;letter-spacing:1.32292px;fill:#999999;stroke-width:0.264583" id="path1068"/>
    <path d="m 30.242426,182.68633 q -0.607998,0.44335 -1.27116,0.45539 -0.663162,0.012 -1.23093,-0.41093 -0.405822,-0.28171 -0.770602,-0.78196 -0.359168,-0.49256 -0.516629,-0.96716 -0.215828,-0.66781 0.004,-1.28784 0.219814,-0.62003 0.835508,-1.06899 0.584909,-0.42652 1.227067,-0.43503 0.649854,-0.0141 1.214093,0.38784 0.407907,0.2684 0.778299,0.77635 0.353556,0.48486 0.508933,0.97277 0.22144,0.6755 0.02055,1.30532 -0.206506,0.62212 -0.799111,1.05424 z m -0.5612,-0.76962 q 0.284758,-0.20764 0.367007,-0.51517 0.08995,-0.31315 -0.03865,-0.66733 -0.09493,-0.30801 -0.38675,-0.70821 -0.274988,-0.37711 -0.54837,-0.59036 -0.297913,-0.23072 -0.625646,-0.22751 -0.325649,-0.0101 -0.618104,0.20316 -0.292454,0.21325 -0.382399,0.5264 -0.09556,0.30545 0.03304,0.65963 0.119458,0.32549 0.394446,0.7026 0.274988,0.37711 0.54837,0.59036 0.297914,0.23072 0.623562,0.24082 0.333345,0.004 0.633496,-0.21439 z" style="font-size:9.525px;line-height:1.25;font-family:Barlow;-inkscape-font-specification:'Barlow, Normal';font-variant-ligatures:none;letter-spacing:1.32292px;fill:#999999;stroke-width:0.264583" id="path1070"/>
  </g>
</svg>