<?xml version="1.0" encoding="UTF-8" standalone="no"?>
<!-- Created with Inkscape (http://www.inkscape.org/) -->

<svg
   width="292.26917mm"
   height="45.383389mm"
   viewBox="0 0 292.26917 45.383389"
   version="1.1"
   id="svg1342"
   xmlns="http://www.w3.org/2000/svg"
   xmlns:svg="http://www.w3.org/2000/svg">
  <defs
     id="defs1339" />
  <g
     id="layer1"
     transform="translate(50.67031,-125.8083)">
    <path
       id="path1280"
       clip-path="none"
       style="fill:#fb4934;fill-opacity:1;stroke-width:0.466553;stroke-linejoin:bevel"
       d="m -13.07675,171.1917 a -26.591318,-26.591318 0 0 0 2.56781,-34.63044 -26.591318,-26.591318 0 0 0 -37.19877,-5.52111 -26.591318,-26.591318 0 0 0 -2.9626,2.55798 l 9.59321,9.59321 h 1.61695 c 0.18651,0 0.3171,-0.0936 0.39172,-0.28008 l 2.18228,-7.88944 c 0.11189,-0.55952 0.44765,-0.83923 1.00719,-0.83923 l 4.58782,0.0563 c 0.26112,0 0.44776,0.0745 0.55965,0.22376 0.11192,0.18651 0.13046,0.42867 0.0558,0.72708 l -2.07016,7.66569 c -0.11192,0.2238 -0.0189,0.33538 0.27956,0.33538 h 6.32262 c 0.1865,0 0.33612,-0.0931 0.44802,-0.27957 l 2.12598,-7.88944 c 0.1865,-0.55952 0.54075,-0.83923 1.06299,-0.83923 l 4.53202,0.0558 c 0.29839,0 0.50355,0.0751 0.61547,0.22428 0.11189,0.18651 0.13089,0.42867 0.0563,0.72708 l -2.12648,7.66569 c -0.0746,0.2238 0.0375,0.33538 0.33592,0.33538 h 2.79775 c 0.59682,0 0.85802,0.29872 0.78341,0.89555 l -0.50385,3.74861 c -0.0746,0.59681 -0.39185,0.89503 -0.95136,0.89503 h -3.69279 c -0.1492,0 -0.29832,0.11209 -0.44752,0.3359 l -1.79059,6.60218 c -0.0373,0.11191 -0.0183,0.18698 0.0563,0.22428 0.0746,0.0746 0.14915,0.11162 0.22376,0.11162 h 2.74143 c 0.59682,0 0.85801,0.29821 0.78343,0.89503 l -0.50385,3.80494 c -0.0373,0.26111 -0.13041,0.46626 -0.27958,0.61546 -0.18651,0.18651 -0.41016,0.28009 -0.67128,0.28009 h -2.12079 z m -15.99747,-15.99747 1.69963,-6.12831 c 0.0373,-0.22381 -0.0558,-0.33538 -0.27956,-0.33538 h -6.37842 c -0.1865,0 -0.3171,0.11157 -0.39171,0.33538 l -0.16587,0.61237 z" />
    <g
       aria-label="#"
       id="g1284"
       style="font-size:55.9522px;line-height:1.25;font-family:Barlow;-inkscape-font-specification:'Barlow, Normal';font-variant-ligatures:none;fill:#fb4934;fill-opacity:1;stroke-width:2.33134"
       clip-path="none"
       transform="rotate(180,79.405763,160.88714)">
      <path
         id="path1282"
         style="font-style:italic;font-weight:600;-inkscape-font-specification:'Barlow Semi-Bold Italic';fill:#fb4934;fill-opacity:1;stroke-width:8.81136"
         d="m 1345.418,279.71875 c -0.9869,0 -1.8342,0.28373 -2.5391,0.84766 -0.5639,0.56393 -0.9856,1.33931 -1.2676,2.32617 l -8.248,29.8164 c -0.282,0.70491 -0.7756,1.0586 -1.4805,1.0586 h -24.1074 c -0.282,0 -0.5637,-0.072 -0.8457,-0.21289 -0.2817,-0.28196 -0.3538,-0.63369 -0.2129,-1.05664 l 8.0371,-28.97266 c 0.2819,-1.12786 0.212,-1.97318 -0.2109,-2.53711 -0.423,-0.70491 -1.1984,-1.05664 -2.3262,-1.05664 l -17.1309,-0.21094 c -2.2557,0 -3.5946,1.05716 -4.0175,3.17188 l -8.0352,29.8164 c -0.4229,0.70491 -0.9884,1.0586 -1.6934,1.0586 h -5.7246 l 24.2032,24.20312 0.5546,-2 c 0.423,-0.7049 0.9865,-1.05664 1.6915,-1.05664 h 23.6855 c 1.1278,0 1.4796,0.42363 1.0566,1.26953 l -6.1386,22.63672 24.5215,24.52149 h 8.0527 c 2.1147,0 3.3817,-1.12905 3.8047,-3.38477 l 1.6933,-14.16797 c 0.282,-2.2557 -0.7052,-3.38281 -2.9609,-3.38281 h -10.7852 c -1.1278,0 -1.4796,-0.42365 -1.0566,-1.26953 l 6.9785,-25.16602 c 0.282,-0.7049 0.7736,-1.05664 1.4785,-1.05664 h 14.17 c 2.1147,0 3.3836,-1.12711 3.8066,-3.38281 l 1.9023,-14.38086 c 0.141,-2.25572 -0.8442,-3.38477 -2.9589,-3.38477 h -10.9981 c -0.8458,0 -1.1975,-0.42169 -1.0566,-1.26757 l 7.8242,-28.97266 c 0.2818,-1.12786 0.212,-1.97318 -0.211,-2.53711 -0.4229,-0.70491 -1.1283,-1.05664 -2.1152,-1.05664 z"
         transform="matrix(0.26458333,0,0,0.26458333,-156.02499,77.15778)" />
    </g>
    <path
       d="m 11.807197,170.77391 q -0.731112,0 -0.940002,-0.67889 L 0.05717894,135.1583 q -0.0522223,-0.10444 -0.0522223,-0.31333 0,-0.62667 0.73111222,-0.62667 H 5.4882983 q 0.7311122,0 0.9400014,0.67889 L 14.1572,161.89612 q 0.104445,0.20889 0.20889,0.20889 0.156666,0 0.208889,-0.20889 l 7.676678,-26.94671 q 0.156667,-0.73111 0.940001,-0.73111 h 4.647785 q 0.417779,0 0.574446,0.26111 0.208889,0.26111 0.104444,0.67889 L 17.55165,170.09502 q -0.208889,0.67889 -0.940001,0.67889 z"
       style="font-weight:600;font-size:52.2223px;line-height:1.25;font-family:Barlow;-inkscape-font-specification:'Barlow Semi-Bold';font-variant-ligatures:none;fill:#1d2021;stroke-width:2.17593"
       id="path1456" />
    <path
       d="m 42.40934,166.0739 q 1.932225,-0.0522 3.342227,-0.78333 1.462225,-0.78334 2.350004,-2.08889 0.261111,-0.41778 0.67889,-0.41778 0.261111,0 0.47,0.15667 l 2.506671,1.98444 q 0.365556,0.36556 0.365556,0.67889 0,0.20889 -0.156667,0.47 -1.514447,2.40223 -4.125562,3.76001 -2.611115,1.35778 -6.005565,1.35778 -4.125561,0 -6.945566,-1.93223 -2.767782,-1.98444 -4.021117,-5.48334 -1.044446,-2.87222 -1.044446,-6.47556 0,-3.60334 0.574445,-5.53557 0.992224,-3.70778 3.916673,-5.90112 2.924449,-2.19333 7.102233,-2.19333 9.76557,0 11.436684,10.70557 0.261112,1.72333 0.365556,4.28223 0,0.83555 -0.835557,0.83555 H 36.194886 q -0.313334,0 -0.313334,0.31334 0,1.41 0.313334,2.29778 0.574445,1.88 2.193337,2.92445 1.618891,1.04444 4.021117,1.04444 z m -1.044446,-17.18113 q -1.984448,0 -3.290005,0.99222 -1.253335,0.94 -1.723336,2.66334 -0.365556,1.04444 -0.417779,2.19333 -0.05222,0.31334 0.261112,0.31334 h 10.496683 q 0.313333,0 0.313333,-0.31334 -0.208889,-1.56667 -0.313333,-1.88 -0.470001,-1.82778 -1.880003,-2.87223 -1.35778,-1.09666 -3.446672,-1.09666 z"
       style="font-weight:600;font-size:52.2223px;line-height:1.25;font-family:Barlow;-inkscape-font-specification:'Barlow Semi-Bold';font-variant-ligatures:none;fill:#1d2021;stroke-width:2.17593"
       id="path1458" />
    <path
       d="m 71.183818,143.77498 q 1.514447,0 2.767782,0.57445 0.626668,0.31333 0.470001,1.04444 l -0.835557,4.33445 q -0.05222,0.41778 -0.313334,0.52223 -0.208889,0.10444 -0.67889,0 -0.626667,-0.20889 -1.671113,-0.20889 -0.626668,0 -0.992224,0.0522 -2.193337,0.10444 -3.655561,1.56667 -1.462225,1.41 -1.462225,3.70778 v 14.57002 q 0,0.83556 -0.835556,0.83556 h -4.386674 q -0.835557,0 -0.835557,-0.83556 v -25.01448 q 0,-0.83556 0.835557,-0.83556 h 4.386674 q 0.835556,0 0.835556,0.83556 v 2.03667 q 0,0.20889 0.104445,0.26111 0.104445,0.0522 0.208889,-0.15666 2.193337,-3.29001 6.057787,-3.29001 z"
       style="font-weight:600;font-size:52.2223px;line-height:1.25;font-family:Barlow;-inkscape-font-specification:'Barlow Semi-Bold';font-variant-ligatures:none;fill:#1d2021;stroke-width:2.17593"
       id="path1460" />
    <path
       d="m 81.837138,140.74609 q -1.723336,0 -2.820005,-1.04445 -1.096668,-1.09667 -1.096668,-2.76778 0,-1.67111 1.096668,-2.71556 1.096669,-1.04445 2.820005,-1.04445 1.723336,0 2.767782,1.04445 1.096668,1.04445 1.096668,2.71556 0,1.67111 -1.096668,2.76778 -1.044446,1.04445 -2.767782,1.04445 z m -2.193337,30.02782 q -0.835557,0 -0.835557,-0.83556 v -25.01448 q 0,-0.83556 0.835557,-0.83556 h 4.386673 q 0.835557,0 0.835557,0.83556 v 25.01448 q 0,0.83556 -0.835557,0.83556 z"
       style="font-weight:600;font-size:52.2223px;line-height:1.25;font-family:Barlow;-inkscape-font-specification:'Barlow Semi-Bold';font-variant-ligatures:none;fill:#1d2021;stroke-width:2.17593"
       id="path1462" />
    <path
       d="m 112.17825,135.05386 q 0,-0.83556 0.83556,-0.83556 h 4.38667 q 0.83556,0 0.83556,0.83556 v 34.88449 q 0,0.83556 -0.83556,0.83556 h -4.38667 q -0.83556,0 -0.83556,-0.83556 v -14.67446 q 0,-0.31334 -0.31333,-0.31334 H 98.652675 q -0.313334,0 -0.313334,0.31334 v 14.67446 q 0,0.83556 -0.835557,0.83556 h -4.386673 q -0.835557,0 -0.835557,-0.83556 v -34.88449 q 0,-0.83556 0.835557,-0.83556 h 4.386673 q 0.835557,0 0.835557,0.83556 v 14.36113 q 0,0.31333 0.313334,0.31333 h 13.212245 q 0.31333,0 0.31333,-0.31333 z"
       style="font-weight:600;font-size:52.2223px;line-height:1.25;font-family:Barlow;-inkscape-font-specification:'Barlow Semi-Bold';font-variant-ligatures:none;fill:#1d2021;stroke-width:2.17593"
       id="path1464" />
    <path
       d="m 135.15602,143.67054 q 3.29001,0 5.79668,1.14889 2.55889,1.14889 3.91667,3.18556 1.35778,1.98444 1.35778,4.54334 v 17.39002 q 0,0.83556 -0.83556,0.83556 h -4.38667 q -0.83556,0 -0.83556,-0.83556 v -1.30555 q 0,-0.20889 -0.10444,-0.20889 -0.10445,-0.0522 -0.26111,0.0522 -2.82001,2.71556 -7.52002,2.71556 -3.86445,0 -6.37112,-1.98445 -2.45444,-1.98445 -2.45444,-5.90112 0,-4.07334 2.82,-6.3189 2.87223,-2.29778 8.04223,-2.29778 h 5.53557 q 0.31333,0 0.31333,-0.31333 v -1.20112 q 0,-2.03666 -1.25333,-3.13333 -1.20112,-1.14889 -3.60334,-1.14889 -1.82778,0 -3.0289,0.67889 -1.20111,0.62666 -1.61889,1.77555 -0.20889,0.73112 -0.94,0.67889 l -4.70001,-0.57444 q -0.41777,-0.0522 -0.62666,-0.20889 -0.20889,-0.20889 -0.15667,-0.47 0.47,-3.13334 3.44667,-5.11779 3.0289,-1.98444 7.46779,-1.98444 z m -1.20111,22.7167 q 2.55889,0 4.38667,-1.35778 1.82778,-1.35778 1.82778,-3.44667 v -2.40223 q 0,-0.31333 -0.31333,-0.31333 h -4.33445 q -2.76778,0 -4.38668,1.04444 -1.61889,1.04445 -1.61889,2.97667 0,1.67112 1.25334,2.61112 1.25333,0.88778 3.18556,0.88778 z"
       style="font-weight:600;font-size:52.2223px;line-height:1.25;font-family:Barlow;-inkscape-font-specification:'Barlow Semi-Bold';font-variant-ligatures:none;fill:#1d2021;stroke-width:2.17593"
       id="path1466" />
    <path
       d="m 162.20714,171.08724 q -3.29,0 -5.79667,-0.94 -2.45445,-0.99222 -3.81223,-2.66333 -1.35778,-1.72334 -1.35778,-3.81223 v -0.26111 q 0,-0.83556 0.83556,-0.83556 h 4.17778 q 0.83556,0 0.83556,0.36556 v 0.36555 q 0,1.30556 1.41,2.29778 1.46222,0.94 3.65556,0.94 2.08889,0 3.39445,-0.83555 1.30556,-0.88778 1.30556,-2.19334 0,-1.20111 -1.09667,-1.77556 -1.04445,-0.62667 -3.44667,-1.30556 l -1.98445,-0.62666 q -2.66334,-0.78334 -4.49112,-1.67112 -1.82778,-0.88778 -3.08111,-2.40222 -1.25334,-1.56667 -1.25334,-3.9689 0,-3.65556 2.82,-5.79667 2.87223,-2.19334 7.57224,-2.19334 3.18556,0 5.58778,1.04445 2.40223,0.99222 3.70779,2.82 1.35778,1.77556 1.35778,4.07334 0,0.26111 -0.26111,0.47 -0.20889,0.15667 -0.57445,0.15667 h -4.02112 q -0.83555,0 -0.83555,-0.31334 v -0.31333 q 0,-1.35778 -1.35778,-2.24556 -1.30556,-0.94 -3.60334,-0.94 -2.03667,0 -3.34223,0.78333 -1.25333,0.73112 -1.25333,2.0889 0,1.25333 1.20111,1.93222 1.20111,0.62667 4.02112,1.41 l 1.20111,0.31334 q 2.82,0.83555 4.70001,1.67111 1.88,0.83556 3.18556,2.40223 1.30555,1.56667 1.30555,4.02111 0,3.70779 -2.92445,5.8489 -2.92444,2.08889 -7.78112,2.08889 z"
       style="font-weight:600;font-size:52.2223px;line-height:1.25;font-family:Barlow;-inkscape-font-specification:'Barlow Semi-Bold';font-variant-ligatures:none;fill:#1d2021;stroke-width:2.17593"
       id="path1468" />
    <path
       d="m 190.82494,143.67054 q 4.28223,0 6.7889,2.50667 2.55889,2.50667 2.55889,6.84112 v 16.92002 q 0,0.83556 -0.83556,0.83556 h -4.38667 q -0.83556,0 -0.83556,-0.83556 v -15.66669 q 0,-2.40222 -1.41,-3.86445 -1.35778,-1.51444 -3.60334,-1.51444 -2.24556,0 -3.65556,1.46222 -1.35778,1.46223 -1.35778,3.86445 v 15.71891 q 0,0.83556 -0.83556,0.83556 h -4.38667 q -0.83556,0 -0.83556,-0.83556 v -34.88449 q 0,-0.83556 0.83556,-0.83556 h 4.38667 q 0.83556,0 0.83556,0.83556 v 11.28001 q 0,0.20889 0.10444,0.26111 0.10445,0.0522 0.20889,-0.10444 2.19334,-2.82 6.42335,-2.82 z"
       style="font-weight:600;font-size:52.2223px;line-height:1.25;font-family:Barlow;-inkscape-font-specification:'Barlow Semi-Bold';font-variant-ligatures:none;fill:#1d2021;stroke-width:2.17593"
       id="path1470" />
    <path
       d="m 208.23601,170.89113 q -1.16469,0 -1.95368,-0.75142 -0.75142,-0.75141 -0.75142,-1.87854 0,-1.05198 0.82656,-1.8034 0.82656,-0.75141 1.87854,-0.75141 1.05198,0 1.87854,0.75141 0.86413,0.75142 0.86413,1.8034 0,1.08956 -0.78899,1.87854 -0.78899,0.75142 -1.95368,0.75142 z"
       style="font-weight:500;font-size:37.5708px;line-height:1.25;font-family:Barlow;-inkscape-font-specification:'Barlow Medium';font-variant-ligatures:none;fill:#fb4934;stroke-width:2.17593"
       id="path1499" />
    <path
       d="m 218.11713,148.91221 q -1.08956,0 -1.8034,-0.6387 -0.67628,-0.67628 -0.67628,-1.72826 0,-1.05198 0.67628,-1.69069 0.71384,-0.67627 1.8034,-0.67627 1.08955,0 1.76582,0.67627 0.67628,0.63871 0.67628,1.69069 0,1.05198 -0.67628,1.72826 -0.67627,0.6387 -1.76582,0.6387 z m -1.23984,21.97892 q -0.26299,0 -0.41328,-0.15028 -0.15028,-0.15029 -0.15028,-0.41328 v -17.99642 q 0,-0.26299 0.15028,-0.41328 0.15029,-0.15028 0.41328,-0.15028 h 2.47967 q 0.263,0 0.41328,0.15028 0.15029,0.15029 0.15029,0.41328 v 17.99642 q 0,0.26299 -0.15029,0.41328 -0.15028,0.15028 -0.41328,0.15028 z"
       style="font-weight:500;font-size:37.5708px;line-height:1.25;font-family:Barlow;-inkscape-font-specification:'Barlow Medium';font-variant-ligatures:none;fill:#fb4934;stroke-width:2.17593"
       id="path1501" />
    <path
       d="m 233.29571,171.19169 q -2.81781,0 -4.8842,-1.39011 -2.02883,-1.4277 -2.85538,-3.94494 -0.67628,-2.02882 -0.67628,-4.58364 0,-2.66752 0.63871,-4.50849 0.82655,-2.47968 2.89295,-3.8698 2.06639,-1.42769 4.92177,-1.42769 2.7051,0 4.69635,1.42769 2.02883,1.39012 2.89295,3.83223 0.67628,1.91611 0.67628,4.50849 0,2.62996 -0.67628,4.62121 -0.82655,2.51724 -2.85538,3.94494 -2.02882,1.39011 -4.77149,1.39011 z m 0,-3.11837 q 1.50283,0 2.62996,-0.82656 1.12712,-0.86413 1.61554,-2.40453 0.41328,-1.42769 0.41328,-3.53166 0,-2.10396 -0.37571,-3.49408 -0.48842,-1.5404 -1.61554,-2.36696 -1.12713,-0.86413 -2.74267,-0.86413 -1.5404,0 -2.66753,0.86413 -1.12712,0.82656 -1.61554,2.36696 -0.41328,1.31498 -0.41328,3.49408 0,2.17911 0.41328,3.53166 0.45085,1.5404 1.57797,2.40453 1.1647,0.82656 2.78024,0.82656 z"
       style="font-weight:500;font-size:37.5708px;line-height:1.25;font-family:Barlow;-inkscape-font-specification:'Barlow Medium';font-variant-ligatures:none;fill:#fb4934;stroke-width:2.17593"
       id="path1503" />
  </g>
</svg>
