<?xml version="1.0" encoding="UTF-8" standalone="no"?>
<!-- Created with Inkscape (http://www.inkscape.org/) -->

<svg
   width="292.2692mm"
   height="45.383396mm"
   viewBox="0 0 292.2692 45.383396"
   version="1.1"
   id="svg8624"
   xmlns="http://www.w3.org/2000/svg"
   xmlns:svg="http://www.w3.org/2000/svg">
  <defs
     id="defs8621" />
  <g
     id="layer1"
     transform="translate(139.08876,-122.17837)">
    <path
       id="path182534"
       clip-path="none"
       style="fill:#f92672;fill-opacity:1;stroke-width:0.466553;stroke-linejoin:bevel"
       d="m -101.4952,167.56176 a 26.591318,26.591318 0 0 0 2.56781,-34.63044 26.591318,26.591318 0 0 0 -37.19877,-5.52111 26.591318,26.591318 0 0 0 -2.9626,2.55798 l 9.59321,9.59321 h 1.61695 c 0.18651,0 0.3171,-0.0936 0.39172,-0.28008 l 2.18228,-7.88944 c 0.11189,-0.55952 0.44765,-0.83923 1.00719,-0.83923 l 4.58782,0.0563 c 0.26112,0 0.44776,0.0745 0.55965,0.22376 0.11192,0.18651 0.13046,0.42867 0.0558,0.72708 l -2.07016,7.66569 c -0.11192,0.2238 -0.0189,0.33538 0.27956,0.33538 h 6.32262 c 0.1865,0 0.33612,-0.0931 0.44802,-0.27957 l 2.12598,-7.88944 c 0.1865,-0.55952 0.54075,-0.83923 1.06299,-0.83923 l 4.53202,0.0558 c 0.29839,0 0.50355,0.0751 0.61547,0.22428 0.11189,0.18651 0.13089,0.42867 0.0563,0.72708 l -2.12648,7.66569 c -0.0746,0.2238 0.0375,0.33538 0.33592,0.33538 h 2.79775 c 0.59682,0 0.85802,0.29872 0.78341,0.89555 l -0.50385,3.74861 c -0.0746,0.59681 -0.39185,0.89503 -0.95136,0.89503 h -3.69279 c -0.1492,0 -0.29832,0.11209 -0.44752,0.3359 l -1.79059,6.60218 c -0.0373,0.11191 -0.0183,0.18698 0.0563,0.22428 0.0746,0.0746 0.14915,0.11162 0.22376,0.11162 h 2.74143 c 0.59682,0 0.85801,0.29821 0.78343,0.89503 l -0.50385,3.80494 c -0.0373,0.26111 -0.13041,0.46626 -0.27958,0.61546 -0.18651,0.18651 -0.41016,0.28009 -0.67128,0.28009 h -2.12079 z m -15.99747,-15.99747 1.69963,-6.12831 c 0.0373,-0.22381 -0.0558,-0.33538 -0.27956,-0.33538 h -6.37842 c -0.1865,0 -0.3171,0.11157 -0.39171,0.33538 l -0.16587,0.61237 z" />
    <path
       id="path182536"
       style="font-style:italic;font-weight:600;font-size:55.9522px;line-height:1.25;font-family:Barlow;-inkscape-font-specification:'Barlow Semi-Bold Italic';font-variant-ligatures:none;fill:#f92672;fill-opacity:1;stroke-width:2.33134"
       d="m -129.5571,166.97764 c 0.26111,0 0.48529,-0.0751 0.6718,-0.22428 0.1492,-0.1492 0.26077,-0.35435 0.33538,-0.61546 l 2.18229,-7.88892 c 0.0746,-0.18651 0.20521,-0.28009 0.39171,-0.28009 h 6.37842 c 0.0746,0 0.14915,0.0191 0.22376,0.0563 0.0745,0.0746 0.0936,0.16766 0.0563,0.27957 l -2.12648,7.66568 c -0.0746,0.29841 -0.0561,0.52207 0.0558,0.67128 0.11191,0.1865 0.31707,0.27956 0.61547,0.27956 l 4.53255,0.0558 c 0.59682,0 0.95107,-0.27971 1.06296,-0.83923 l 2.12598,-7.88892 c 0.1119,-0.18651 0.26152,-0.28009 0.44805,-0.28009 h 1.51463 l -6.40376,-6.40374 -0.14674,0.52916 c -0.11192,0.18651 -0.26101,0.27957 -0.44754,0.27957 h -6.26679 c -0.2984,0 -0.39148,-0.11208 -0.27956,-0.33589 l 1.62417,-5.9893 -6.48798,-6.48798 h -2.13061 c -0.55951,0 -0.89474,0.29873 -1.00666,0.89555 l -0.44802,3.74861 c -0.0746,0.59682 0.18659,0.89504 0.78341,0.89504 h 2.85358 c 0.2984,0 0.39148,0.11209 0.27956,0.33589 l -1.84639,6.65851 c -0.0746,0.18651 -0.20469,0.27957 -0.39119,0.27957 h -3.74915 c -0.55951,0 -0.89524,0.29822 -1.00716,0.89504 l -0.50332,3.80493 c -0.0373,0.59683 0.22337,0.89556 0.78288,0.89556 h 2.90991 c 0.22379,0 0.31684,0.11157 0.27956,0.33538 l -2.07015,7.66568 c -0.0746,0.29841 -0.0561,0.52207 0.0558,0.67128 0.11189,0.1865 0.29853,0.27956 0.55964,0.27956 z" />
    <path
       d="m -76.611233,167.14398 q -0.731113,0 -0.940002,-0.67889 l -10.810016,-34.93672 q -0.05222,-0.10444 -0.05222,-0.31333 0,-0.62667 0.731112,-0.62667 h 4.752229 q 0.731112,0 0.940002,0.67889 l 7.7289,26.99893 q 0.104445,0.20889 0.208889,0.20889 0.156667,0 0.20889,-0.20889 l 7.676678,-26.94671 q 0.156667,-0.73111 0.940001,-0.73111 h 4.647785 q 0.417779,0 0.574446,0.26111 0.208889,0.26111 0.104444,0.67889 l -10.966683,34.93672 q -0.208889,0.67889 -0.940002,0.67889 z"
       style="font-weight:600;font-size:52.2223px;line-height:1.25;font-family:Barlow;-inkscape-font-specification:'Barlow Semi-Bold';font-variant-ligatures:none;fill:#f8f8f2;stroke-width:2.17593;fill-opacity:1"
       id="path8738" />
    <path
       d="m -46.00909,162.44397 q 1.932225,-0.0522 3.342227,-0.78333 1.462224,-0.78333 2.350004,-2.08889 0.261111,-0.41778 0.678889,-0.41778 0.261112,0 0.470001,0.15667 l 2.506671,1.98444 q 0.365556,0.36556 0.365556,0.67889 0,0.20889 -0.156667,0.47 -1.514447,2.40223 -4.125562,3.76001 -2.611115,1.35778 -6.005565,1.35778 -4.125561,0 -6.945566,-1.93222 -2.767782,-1.98445 -4.021117,-5.48335 -1.044446,-2.87222 -1.044446,-6.47556 0,-3.60334 0.574445,-5.53557 0.992224,-3.70778 3.916673,-5.90112 2.924449,-2.19333 7.102233,-2.19333 9.76557,0 11.436684,10.70557 0.261112,1.72334 0.365556,4.28223 0,0.83555 -0.835557,0.83555 h -16.188913 q -0.313334,0 -0.313334,0.31334 0,1.41 0.313334,2.29778 0.574445,1.88 2.193336,2.92445 1.618892,1.04444 4.021118,1.04444 z m -1.044446,-17.18113 q -1.984448,0 -3.290005,0.99222 -1.253336,0.94 -1.723336,2.66334 -0.365556,1.04444 -0.417779,2.19334 -0.05222,0.31333 0.261112,0.31333 h 10.496682 q 0.313334,0 0.313334,-0.31333 -0.208889,-1.56667 -0.313334,-1.88001 -0.47,-1.82778 -1.880002,-2.87222 -1.35778,-1.09667 -3.446672,-1.09667 z"
       style="font-weight:600;font-size:52.2223px;line-height:1.25;font-family:Barlow;-inkscape-font-specification:'Barlow Semi-Bold';font-variant-ligatures:none;fill:#f8f8f2;stroke-width:2.17593;fill-opacity:1"
       id="path8740" />
    <path
       d="m -17.234612,140.14505 q 1.514447,0 2.767782,0.57445 0.626668,0.31333 0.470001,1.04444 l -0.835557,4.33445 q -0.05222,0.41778 -0.313334,0.52223 -0.208889,0.10444 -0.67889,0 -0.626667,-0.20889 -1.671113,-0.20889 -0.626668,0 -0.992224,0.0522 -2.193337,0.10445 -3.655561,1.56667 -1.462225,1.41 -1.462225,3.70778 v 14.57003 q 0,0.83555 -0.835556,0.83555 h -4.386674 q -0.835557,0 -0.835557,-0.83555 v -25.01449 q 0,-0.83555 0.835557,-0.83555 h 4.386674 q 0.835556,0 0.835556,0.83555 v 2.03667 q 0,0.20889 0.104445,0.26111 0.104445,0.0522 0.208889,-0.15666 2.193337,-3.29001 6.057787,-3.29001 z"
       style="font-weight:600;font-size:52.2223px;line-height:1.25;font-family:Barlow;-inkscape-font-specification:'Barlow Semi-Bold';font-variant-ligatures:none;fill:#f8f8f2;stroke-width:2.17593;fill-opacity:1"
       id="path8742" />
    <path
       d="m -6.5812925,137.11616 q -1.7233359,0 -2.8200043,-1.04445 -1.0966682,-1.09667 -1.0966682,-2.76778 0,-1.67111 1.0966682,-2.71556 1.0966684,-1.04445 2.8200043,-1.04445 1.723336,0 2.767782,1.04445 1.0966683,1.04445 1.0966683,2.71556 0,1.67111 -1.0966683,2.76778 -1.044446,1.04445 -2.767782,1.04445 z m -2.1933366,30.02782 q -0.8355569,0 -0.8355569,-0.83555 v -25.01449 q 0,-0.83555 0.8355569,-0.83555 h 4.3866733 q 0.8355568,0 0.8355568,0.83555 v 25.01449 q 0,0.83555 -0.8355568,0.83555 z"
       style="font-weight:600;font-size:52.2223px;line-height:1.25;font-family:Barlow;-inkscape-font-specification:'Barlow Semi-Bold';font-variant-ligatures:none;fill:#f8f8f2;stroke-width:2.17593;fill-opacity:1"
       id="path8744" />
    <path
       d="m 23.759821,131.42393 q 0,-0.83556 0.835556,-0.83556 h 4.386674 q 0.835557,0 0.835557,0.83556 v 34.8845 q 0,0.83555 -0.835557,0.83555 h -4.386674 q -0.835556,0 -0.835556,-0.83555 v -14.67447 q 0,-0.31334 -0.313334,-0.31334 H 10.234244 q -0.3133333,0 -0.3133333,0.31334 v 14.67447 q 0,0.83555 -0.8355569,0.83555 H 4.6986805 q -0.8355568,0 -0.8355568,-0.83555 v -34.8845 q 0,-0.83556 0.8355568,-0.83556 h 4.3866733 q 0.8355569,0 0.8355569,0.83556 v 14.36113 q 0,0.31333 0.3133333,0.31333 h 13.212243 q 0.313334,0 0.313334,-0.31333 z"
       style="font-weight:600;font-size:52.2223px;line-height:1.25;font-family:Barlow;-inkscape-font-specification:'Barlow Semi-Bold';font-variant-ligatures:none;fill:#f8f8f2;stroke-width:2.17593;fill-opacity:1"
       id="path8746" />
    <path
       d="m 46.737591,140.04061 q 3.290005,0 5.796676,1.14889 2.558892,1.14889 3.916672,3.18556 1.35778,1.98445 1.35778,4.54334 v 17.39003 q 0,0.83555 -0.835557,0.83555 h -4.386673 q -0.835557,0 -0.835557,-0.83555 v -1.30556 q 0,-0.20889 -0.104445,-0.20889 -0.104444,-0.0522 -0.261111,0.0522 -2.820004,2.71556 -7.520011,2.71556 -3.864451,0 -6.371121,-1.98445 -2.454448,-1.98444 -2.454448,-5.90112 0,-4.07334 2.820004,-6.3189 2.872226,-2.29778 8.042234,-2.29778 h 5.535564 q 0.313334,0 0.313334,-0.31333 v -1.20111 q 0,-2.03667 -1.253335,-3.13334 -1.201113,-1.14889 -3.603339,-1.14889 -1.827781,0 -3.028893,0.67889 -1.201113,0.62667 -1.618892,1.77556 -0.208889,0.73111 -0.940001,0.67889 l -4.700007,-0.57445 q -0.417779,-0.0522 -0.626668,-0.20889 -0.208889,-0.20889 -0.156667,-0.47 0.470001,-3.13334 3.446672,-5.11779 3.028894,-1.98444 7.467789,-1.98444 z m -1.201113,22.7167 q 2.558893,0 4.386674,-1.35778 1.82778,-1.35778 1.82778,-3.44667 v -2.40223 q 0,-0.31333 -0.313334,-0.31333 h -4.334451 q -2.767782,0 -4.386673,1.04444 -1.618891,1.04445 -1.618891,2.97667 0,1.67112 1.253335,2.61112 1.253335,0.88778 3.18556,0.88778 z"
       style="font-weight:600;font-size:52.2223px;line-height:1.25;font-family:Barlow;-inkscape-font-specification:'Barlow Semi-Bold';font-variant-ligatures:none;fill:#f8f8f2;stroke-width:2.17593;fill-opacity:1"
       id="path8748" />
    <path
       d="m 73.788712,167.45732 q -3.290005,0 -5.796676,-0.94001 -2.454448,-0.99222 -3.812228,-2.66333 -1.35778,-1.72334 -1.35778,-3.81223 v -0.26111 q 0,-0.83556 0.835557,-0.83556 h 4.177784 q 0.835557,0 0.835557,0.36556 v 0.36555 q 0,1.30556 1.410002,2.29778 1.462225,0.94001 3.655561,0.94001 2.088892,0 3.39445,-0.83556 1.305558,-0.88778 1.305558,-2.19334 0,-1.20111 -1.096669,-1.77556 -1.044446,-0.62666 -3.446672,-1.30555 l -1.984447,-0.62667 q -2.663338,-0.78334 -4.491118,-1.67112 -1.827781,-0.88777 -3.081116,-2.40222 -1.253335,-1.56667 -1.253335,-3.9689 0,-3.65556 2.820004,-5.79667 2.872227,-2.19334 7.572234,-2.19334 3.18556,0 5.587786,1.04445 2.402226,0.99222 3.707784,2.82 1.357779,1.77556 1.357779,4.07334 0,0.26111 -0.261111,0.47 -0.208889,0.15667 -0.574445,0.15667 h -4.021118 q -0.835556,0 -0.835556,-0.31333 v -0.31334 q 0,-1.35778 -1.35778,-2.24556 -1.305558,-0.94 -3.603339,-0.94 -2.03667,0 -3.342227,0.78334 -1.253336,0.73111 -1.253336,2.08889 0,1.25333 1.201113,1.93222 1.201113,0.62667 4.021118,1.41001 l 1.201112,0.31333 q 2.820005,0.83556 4.700008,1.67111 1.880002,0.83556 3.18556,2.40223 1.305558,1.56667 1.305558,4.02112 0,3.70778 -2.924449,5.84889 -2.924449,2.0889 -7.781123,2.0889 z"
       style="font-weight:600;font-size:52.2223px;line-height:1.25;font-family:Barlow;-inkscape-font-specification:'Barlow Semi-Bold';font-variant-ligatures:none;fill:#f8f8f2;stroke-width:2.17593;fill-opacity:1"
       id="path8750" />
    <path
       d="m 102.40651,140.04061 q 4.28223,0 6.7889,2.50667 2.55889,2.50667 2.55889,6.84112 v 16.92003 q 0,0.83555 -0.83556,0.83555 h -4.38667 q -0.83556,0 -0.83556,-0.83555 v -15.6667 q 0,-2.40222 -1.41,-3.86445 -1.35778,-1.51444 -3.60334,-1.51444 -2.245558,0 -3.655561,1.46222 -1.357779,1.46223 -1.357779,3.86445 v 15.71892 q 0,0.83555 -0.835557,0.83555 h -4.386674 q -0.835556,0 -0.835556,-0.83555 v -34.8845 q 0,-0.83556 0.835556,-0.83556 h 4.386674 q 0.835557,0 0.835557,0.83556 v 11.28001 q 0,0.20889 0.104444,0.26112 0.104445,0.0522 0.208889,-0.10445 2.193337,-2.82 6.423347,-2.82 z"
       style="font-weight:600;font-size:52.2223px;line-height:1.25;font-family:Barlow;-inkscape-font-specification:'Barlow Semi-Bold';font-variant-ligatures:none;fill:#f8f8f2;stroke-width:2.17593;fill-opacity:1"
       id="path8752" />
    <path
       d="m 119.81758,167.2612 q -1.16469,0 -1.95368,-0.75142 -0.75141,-0.75141 -0.75141,-1.87854 0,-1.05198 0.82655,-1.80339 0.82656,-0.75142 1.87854,-0.75142 1.05199,0 1.87854,0.75142 0.86413,0.75141 0.86413,1.80339 0,1.08956 -0.78898,1.87854 -0.78899,0.75142 -1.95369,0.75142 z"
       style="font-weight:500;font-size:37.5708px;line-height:1.25;font-family:Barlow;-inkscape-font-specification:'Barlow Medium';font-variant-ligatures:none;fill:#75715e;stroke-width:2.17593"
       id="path8773" />
    <path
       d="m 129.6987,145.28228 q -1.08955,0 -1.8034,-0.6387 -0.67627,-0.67628 -0.67627,-1.72826 0,-1.05198 0.67627,-1.69068 0.71385,-0.67628 1.8034,-0.67628 1.08955,0 1.76583,0.67628 0.67627,0.6387 0.67627,1.69068 0,1.05198 -0.67627,1.72826 -0.67628,0.6387 -1.76583,0.6387 z m -1.23984,21.97892 q -0.26299,0 -0.41327,-0.15028 -0.15029,-0.15029 -0.15029,-0.41328 v -17.99642 q 0,-0.26299 0.15029,-0.41327 0.15028,-0.15029 0.41327,-0.15029 h 2.47968 q 0.26299,0 0.41328,0.15029 0.15028,0.15028 0.15028,0.41327 v 17.99642 q 0,0.26299 -0.15028,0.41328 -0.15029,0.15028 -0.41328,0.15028 z"
       style="font-weight:500;font-size:37.5708px;line-height:1.25;font-family:Barlow;-inkscape-font-specification:'Barlow Medium';font-variant-ligatures:none;fill:#75715e;stroke-width:2.17593"
       id="path8775" />
    <path
       d="m 144.87728,167.56177 q -2.81781,0 -4.8842,-1.39012 -2.02882,-1.42769 -2.85538,-3.94494 -0.67627,-2.02882 -0.67627,-4.58364 0,-2.66752 0.6387,-4.50849 0.82656,-2.47967 2.89295,-3.86979 2.06639,-1.42769 4.92178,-1.42769 2.70509,0 4.69635,1.42769 2.02882,1.39012 2.89295,3.83222 0.67627,1.91611 0.67627,4.50849 0,2.62996 -0.67627,4.62121 -0.82656,2.51725 -2.85538,3.94494 -2.02883,1.39012 -4.7715,1.39012 z m 0,-3.11838 q 1.50284,0 2.62996,-0.82656 1.12712,-0.86413 1.61554,-2.40453 0.41328,-1.42769 0.41328,-3.53165 0,-2.10397 -0.3757,-3.49409 -0.48842,-1.5404 -1.61555,-2.36696 -1.12712,-0.86413 -2.74267,-0.86413 -1.5404,0 -2.66752,0.86413 -1.12713,0.82656 -1.61555,2.36696 -0.41328,1.31498 -0.41328,3.49409 0,2.1791 0.41328,3.53165 0.45085,1.5404 1.57798,2.40453 1.16469,0.82656 2.78023,0.82656 z"
       style="font-weight:500;font-size:37.5708px;line-height:1.25;font-family:Barlow;-inkscape-font-specification:'Barlow Medium';font-variant-ligatures:none;fill:#75715e;stroke-width:2.17593"
       id="path8777" />
  </g>
</svg>
