<?xml version="1.0" encoding="UTF-8" standalone="no"?>
<!-- Created with Inkscape (http://www.inkscape.org/) -->

<svg
   width="292.26929mm"
   height="45.383392mm"
   viewBox="0 0 292.26929 45.383392"
   version="1.1"
   id="svg12887"
   xmlns="http://www.w3.org/2000/svg"
   xmlns:svg="http://www.w3.org/2000/svg">
  <defs
     id="defs12884" />
  <g
     id="layer1"
     transform="translate(137.8334,-13.280355)">
    <path
       id="path13373"
       clip-path="none"
       style="fill:#b3b3b3;fill-opacity:1;stroke-width:0.466553;stroke-linejoin:bevel"
       d="m -100.23984,58.66374 a 26.591318,26.591318 0 0 0 2.56781,-34.63044 26.591318,26.591318 0 0 0 -37.19877,-5.52111 26.591318,26.591318 0 0 0 -2.9626,2.55798 l 9.59321,9.59321 h 1.61695 c 0.18651,0 0.3171,-0.0936 0.39172,-0.28008 l 2.18228,-7.88944 c 0.11189,-0.55952 0.44765,-0.83923 1.00719,-0.83923 l 4.58782,0.0563 c 0.26112,0 0.44776,0.0745 0.55965,0.22376 0.11192,0.18651 0.13046,0.42867 0.0558,0.72708 l -2.07016,7.66569 c -0.11192,0.2238 -0.0189,0.33538 0.27956,0.33538 h 6.32262 c 0.1865,0 0.33612,-0.0931 0.44802,-0.27957 l 2.12598,-7.88944 c 0.1865,-0.55952 0.54075,-0.83923 1.06299,-0.83923 l 4.53202,0.0558 c 0.29839,0 0.50355,0.0751 0.61547,0.22428 0.11189,0.18651 0.13089,0.42867 0.0563,0.72708 l -2.12648,7.66569 c -0.0746,0.2238 0.0375,0.33538 0.33592,0.33538 h 2.79775 c 0.59682,0 0.85802,0.29872 0.78341,0.89555 l -0.50385,3.74861 c -0.0746,0.59681 -0.39185,0.89503 -0.95136,0.89503 h -3.69279 c -0.1492,0 -0.29832,0.11209 -0.44752,0.3359 l -1.79059,6.60218 c -0.0373,0.11191 -0.0183,0.18698 0.0563,0.22428 0.0746,0.0746 0.14915,0.11162 0.22376,0.11162 h 2.74143 c 0.59682,0 0.85801,0.29821 0.78343,0.89503 l -0.50385,3.80494 c -0.0373,0.26111 -0.13041,0.46626 -0.27958,0.61546 -0.18651,0.18651 -0.41016,0.28009 -0.67128,0.28009 h -2.12079 z m -15.99747,-15.99747 1.69963,-6.12831 c 0.0373,-0.22381 -0.0558,-0.33538 -0.27956,-0.33538 h -6.37842 c -0.1865,0 -0.3171,0.11157 -0.39171,0.33538 l -0.16587,0.61237 z" />
    <g
       aria-label="#"
       id="g13377"
       style="font-size:55.9522px;line-height:1.25;font-family:Barlow;-inkscape-font-specification:'Barlow, Normal';font-variant-ligatures:none;fill:#b3b3b3;fill-opacity:1;stroke-width:2.33134"
       clip-path="none"
       transform="rotate(180,35.824218,104.62316)">
      <path
         id="path13375"
         style="font-style:italic;font-weight:600;-inkscape-font-specification:'Barlow Semi-Bold Italic';fill:#b3b3b3;fill-opacity:1;stroke-width:8.81136"
         d="m 1345.418,279.71875 c -0.9869,0 -1.8342,0.28373 -2.5391,0.84766 -0.5639,0.56393 -0.9856,1.33931 -1.2676,2.32617 l -8.248,29.8164 c -0.282,0.70491 -0.7756,1.0586 -1.4805,1.0586 h -24.1074 c -0.282,0 -0.5637,-0.072 -0.8457,-0.21289 -0.2817,-0.28196 -0.3538,-0.63369 -0.2129,-1.05664 l 8.0371,-28.97266 c 0.2819,-1.12786 0.212,-1.97318 -0.2109,-2.53711 -0.423,-0.70491 -1.1984,-1.05664 -2.3262,-1.05664 l -17.1309,-0.21094 c -2.2557,0 -3.5946,1.05716 -4.0175,3.17188 l -8.0352,29.8164 c -0.4229,0.70491 -0.9884,1.0586 -1.6934,1.0586 h -5.7246 l 24.2032,24.20312 0.5546,-2 c 0.423,-0.7049 0.9865,-1.05664 1.6915,-1.05664 h 23.6855 c 1.1278,0 1.4796,0.42363 1.0566,1.26953 l -6.1386,22.63672 24.5215,24.52149 h 8.0527 c 2.1147,0 3.3817,-1.12905 3.8047,-3.38477 l 1.6933,-14.16797 c 0.282,-2.2557 -0.7052,-3.38281 -2.9609,-3.38281 h -10.7852 c -1.1278,0 -1.4796,-0.42365 -1.0566,-1.26953 l 6.9785,-25.16602 c 0.282,-0.7049 0.7736,-1.05664 1.4785,-1.05664 h 14.17 c 2.1147,0 3.3836,-1.12711 3.8066,-3.38281 l 1.9023,-14.38086 c 0.141,-2.25572 -0.8442,-3.38477 -2.9589,-3.38477 h -10.9981 c -0.8458,0 -1.1975,-0.42169 -1.0566,-1.26757 l 7.8242,-28.97266 c 0.2818,-1.12786 0.212,-1.97318 -0.211,-2.53711 -0.4229,-0.70491 -1.1283,-1.05664 -2.1152,-1.05664 z"
         transform="matrix(0.26458333,0,0,0.26458333,-156.02499,77.15778)" />
    </g>
    <path
       d="m 121.07305,58.363155 q -1.1647,0 -1.95369,-0.751416 -0.75141,-0.751416 -0.75141,-1.87854 0,-1.051982 0.82656,-1.803398 0.82655,-0.751416 1.87854,-0.751416 1.05198,0 1.87854,0.751416 0.86412,0.751416 0.86412,1.803398 0,1.089554 -0.78898,1.87854 -0.78899,0.751416 -1.95368,0.751416 z"
       style="font-weight:500;font-size:37.5708px;line-height:1.25;font-family:Barlow;-inkscape-font-specification:'Barlow Medium';font-variant-ligatures:none;fill:#cccccc;stroke-width:2.17593"
       id="path13044" />
    <path
       d="m 130.95416,36.384237 q -1.08955,0 -1.8034,-0.638704 -0.67627,-0.676274 -0.67627,-1.728257 0,-1.051982 0.67627,-1.690686 0.71385,-0.676274 1.8034,-0.676274 1.08956,0 1.76583,0.676274 0.67628,0.638704 0.67628,1.690686 0,1.051983 -0.67628,1.728257 -0.67627,0.638704 -1.76583,0.638704 z m -1.23983,21.978918 q -0.263,0 -0.41328,-0.150283 -0.15029,-0.150283 -0.15029,-0.413279 V 39.80318 q 0,-0.262996 0.15029,-0.413279 0.15028,-0.150283 0.41328,-0.150283 h 2.47967 q 0.263,0 0.41328,0.150283 0.15028,0.150283 0.15028,0.413279 v 17.996413 q 0,0.262996 -0.15028,0.413279 -0.15028,0.150283 -0.41328,0.150283 z"
       style="font-weight:500;font-size:37.5708px;line-height:1.25;font-family:Barlow;-inkscape-font-specification:'Barlow Medium';font-variant-ligatures:none;fill:#cccccc;stroke-width:2.17593"
       id="path13046" />
    <path
       d="m 146.13275,58.663722 q -2.81781,0 -4.88421,-1.39012 -2.02882,-1.42769 -2.85538,-3.944934 -0.67627,-2.028823 -0.67627,-4.583638 0,-2.667526 0.6387,-4.508496 0.82656,-2.479673 2.89295,-3.869792 2.0664,-1.427691 4.92178,-1.427691 2.7051,0 4.69635,1.427691 2.02882,1.390119 2.89295,3.832221 0.67627,1.916111 0.67627,4.508497 0,2.629956 -0.67627,4.621208 -0.82656,2.517244 -2.85538,3.944934 -2.02882,1.39012 -4.77149,1.39012 z m 0,-3.118377 q 1.50283,0 2.62995,-0.826557 1.12713,-0.864129 1.61555,-2.404532 0.41328,-1.42769 0.41328,-3.531655 0,-2.103965 -0.37571,-3.494084 -0.48842,-1.540403 -1.61555,-2.366961 -1.12712,-0.864128 -2.74266,-0.864128 -1.54041,0 -2.66753,0.864128 -1.12713,0.826558 -1.61555,2.366961 -0.41327,1.314978 -0.41327,3.494084 0,2.179107 0.41327,3.531655 0.45085,1.540403 1.57798,2.404532 1.16469,0.826557 2.78024,0.826557 z"
       style="font-weight:500;font-size:37.5708px;line-height:1.25;font-family:Barlow;-inkscape-font-specification:'Barlow Medium';font-variant-ligatures:none;fill:#cccccc;stroke-width:2.17593"
       id="path13048" />
    <path
       d="m -75.355763,58.245968 q -0.731112,0 -0.940001,-0.67889 l -10.810017,-34.93672 q -0.05222,-0.104444 -0.05222,-0.313334 0,-0.626667 0.731112,-0.626667 h 4.752229 q 0.731113,0 0.940002,0.67889 l 7.728901,26.99893 q 0.104444,0.208889 0.208889,0.208889 0.156667,0 0.208889,-0.208889 l 7.676678,-26.946708 q 0.156667,-0.731112 0.940002,-0.731112 h 4.647785 q 0.417778,0 0.574445,0.261111 0.208889,0.261112 0.104444,0.67889 l -10.966683,34.93672 q -0.208889,0.67889 -0.940001,0.67889 z"
       style="font-weight:600;font-size:52.2223px;line-height:1.25;font-family:Barlow;-inkscape-font-specification:'Barlow Semi-Bold';font-variant-ligatures:none;fill:#999999;stroke-width:2.17593"
       id="path13001" />
    <path
       d="m -44.75362,53.545961 q 1.932225,-0.05222 3.342227,-0.783335 1.462225,-0.783334 2.350004,-2.088892 0.261111,-0.417778 0.67889,-0.417778 0.261111,0 0.47,0.156667 l 2.506671,1.984447 q 0.365556,0.365556 0.365556,0.67889 0,0.208889 -0.156667,0.470001 -1.514447,2.402226 -4.125562,3.760005 -2.611115,1.35778 -6.005564,1.35778 -4.125562,0 -6.945566,-1.932225 -2.767782,-1.984447 -4.021118,-5.483342 -1.044446,-2.872226 -1.044446,-6.475565 0,-3.603339 0.574446,-5.535564 0.992223,-3.707783 3.916672,-5.90112 2.924449,-2.193337 7.102233,-2.193337 9.765571,0 11.436684,10.705572 0.261112,1.723336 0.365556,4.282229 0,0.835557 -0.835556,0.835557 h -16.188914 q -0.313334,0 -0.313334,0.313334 0,1.410002 0.313334,2.297781 0.574445,1.880003 2.193337,2.924449 1.618891,1.044446 4.021117,1.044446 z m -1.044446,-17.181137 q -1.984448,0 -3.290005,0.992223 -1.253335,0.940002 -1.723336,2.663338 -0.365556,1.044446 -0.417778,2.193336 -0.05222,0.313334 0.261111,0.313334 h 10.496683 q 0.313334,0 0.313334,-0.313334 -0.20889,-1.566669 -0.313334,-1.880003 -0.470001,-1.82778 -1.880003,-2.872226 -1.35778,-1.096668 -3.446672,-1.096668 z"
       style="font-weight:600;font-size:52.2223px;line-height:1.25;font-family:Barlow;-inkscape-font-specification:'Barlow Semi-Bold';font-variant-ligatures:none;fill:#999999;stroke-width:2.17593"
       id="path13003" />
    <path
       d="m -15.979142,31.247038 q 1.514447,0 2.767782,0.574445 0.626668,0.313334 0.470001,1.044446 l -0.835557,4.334451 q -0.05222,0.417779 -0.313334,0.522223 -0.208889,0.104445 -0.678889,0 -0.626668,-0.208889 -1.671114,-0.208889 -0.626668,0 -0.992224,0.05222 -2.193337,0.104445 -3.655561,1.56667 -1.462224,1.410002 -1.462224,3.707783 v 14.570022 q 0,0.835557 -0.835557,0.835557 h -4.386674 q -0.835556,0 -0.835556,-0.835557 v -25.01448 q 0,-0.835557 0.835556,-0.835557 h 4.386674 q 0.835557,0 0.835557,0.835557 v 2.036669 q 0,0.20889 0.104444,0.261112 0.104445,0.05222 0.208889,-0.156667 2.193337,-3.290005 6.057787,-3.290005 z"
       style="font-weight:600;font-size:52.2223px;line-height:1.25;font-family:Barlow;-inkscape-font-specification:'Barlow Semi-Bold';font-variant-ligatures:none;fill:#999999;stroke-width:2.17593"
       id="path13005" />
    <path
       d="m -5.3258222,28.218145 q -1.723336,0 -2.8200043,-1.044447 -1.0966683,-1.096668 -1.0966683,-2.767781 0,-1.671114 1.0966683,-2.71556 1.0966683,-1.044446 2.8200043,-1.044446 1.7233359,0 2.767782,1.044446 1.0966683,1.044446 1.0966683,2.71556 0,1.671113 -1.0966683,2.767781 -1.0444461,1.044447 -2.767782,1.044447 z m -2.1933367,30.027823 q -0.8355568,0 -0.8355568,-0.835557 V 32.395929 q 0,-0.835557 0.8355568,-0.835557 h 4.3866734 q 0.8355568,0 0.8355568,0.835557 v 25.014482 q 0,0.835557 -0.8355568,0.835557 z"
       style="font-weight:600;font-size:52.2223px;line-height:1.25;font-family:Barlow;-inkscape-font-specification:'Barlow Semi-Bold';font-variant-ligatures:none;fill:#999999;stroke-width:2.17593"
       id="path13007" />
    <path
       d="m 25.015291,22.525914 q 0,-0.835557 0.835557,-0.835557 h 4.386673 q 0.835557,0 0.835557,0.835557 v 34.884497 q 0,0.835557 -0.835557,0.835557 h -4.386673 q -0.835557,0 -0.835557,-0.835557 V 42.735944 q 0,-0.313333 -0.313334,-0.313333 H 11.489715 q -0.313334,0 -0.313334,0.313333 v 14.674467 q 0,0.835557 -0.835557,0.835557 H 5.9541508 q -0.8355568,0 -0.8355568,-0.835557 V 22.525914 q 0,-0.835557 0.8355568,-0.835557 h 4.3866732 q 0.835557,0 0.835557,0.835557 v 14.361133 q 0,0.313333 0.313334,0.313333 h 13.212242 q 0.313334,0 0.313334,-0.313333 z"
       style="font-weight:600;font-size:52.2223px;line-height:1.25;font-family:Barlow;-inkscape-font-specification:'Barlow Semi-Bold';font-variant-ligatures:none;fill:#999999;stroke-width:2.17593"
       id="path13009" />
    <path
       d="m 47.993061,31.142593 q 3.290005,0 5.796676,1.148891 2.558893,1.148891 3.916672,3.18556 1.35778,1.984448 1.35778,4.543341 v 17.390026 q 0,0.835557 -0.835556,0.835557 h -4.386674 q -0.835557,0 -0.835557,-0.835557 v -1.305557 q 0,-0.20889 -0.104444,-0.20889 -0.104445,-0.05222 -0.261112,0.05222 -2.820004,2.715559 -7.520011,2.715559 -3.86445,0 -6.371121,-1.984447 -2.454448,-1.984448 -2.454448,-5.90112 0,-4.07334 2.820004,-6.318899 2.872227,-2.297781 8.042235,-2.297781 h 5.535564 q 0.313333,0 0.313333,-0.313334 v -1.201113 q 0,-2.036669 -1.253335,-3.133338 -1.201113,-1.14889 -3.603339,-1.14889 -1.82778,0 -3.028893,0.678889 -1.201113,0.626668 -1.618892,1.775559 -0.208889,0.731112 -0.940001,0.67889 l -4.700007,-0.574446 q -0.417778,-0.05222 -0.626668,-0.208889 -0.208889,-0.208889 -0.156667,-0.470001 0.470001,-3.133338 3.446672,-5.117785 3.028894,-1.984448 7.467789,-1.984448 z m -1.201113,22.716702 q 2.558893,0 4.386674,-1.35778 1.82778,-1.35778 1.82778,-3.446672 v -2.402226 q 0,-0.313334 -0.313333,-0.313334 h -4.334451 q -2.767782,0 -4.386674,1.044446 -1.618891,1.044446 -1.618891,2.976671 0,1.671114 1.253335,2.611115 1.253335,0.88778 3.18556,0.88778 z"
       style="font-weight:600;font-size:52.2223px;line-height:1.25;font-family:Barlow;-inkscape-font-specification:'Barlow Semi-Bold';font-variant-ligatures:none;fill:#999999;stroke-width:2.17593"
       id="path13011" />
    <path
       d="m 75.044182,58.559302 q -3.290005,0 -5.796675,-0.940002 -2.454449,-0.992223 -3.812229,-2.663337 -1.357779,-1.723336 -1.357779,-3.812228 v -0.261112 q 0,-0.835556 0.835556,-0.835556 h 4.177785 q 0.835556,0 0.835556,0.365556 v 0.365556 q 0,1.305557 1.410003,2.297781 1.462224,0.940001 3.655561,0.940001 2.088892,0 3.394449,-0.835556 1.305558,-0.88778 1.305558,-2.193337 0,-1.201113 -1.096669,-1.775558 -1.044446,-0.626668 -3.446671,-1.305558 L 73.164179,47.279285 Q 70.500842,46.49595 68.673061,45.608171 66.845281,44.720392 65.591945,43.205945 64.33861,41.639276 64.33861,39.23705 q 0,-3.655561 2.820004,-5.796675 2.872227,-2.193337 7.572234,-2.193337 3.185561,0 5.587786,1.044446 2.402226,0.992224 3.707784,2.820004 1.35778,1.775559 1.35778,4.07334 0,0.261111 -0.261112,0.470001 -0.208889,0.156666 -0.574445,0.156666 h -4.021117 q -0.835557,0 -0.835557,-0.313333 v -0.313334 q 0,-1.35778 -1.35778,-2.245559 -1.305558,-0.940002 -3.603339,-0.940002 -2.03667,0 -3.342227,0.783335 -1.253335,0.731112 -1.253335,2.088892 0,1.253335 1.201113,1.932225 1.201113,0.626668 4.021117,1.410002 l 1.201113,0.313334 q 2.820004,0.835557 4.700007,1.671114 1.880003,0.835557 3.18556,2.402226 1.305558,1.566669 1.305558,4.021117 0,3.707783 -2.924449,5.848898 -2.924449,2.088892 -7.781123,2.088892 z"
       style="font-weight:600;font-size:52.2223px;line-height:1.25;font-family:Barlow;-inkscape-font-specification:'Barlow Semi-Bold';font-variant-ligatures:none;fill:#999999;stroke-width:2.17593"
       id="path13013" />
    <path
       d="m 103.66198,31.142593 q 4.28223,0 6.7889,2.506671 2.55889,2.50667 2.55889,6.841121 v 16.920026 q 0,0.835557 -0.83556,0.835557 h -4.38667 q -0.83556,0 -0.83556,-0.835557 v -15.66669 q 0,-2.402226 -1.41,-3.864451 -1.35778,-1.514446 -3.60334,-1.514446 -2.245558,0 -3.65556,1.462224 -1.35778,1.462224 -1.35778,3.86445 v 15.718913 q 0,0.835557 -0.835557,0.835557 H 91.70307 q -0.835557,0 -0.835557,-0.835557 V 22.525914 q 0,-0.835557 0.835557,-0.835557 h 4.386673 q 0.835557,0 0.835557,0.835557 v 11.280017 q 0,0.208889 0.104444,0.261111 0.104445,0.05222 0.20889,-0.104444 2.193336,-2.820005 6.423346,-2.820005 z"
       style="font-weight:600;font-size:52.2223px;line-height:1.25;font-family:Barlow;-inkscape-font-specification:'Barlow Semi-Bold';font-variant-ligatures:none;fill:#999999;stroke-width:2.17593"
       id="path13015" />
  </g>
</svg>
