<?xml version="1.0" encoding="UTF-8" standalone="no"?>
<!-- Created with Inkscape (http://www.inkscape.org/) -->

<svg
   width="292.26913mm"
   height="45.383392mm"
   viewBox="0 0 292.26914 45.383392"
   version="1.1"
   id="svg9835"
   inkscape:version="1.1.1 (3bf5ae0d25, 2021-09-20)"
   sodipodi:docname="logo-solarized-dark.svg"
   xmlns:inkscape="http://www.inkscape.org/namespaces/inkscape"
   xmlns:sodipodi="http://sodipodi.sourceforge.net/DTD/sodipodi-0.dtd"
   xmlns="http://www.w3.org/2000/svg"
   xmlns:svg="http://www.w3.org/2000/svg">
  <sodipodi:namedview
     id="namedview9837"
     pagecolor="#ffffff"
     bordercolor="#666666"
     borderopacity="1.0"
     inkscape:pageshadow="2"
     inkscape:pageopacity="0.0"
     inkscape:pagecheckerboard="0"
     inkscape:document-units="mm"
     showgrid="false"
     fit-margin-top="0"
     fit-margin-left="0"
     fit-margin-right="0"
     fit-margin-bottom="0"
     inkscape:zoom="0.57370932"
     inkscape:cx="563.87441"
     inkscape:cy="113.29779"
     inkscape:window-width="1332"
     inkscape:window-height="875"
     inkscape:window-x="1069"
     inkscape:window-y="267"
     inkscape:window-maximized="0"
     inkscape:current-layer="layer1" />
  <defs
     id="defs9832" />
  <g
     inkscape:label="Layer 1"
     inkscape:groupmode="layer"
     id="layer1"
     transform="translate(94.65351,-95.276535)">
    <path
       id="path4027"
       clip-path="none"
       style="fill:#dc322f;fill-opacity:1;stroke-width:0.466553;stroke-linejoin:bevel"
       d="m -57.05995,140.65992 a -26.591318,-26.591318 0 0 0 2.56781,-34.63044 -26.591318,-26.591318 0 0 0 -37.19877,-5.52111 -26.591318,-26.591318 0 0 0 -2.9626,2.55798 l 9.59321,9.59321 h 1.61695 c 0.18651,0 0.3171,-0.0936 0.39172,-0.28008 l 2.18228,-7.88944 c 0.11189,-0.55952 0.44765,-0.83923 1.00719,-0.83923 l 4.58782,0.0563 c 0.26112,0 0.44776,0.0745 0.55965,0.22376 0.11192,0.18651 0.13046,0.42867 0.0558,0.72708 l -2.07016,7.66569 c -0.11192,0.2238 -0.0189,0.33538 0.27956,0.33538 h 6.32262 c 0.1865,0 0.33612,-0.0931 0.44802,-0.27957 l 2.12598,-7.88944 c 0.1865,-0.55952 0.54075,-0.83923 1.06299,-0.83923 l 4.53202,0.0558 c 0.29839,0 0.50355,0.0751 0.61547,0.22428 0.11189,0.18651 0.13089,0.42867 0.0563,0.72708 l -2.12648,7.66569 c -0.0746,0.2238 0.0375,0.33538 0.33592,0.33538 h 2.79775 c 0.59682,0 0.85802,0.29872 0.78341,0.89555 l -0.50385,3.74861 c -0.0746,0.59681 -0.39185,0.89503 -0.95136,0.89503 h -3.69279 c -0.1492,0 -0.29832,0.11209 -0.44752,0.3359 l -1.79059,6.60218 c -0.0373,0.11191 -0.0183,0.18698 0.0563,0.22428 0.0746,0.0746 0.14915,0.11162 0.22376,0.11162 h 2.74143 c 0.59682,0 0.85801,0.29821 0.78343,0.89503 l -0.50385,3.80494 c -0.0373,0.26111 -0.13041,0.46626 -0.27958,0.61546 -0.18651,0.18651 -0.41016,0.28009 -0.67128,0.28009 h -2.12079 z m -15.99747,-15.99747 1.69963,-6.12831 c 0.0373,-0.22381 -0.0558,-0.33538 -0.27956,-0.33538 h -6.37842 c -0.1865,0 -0.3171,0.11157 -0.39171,0.33538 l -0.16587,0.61237 z" />
    <path
       id="path4029"
       style="font-style:italic;font-weight:600;font-size:55.9522px;line-height:1.25;font-family:Barlow;-inkscape-font-specification:'Barlow Semi-Bold Italic';font-variant-ligatures:none;fill:#dc322f;fill-opacity:1;stroke-width:2.33134"
       d="m -85.121855,140.0758 c 0.261118,0 0.485299,-0.0751 0.671804,-0.22428 0.149198,-0.1492 0.260773,-0.35435 0.335386,-0.61546 l 2.182283,-7.88892 c 0.07461,-0.18651 0.205211,-0.28009 0.391716,-0.28009 h 6.378416 c 0.07461,0 0.149145,0.019 0.223758,0.0563 0.07453,0.0746 0.09361,0.16766 0.05633,0.27957 l -2.126483,7.66568 c -0.07459,0.29841 -0.05609,0.52207 0.0558,0.67128 0.111918,0.1865 0.317076,0.27956 0.615473,0.27956 l 4.532551,0.0558 c 0.596821,0 0.951071,-0.27971 1.062963,-0.83923 l 2.12598,-7.88892 c 0.111893,-0.18651 0.261515,-0.28009 0.448046,-0.28009 h 1.514634 l -6.403764,-6.40374 -0.146738,0.52916 c -0.111918,0.18651 -0.261011,0.27957 -0.447542,0.27957 h -6.266789 c -0.298397,0 -0.391477,-0.11208 -0.279558,-0.33589 l 1.624171,-5.9893 -6.48798,-6.48798 h -2.130611 c -0.559514,0 -0.894741,0.29873 -1.00666,0.89555 l -0.448019,3.74861 c -0.07461,0.59682 0.186584,0.89504 0.783405,0.89504 h 2.853584 c 0.298397,0 0.391478,0.11209 0.279559,0.33589 l -1.846395,6.65851 c -0.07461,0.18651 -0.204681,0.27957 -0.391186,0.27957 h -3.749146 c -0.559514,0 -0.895244,0.29822 -1.007163,0.89504 l -0.503317,3.80493 c -0.03731,0.59683 0.223361,0.89556 0.782876,0.89556 h 2.909914 c 0.223784,0 0.316838,0.11157 0.279558,0.33538 l -2.070152,7.66568 c -0.07456,0.29841 -0.05609,0.52207 0.05583,0.67128 0.111892,0.1865 0.298529,0.27956 0.559646,0.27956 z" />
    <path
       d="m -32.176026,140.24214 q -0.731112,0 -0.940001,-0.67889 l -10.810017,-34.93672 q -0.05222,-0.10444 -0.05222,-0.31333 0,-0.62667 0.731112,-0.62667 h 4.75223 q 0.731112,0 0.940001,0.67889 l 7.728901,26.99893 q 0.104444,0.20889 0.208889,0.20889 0.156667,0 0.208889,-0.20889 l 7.676678,-26.94671 q 0.156667,-0.73111 0.940002,-0.73111 h 4.647785 q 0.417778,0 0.574445,0.26111 0.208889,0.26111 0.104445,0.67889 l -10.966684,34.93672 q -0.208889,0.67889 -0.940001,0.67889 z"
       style="font-weight:600;font-size:52.2223px;line-height:1.25;font-family:Barlow;-inkscape-font-specification:'Barlow Semi-Bold';font-variant-ligatures:none;fill:#839496;stroke-width:2.17593"
       id="path10232" />
    <path
       d="m -1.5738829,135.54213 q 1.93222512,-0.0522 3.3422273,-0.78333 1.4622244,-0.78333 2.3500035,-2.08889 0.2611115,-0.41778 0.67889,-0.41778 0.2611115,0 0.4700007,0.15667 l 2.5066704,1.98444 q 0.3655561,0.36556 0.3655561,0.67889 0,0.20889 -0.1566669,0.47 -1.5144467,2.40223 -4.1255618,3.76001 -2.6111151,1.35778 -6.0055646,1.35778 -4.1255619,0 -6.9455661,-1.93223 -2.7677817,-1.98444 -4.0211177,-5.48334 -1.044446,-2.87222 -1.044446,-6.47556 0,-3.60334 0.574446,-5.53557 0.992223,-3.70778 3.9166723,-5.90112 2.9244489,-2.19333 7.102233,-2.19333 9.7655704,0 11.4366841,10.70557 0.2611115,1.72334 0.3655561,4.28223 0,0.83555 -0.8355568,0.83555 H -7.7883368 q -0.3133338,0 -0.3133338,0.31334 0,1.41 0.3133338,2.29778 0.5744453,1.88 2.1933367,2.92445 1.6188913,1.04444 4.0211172,1.04444 z M -2.618329,118.361 q -1.9844474,0 -3.290005,0.99222 -1.2533352,0.94 -1.7233359,2.66334 -0.3655561,1.04444 -0.4177784,2.19334 -0.052222,0.31333 0.2611115,0.31333 H 2.7083458 q 0.3133338,0 0.3133338,-0.31333 Q 2.8127904,122.64323 2.7083458,122.32989 2.2383451,120.50211 0.82834294,119.45767 -0.5294369,118.361 -2.618329,118.361 Z"
       style="font-weight:600;font-size:52.2223px;line-height:1.25;font-family:Barlow;-inkscape-font-specification:'Barlow Semi-Bold';font-variant-ligatures:none;fill:#839496;stroke-width:2.17593"
       id="path10234" />
    <path
       d="m 27.200595,113.24321 q 1.514447,0 2.767782,0.57445 0.626668,0.31333 0.470001,1.04444 l -0.835557,4.33445 q -0.05222,0.41778 -0.313333,0.52223 -0.20889,0.10444 -0.67889,0 -0.626668,-0.20889 -1.671114,-0.20889 -0.626668,0 -0.992224,0.0522 -2.193336,0.10444 -3.655561,1.56667 -1.462224,1.41 -1.462224,3.70778 v 14.57002 q 0,0.83556 -0.835557,0.83556 h -4.386673 q -0.835557,0 -0.835557,-0.83556 V 114.3921 q 0,-0.83555 0.835557,-0.83555 h 4.386673 q 0.835557,0 0.835557,0.83555 v 2.03667 q 0,0.20889 0.104444,0.26111 0.104445,0.0522 0.20889,-0.15666 2.193336,-3.29001 6.057786,-3.29001 z"
       style="font-weight:600;font-size:52.2223px;line-height:1.25;font-family:Barlow;-inkscape-font-specification:'Barlow Semi-Bold';font-variant-ligatures:none;fill:#839496;stroke-width:2.17593"
       id="path10236" />
    <path
       d="m 37.853915,110.21432 q -1.723336,0 -2.820004,-1.04445 -1.096669,-1.09667 -1.096669,-2.76778 0,-1.67111 1.096669,-2.71556 1.096668,-1.04445 2.820004,-1.04445 1.723336,0 2.767782,1.04445 1.096668,1.04445 1.096668,2.71556 0,1.67111 -1.096668,2.76778 -1.044446,1.04445 -2.767782,1.04445 z m -2.193337,30.02782 q -0.835557,0 -0.835557,-0.83556 V 114.3921 q 0,-0.83555 0.835557,-0.83555 h 4.386674 q 0.835556,0 0.835556,0.83555 v 25.01448 q 0,0.83556 -0.835556,0.83556 z"
       style="font-weight:600;font-size:52.2223px;line-height:1.25;font-family:Barlow;-inkscape-font-specification:'Barlow Semi-Bold';font-variant-ligatures:none;fill:#839496;stroke-width:2.17593"
       id="path10238" />
    <path
       d="m 68.195028,104.52209 q 0,-0.83556 0.835557,-0.83556 h 4.386673 q 0.835557,0 0.835557,0.83556 v 34.88449 q 0,0.83556 -0.835557,0.83556 h -4.386673 q -0.835557,0 -0.835557,-0.83556 v -14.67446 q 0,-0.31334 -0.313334,-0.31334 H 54.669452 q -0.313334,0 -0.313334,0.31334 v 14.67446 q 0,0.83556 -0.835557,0.83556 h -4.386673 q -0.835557,0 -0.835557,-0.83556 v -34.88449 q 0,-0.83556 0.835557,-0.83556 h 4.386673 q 0.835557,0 0.835557,0.83556 v 14.36113 q 0,0.31333 0.313334,0.31333 h 13.212242 q 0.313334,0 0.313334,-0.31333 z"
       style="font-weight:600;font-size:52.2223px;line-height:1.25;font-family:Barlow;-inkscape-font-specification:'Barlow Semi-Bold';font-variant-ligatures:none;fill:#839496;stroke-width:2.17593"
       id="path10240" />
    <path
       d="m 91.172799,113.13877 q 3.290004,0 5.796675,1.14889 2.558893,1.14889 3.916676,3.18556 1.35778,1.98445 1.35778,4.54334 v 17.39002 q 0,0.83556 -0.83556,0.83556 h -4.386674 q -0.835557,0 -0.835557,-0.83556 v -1.30555 q 0,-0.20889 -0.104444,-0.20889 -0.104445,-0.0522 -0.261112,0.0522 -2.820004,2.71556 -7.520011,2.71556 -3.86445,0 -6.371121,-1.98445 -2.454448,-1.98444 -2.454448,-5.90112 0,-4.07334 2.820004,-6.3189 2.872227,-2.29778 8.042235,-2.29778 h 5.535564 q 0.313333,0 0.313333,-0.31333 v -1.20111 q 0,-2.03667 -1.253335,-3.13334 -1.201113,-1.14889 -3.603339,-1.14889 -1.82778,0 -3.028893,0.67889 -1.201113,0.62666 -1.618891,1.77556 -0.20889,0.73111 -0.940002,0.67889 l -4.700007,-0.57445 q -0.417778,-0.0522 -0.626668,-0.20889 -0.208889,-0.20889 -0.156667,-0.47 0.470001,-3.13334 3.446672,-5.11779 3.028894,-1.98444 7.46779,-1.98444 z m -1.201113,22.7167 q 2.558892,0 4.386673,-1.35778 1.82778,-1.35778 1.82778,-3.44667 v -2.40223 q 0,-0.31333 -0.313333,-0.31333 h -4.334451 q -2.767782,0 -4.386674,1.04444 -1.618891,1.04445 -1.618891,2.97667 0,1.67112 1.253335,2.61112 1.253335,0.88778 3.185561,0.88778 z"
       style="font-weight:600;font-size:52.2223px;line-height:1.25;font-family:Barlow;-inkscape-font-specification:'Barlow Semi-Bold';font-variant-ligatures:none;fill:#839496;stroke-width:2.17593"
       id="path10242" />
    <path
       d="m 118.22392,140.55548 q -3.29001,0 -5.79668,-0.94001 -2.45444,-0.99222 -3.81222,-2.66333 -1.35778,-1.72334 -1.35778,-3.81223 v -0.26111 q 0,-0.83556 0.83555,-0.83556 h 4.17779 q 0.83555,0 0.83555,0.36556 v 0.36555 q 0,1.30556 1.41001,2.29778 1.46222,0.94001 3.65556,0.94001 2.08889,0 3.39445,-0.83556 1.30555,-0.88778 1.30555,-2.19334 0,-1.20111 -1.09666,-1.77556 -1.04445,-0.62666 -3.44668,-1.30555 l -1.98444,-0.62667 q -2.66334,-0.78334 -4.49112,-1.67112 -1.82778,-0.88777 -3.08112,-2.40222 -1.25333,-1.56667 -1.25333,-3.9689 0,-3.65556 2.82,-5.79667 2.87223,-2.19334 7.57224,-2.19334 3.18556,0 5.58778,1.04445 2.40223,0.99222 3.70778,2.82 1.35778,1.77556 1.35778,4.07334 0,0.26111 -0.26111,0.47 -0.20889,0.15667 -0.57444,0.15667 h -4.02112 q -0.83556,0 -0.83556,-0.31333 V 121.181 q 0,-1.35778 -1.35778,-2.24556 -1.30555,-0.94 -3.60333,-0.94 -2.03667,0 -3.34223,0.78334 -1.25334,0.73111 -1.25334,2.08889 0,1.25333 1.20112,1.93222 1.20111,0.62667 4.02111,1.41001 l 1.20112,0.31333 q 2.82,0.83556 4.7,1.67111 1.88001,0.83556 3.18556,2.40223 1.30556,1.56667 1.30556,4.02112 0,3.70778 -2.92445,5.84889 -2.92445,2.0889 -7.78112,2.0889 z"
       style="font-weight:600;font-size:52.2223px;line-height:1.25;font-family:Barlow;-inkscape-font-specification:'Barlow Semi-Bold';font-variant-ligatures:none;fill:#839496;stroke-width:2.17593"
       id="path10244" />
    <path
       d="m 146.84171,113.13877 q 4.28223,0 6.7889,2.50667 2.5589,2.50667 2.5589,6.84112 v 16.92002 q 0,0.83556 -0.83556,0.83556 h -4.38667 q -0.83556,0 -0.83556,-0.83556 v -15.66669 q 0,-2.40222 -1.41,-3.86445 -1.35778,-1.51444 -3.60334,-1.51444 -2.24556,0 -3.65556,1.46222 -1.35778,1.46223 -1.35778,3.86445 v 15.71891 q 0,0.83556 -0.83556,0.83556 h -4.38667 q -0.83556,0 -0.83556,-0.83556 v -34.88449 q 0,-0.83556 0.83556,-0.83556 h 4.38667 q 0.83556,0 0.83556,0.83556 v 11.28001 q 0,0.20889 0.10444,0.26112 0.10445,0.0522 0.20889,-0.10445 2.19334,-2.82 6.42334,-2.82 z"
       style="font-weight:600;font-size:52.2223px;line-height:1.25;font-family:Barlow;-inkscape-font-specification:'Barlow Semi-Bold';font-variant-ligatures:none;fill:#839496;stroke-width:2.17593"
       id="path10246" />
    <path
       d="m 164.25278,140.35936 q -1.1647,0 -1.95368,-0.75142 -0.75142,-0.75141 -0.75142,-1.87854 0,-1.05198 0.82656,-1.80339 0.82656,-0.75142 1.87854,-0.75142 1.05198,0 1.87854,0.75142 0.86413,0.75141 0.86413,1.80339 0,1.08956 -0.78899,1.87854 -0.78899,0.75142 -1.95368,0.75142 z"
       style="font-weight:500;font-size:37.5708px;line-height:1.25;font-family:Barlow;-inkscape-font-specification:'Barlow Medium';font-variant-ligatures:none;fill:#586e75;stroke-width:2.17593"
       id="path10267" />
    <path
       d="m 174.1339,118.38044 q -1.08956,0 -1.8034,-0.6387 -0.67628,-0.67628 -0.67628,-1.72826 0,-1.05198 0.67628,-1.69069 0.71384,-0.67627 1.8034,-0.67627 1.08955,0 1.76582,0.67627 0.67628,0.63871 0.67628,1.69069 0,1.05198 -0.67628,1.72826 -0.67627,0.6387 -1.76582,0.6387 z m -1.23984,21.97892 q -0.263,0 -0.41328,-0.15028 -0.15028,-0.15029 -0.15028,-0.41328 v -17.99642 q 0,-0.26299 0.15028,-0.41327 0.15028,-0.15029 0.41328,-0.15029 h 2.47967 q 0.263,0 0.41328,0.15029 0.15029,0.15028 0.15029,0.41327 v 17.99642 q 0,0.26299 -0.15029,0.41328 -0.15028,0.15028 -0.41328,0.15028 z"
       style="font-weight:500;font-size:37.5708px;line-height:1.25;font-family:Barlow;-inkscape-font-specification:'Barlow Medium';font-variant-ligatures:none;fill:#586e75;stroke-width:2.17593"
       id="path10269" />
    <path
       d="m 189.31248,140.65993 q -2.81781,0 -4.8842,-1.39012 -2.02883,-1.42769 -2.85538,-3.94494 -0.67628,-2.02882 -0.67628,-4.58364 0,-2.66752 0.6387,-4.50849 0.82656,-2.47967 2.89296,-3.86979 2.06639,-1.42769 4.92177,-1.42769 2.7051,0 4.69635,1.42769 2.02882,1.39012 2.89295,3.83222 0.67628,1.91611 0.67628,4.50849 0,2.62996 -0.67628,4.62121 -0.82655,2.51725 -2.85538,3.94494 -2.02882,1.39012 -4.77149,1.39012 z m 0,-3.11838 q 1.50283,0 2.62996,-0.82656 1.12712,-0.86413 1.61554,-2.40453 0.41328,-1.42769 0.41328,-3.53165 0,-2.10397 -0.37571,-3.49409 -0.48842,-1.5404 -1.61554,-2.36696 -1.12713,-0.86413 -2.74267,-0.86413 -1.5404,0 -2.66753,0.86413 -1.12712,0.82656 -1.61554,2.36696 -0.41328,1.31498 -0.41328,3.49409 0,2.1791 0.41328,3.53165 0.45085,1.5404 1.57797,2.40453 1.1647,0.82656 2.78024,0.82656 z"
       style="font-weight:500;font-size:37.5708px;line-height:1.25;font-family:Barlow;-inkscape-font-specification:'Barlow Medium';font-variant-ligatures:none;fill:#586e75;stroke-width:2.17593"
       id="path10271" />
  </g>
</svg>
