<?xml version="1.0" encoding="UTF-8" standalone="no"?>
<!-- Created with Inkscape (http://www.inkscape.org/) -->

<svg
   width="45.383591mm"
   height="45.383385mm"
   viewBox="0 0 45.383592 45.383384"
   version="1.1"
   id="svg9835"
   inkscape:version="1.1.1 (3bf5ae0d25, 2021-09-20)"
   sodipodi:docname="logo_footer-solarized.svg"
   xmlns:inkscape="http://www.inkscape.org/namespaces/inkscape"
   xmlns:sodipodi="http://sodipodi.sourceforge.net/DTD/sodipodi-0.dtd"
   xmlns="http://www.w3.org/2000/svg"
   xmlns:svg="http://www.w3.org/2000/svg">
  <sodipodi:namedview
     id="namedview9837"
     pagecolor="#ffffff"
     bordercolor="#666666"
     borderopacity="1.0"
     inkscape:pageshadow="2"
     inkscape:pageopacity="0.0"
     inkscape:pagecheckerboard="0"
     inkscape:document-units="mm"
     showgrid="false"
     fit-margin-top="0"
     fit-margin-left="0"
     fit-margin-right="0"
     fit-margin-bottom="0"
     inkscape:zoom="0.57370932"
     inkscape:cx="563.87441"
     inkscape:cy="113.29779"
     inkscape:window-width="1332"
     inkscape:window-height="875"
     inkscape:window-x="1069"
     inkscape:window-y="267"
     inkscape:window-maximized="0"
     inkscape:current-layer="layer1" />
  <defs
     id="defs9832" />
  <g
     inkscape:label="Layer 1"
     inkscape:groupmode="layer"
     id="layer1"
     transform="translate(94.65351,-95.276535)">
    <path
       id="path4027"
       clip-path="none"
       style="fill:#dc322f;fill-opacity:1;stroke-width:0.466553;stroke-linejoin:bevel"
       d="m -57.05995,140.65992 a 26.591318,26.591318 0 0 0 2.56781,-34.63044 26.591318,26.591318 0 0 0 -37.19877,-5.52111 26.591318,26.591318 0 0 0 -2.9626,2.55798 l 9.59321,9.59321 h 1.61695 c 0.18651,0 0.3171,-0.0936 0.39172,-0.28008 l 2.18228,-7.88944 c 0.11189,-0.55952 0.44765,-0.83923 1.00719,-0.83923 l 4.58782,0.0563 c 0.26112,0 0.44776,0.0745 0.55965,0.22376 0.11192,0.18651 0.13046,0.42867 0.0558,0.72708 l -2.07016,7.66569 c -0.11192,0.2238 -0.0189,0.33538 0.27956,0.33538 h 6.32262 c 0.1865,0 0.33612,-0.0931 0.44802,-0.27957 l 2.12598,-7.88944 c 0.1865,-0.55952 0.54075,-0.83923 1.06299,-0.83923 l 4.53202,0.0558 c 0.29839,0 0.50355,0.0751 0.61547,0.22428 0.11189,0.18651 0.13089,0.42867 0.0563,0.72708 l -2.12648,7.66569 c -0.0746,0.2238 0.0375,0.33538 0.33592,0.33538 h 2.79775 c 0.59682,0 0.85802,0.29872 0.78341,0.89555 l -0.50385,3.74861 c -0.0746,0.59681 -0.39185,0.89503 -0.95136,0.89503 h -3.69279 c -0.1492,0 -0.29832,0.11209 -0.44752,0.3359 l -1.79059,6.60218 c -0.0373,0.11191 -0.0183,0.18698 0.0563,0.22428 0.0746,0.0746 0.14915,0.11162 0.22376,0.11162 h 2.74143 c 0.59682,0 0.85801,0.29821 0.78343,0.89503 l -0.50385,3.80494 c -0.0373,0.26111 -0.13041,0.46626 -0.27958,0.61546 -0.18651,0.18651 -0.41016,0.28009 -0.67128,0.28009 h -2.12079 z m -15.99747,-15.99747 1.69963,-6.12831 c 0.0373,-0.22381 -0.0558,-0.33538 -0.27956,-0.33538 h -6.37842 c -0.1865,0 -0.3171,0.11157 -0.39171,0.33538 l -0.16587,0.61237 z" />
    <path
       id="path4029"
       style="font-style:italic;font-weight:600;font-size:55.9522px;line-height:1.25;font-family:Barlow;-inkscape-font-specification:'Barlow Semi-Bold Italic';font-variant-ligatures:none;fill:#dc322f;fill-opacity:1;stroke-width:2.33134"
       d="m -85.121855,140.0758 c 0.261118,0 0.485299,-0.0751 0.671804,-0.22428 0.149198,-0.1492 0.260773,-0.35435 0.335386,-0.61546 l 2.182283,-7.88892 c 0.07461,-0.18651 0.205211,-0.28009 0.391716,-0.28009 h 6.378416 c 0.07461,0 0.149145,0.019 0.223758,0.0563 0.07453,0.0746 0.09361,0.16766 0.05633,0.27957 l -2.126483,7.66568 c -0.07459,0.29841 -0.05609,0.52207 0.0558,0.67128 0.111918,0.1865 0.317076,0.27956 0.615473,0.27956 l 4.532551,0.0558 c 0.596821,0 0.951071,-0.27971 1.062963,-0.83923 l 2.12598,-7.88892 c 0.111893,-0.18651 0.261515,-0.28009 0.448046,-0.28009 h 1.514634 l -6.403764,-6.40374 -0.146738,0.52916 c -0.111918,0.18651 -0.261011,0.27957 -0.447542,0.27957 h -6.266789 c -0.298397,0 -0.391477,-0.11208 -0.279558,-0.33589 l 1.624171,-5.9893 -6.48798,-6.48798 h -2.130611 c -0.559514,0 -0.894741,0.29873 -1.00666,0.89555 l -0.448019,3.74861 c -0.07461,0.59682 0.186584,0.89504 0.783405,0.89504 h 2.853584 c 0.298397,0 0.391478,0.11209 0.279559,0.33589 l -1.846395,6.65851 c -0.07461,0.18651 -0.204681,0.27957 -0.391186,0.27957 h -3.749146 c -0.559514,0 -0.895244,0.29822 -1.007163,0.89504 l -0.503317,3.80493 c -0.03731,0.59683 0.223361,0.89556 0.782876,0.89556 h 2.909914 c 0.223784,0 0.316838,0.11157 0.279558,0.33538 l -2.070152,7.66568 c -0.07456,0.29841 -0.05609,0.52207 0.05583,0.67128 0.111892,0.1865 0.298529,0.27956 0.559646,0.27956 z" />
  </g>
</svg>
