<?xml version="1.0" encoding="UTF-8" standalone="no"?>
<!-- Created with Inkscape (http://www.inkscape.org/) -->

<svg
   width="292.2692mm"
   height="45.383392mm"
   viewBox="0 0 292.2692 45.383392"
   version="1.1"
   id="svg18585"
   xmlns="http://www.w3.org/2000/svg"
   xmlns:svg="http://www.w3.org/2000/svg">
  <defs
     id="defs18582" />
  <g
     id="layer1"
     transform="translate(93.09889,-159.47445)">
    <g
       id="g165587"
       transform="rotate(180,77.64242,200.28428)"
       style="fill:#0088aa;fill-opacity:1">
      <path
         id="path165581"
         clip-path="none"
         style="fill:#0088aa;fill-opacity:1;stroke-width:0.466553;stroke-linejoin:bevel"
         d="m 210.79017,195.71072 a 26.591318,26.591318 0 0 0 -2.56781,34.63044 26.591318,26.591318 0 0 0 37.19877,5.52111 26.591318,26.591318 0 0 0 2.9626,-2.55798 l -9.59321,-9.59321 h -1.61695 c -0.18651,0 -0.3171,0.0936 -0.39172,0.28008 l -2.18228,7.88944 c -0.11189,0.55952 -0.44765,0.83923 -1.00719,0.83923 l -4.58782,-0.0563 c -0.26112,0 -0.44776,-0.0745 -0.55965,-0.22376 -0.11192,-0.18651 -0.13046,-0.42867 -0.0558,-0.72708 l 2.07016,-7.66569 c 0.11192,-0.2238 0.0189,-0.33538 -0.27956,-0.33538 h -6.32262 c -0.1865,0 -0.33612,0.0931 -0.44802,0.27957 l -2.12598,7.88944 c -0.1865,0.55952 -0.54075,0.83923 -1.06299,0.83923 l -4.53202,-0.0558 c -0.29839,0 -0.50355,-0.0751 -0.61547,-0.22428 -0.11189,-0.18651 -0.13089,-0.42867 -0.0563,-0.72708 l 2.12648,-7.66569 c 0.0746,-0.2238 -0.0375,-0.33538 -0.33592,-0.33538 h -2.79775 c -0.59682,0 -0.85802,-0.29872 -0.78341,-0.89555 l 0.50385,-3.74861 c 0.0746,-0.59681 0.39185,-0.89503 0.95136,-0.89503 h 3.69279 c 0.1492,0 0.29832,-0.11209 0.44752,-0.3359 l 1.79059,-6.60218 c 0.0373,-0.11191 0.0183,-0.18698 -0.0563,-0.22428 -0.0746,-0.0746 -0.14915,-0.11162 -0.22376,-0.11162 h -2.74143 c -0.59682,0 -0.85801,-0.29821 -0.78343,-0.89503 l 0.50385,-3.80494 c 0.0373,-0.26111 0.13041,-0.46626 0.27958,-0.61546 0.18651,-0.18651 0.41016,-0.28009 0.67128,-0.28009 h 2.12079 z m 15.99747,15.99747 -1.69963,6.12831 c -0.0373,0.22381 0.0558,0.33538 0.27956,0.33538 h 6.37842 c 0.1865,0 0.3171,-0.11157 0.39171,-0.33538 l 0.16587,-0.61237 z" />
      <g
         aria-label="#"
         id="g165585"
         style="font-size:55.9522px;line-height:1.25;font-family:Barlow;-inkscape-font-specification:'Barlow, Normal';font-variant-ligatures:none;fill:#0088aa;fill-opacity:1;stroke-width:2.33134"
         clip-path="none"
         transform="translate(38.901894,45.128137)">
        <path
           id="path165583"
           style="font-style:italic;font-weight:600;-inkscape-font-specification:'Barlow Semi-Bold Italic';fill:#0088aa;fill-opacity:1;stroke-width:8.81136"
           d="m 1345.418,279.71875 c -0.9869,0 -1.8342,0.28373 -2.5391,0.84766 -0.5639,0.56393 -0.9856,1.33931 -1.2676,2.32617 l -8.248,29.8164 c -0.282,0.70491 -0.7756,1.0586 -1.4805,1.0586 h -24.1074 c -0.282,0 -0.5637,-0.072 -0.8457,-0.21289 -0.2817,-0.28196 -0.3538,-0.63369 -0.2129,-1.05664 l 8.0371,-28.97266 c 0.2819,-1.12786 0.212,-1.97318 -0.2109,-2.53711 -0.423,-0.70491 -1.1984,-1.05664 -2.3262,-1.05664 l -17.1309,-0.21094 c -2.2557,0 -3.5946,1.05716 -4.0175,3.17188 l -8.0352,29.8164 c -0.4229,0.70491 -0.9884,1.0586 -1.6934,1.0586 h -5.7246 l 24.2032,24.20312 0.5546,-2 c 0.423,-0.7049 0.9865,-1.05664 1.6915,-1.05664 h 23.6855 c 1.1278,0 1.4796,0.42363 1.0566,1.26953 l -6.1386,22.63672 24.5215,24.52149 h 8.0527 c 2.1147,0 3.3817,-1.12905 3.8047,-3.38477 l 1.6933,-14.16797 c 0.282,-2.2557 -0.7052,-3.38281 -2.9609,-3.38281 h -10.7852 c -1.1278,0 -1.4796,-0.42365 -1.0566,-1.26953 l 6.9785,-25.16602 c 0.282,-0.7049 0.7736,-1.05664 1.4785,-1.05664 h 14.17 c 2.1147,0 3.3836,-1.12711 3.8066,-3.38281 l 1.9023,-14.38086 c 0.141,-2.25572 -0.8442,-3.38477 -2.9589,-3.38477 h -10.9981 c -0.8458,0 -1.1975,-0.42169 -1.0566,-1.26757 l 7.8242,-28.97266 c 0.2818,-1.12786 0.212,-1.97318 -0.211,-2.53711 -0.4229,-0.70491 -1.1283,-1.05664 -2.1152,-1.05664 z"
           transform="matrix(0.26458333,0,0,0.26458333,-156.02499,77.15778)" />
      </g>
    </g>
    <path
       d="m -30.621399,204.44006 q -0.731113,0 -0.940002,-0.67889 l -10.810016,-34.93672 q -0.05222,-0.10444 -0.05222,-0.31333 0,-0.62667 0.731113,-0.62667 h 4.752229 q 0.731112,0 0.940001,0.67889 l 7.728901,26.99893 q 0.104445,0.20889 0.208889,0.20889 0.156667,0 0.208889,-0.20889 l 7.676679,-26.94671 q 0.156667,-0.73111 0.940001,-0.73111 h 4.647785 q 0.417778,0 0.574445,0.26111 0.20889,0.26112 0.104445,0.67889 l -10.966683,34.93672 q -0.20889,0.67889 -0.940002,0.67889 z"
       style="font-weight:600;font-size:52.2223px;line-height:1.25;font-family:Barlow;-inkscape-font-specification:'Barlow Semi-Bold';font-variant-ligatures:none;fill:#00aad4;stroke-width:2.17593"
       id="path18715" />
    <path
       d="m -0.01925647,199.74006 q 1.93222517,-0.0522 3.34222727,-0.78334 1.4622245,-0.78333 2.3500036,-2.08889 0.2611115,-0.41778 0.6788899,-0.41778 0.2611115,0 0.4700007,0.15667 l 2.5066705,1.98445 q 0.3655561,0.36555 0.3655561,0.67889 0,0.20888 -0.1566669,0.47 -1.5144467,2.40222 -4.1255618,3.76 -2.6111151,1.35778 -6.00556468,1.35778 -4.12556182,0 -6.94556612,-1.93222 -2.7677821,-1.98445 -4.0211171,-5.48334 -1.044446,-2.87223 -1.044446,-6.47557 0,-3.60334 0.574445,-5.53556 0.992224,-3.70779 3.9166728,-5.90112 2.9244489,-2.19334 7.102233,-2.19334 9.7655704,0 11.4366842,10.70557 0.261111,1.72334 0.365556,4.28223 0,0.83556 -0.8355569,0.83556 H -6.2337103 q -0.3133339,0 -0.3133339,0.31333 0,1.41 0.3133339,2.29778 0.5744453,1.88 2.1933366,2.92445 1.6188914,1.04445 4.02111723,1.04445 z M -1.0637025,182.55892 q -1.9844475,0 -3.290005,0.99222 -1.2533352,0.94 -1.7233359,2.66334 -0.3655561,1.04445 -0.4177784,2.19334 -0.052222,0.31333 0.2611115,0.31333 H 4.2629723 q 0.3133338,0 0.3133338,-0.31333 -0.2088892,-1.56667 -0.3133338,-1.88001 -0.4700008,-1.82778 -1.8800029,-2.87222 -1.3577798,-1.09667 -3.4466719,-1.09667 z"
       style="font-weight:600;font-size:52.2223px;line-height:1.25;font-family:Barlow;-inkscape-font-specification:'Barlow Semi-Bold';font-variant-ligatures:none;fill:#00aad4;stroke-width:2.17593"
       id="path18717" />
    <path
       d="m 28.755222,177.44113 q 1.514447,0 2.767782,0.57445 0.626668,0.31333 0.470001,1.04444 l -0.835557,4.33446 q -0.05222,0.41777 -0.313334,0.52222 -0.208889,0.10444 -0.67889,0 -0.626668,-0.20889 -1.671114,-0.20889 -0.626667,0 -0.992223,0.0522 -2.193337,0.10445 -3.655561,1.56667 -1.462225,1.41 -1.462225,3.70778 v 14.57003 q 0,0.83555 -0.835557,0.83555 h -4.386673 q -0.835557,0 -0.835557,-0.83555 V 178.59 q 0,-0.83555 0.835557,-0.83555 h 4.386673 q 0.835557,0 0.835557,0.83555 v 2.03667 q 0,0.20889 0.104445,0.26112 0.104444,0.0522 0.208889,-0.15667 2.193337,-3.29001 6.057787,-3.29001 z"
       style="font-weight:600;font-size:52.2223px;line-height:1.25;font-family:Barlow;-inkscape-font-specification:'Barlow Semi-Bold';font-variant-ligatures:none;fill:#00aad4;stroke-width:2.17593"
       id="path18719" />
    <path
       d="m 39.408541,174.41224 q -1.723336,0 -2.820004,-1.04445 -1.096668,-1.09666 -1.096668,-2.76778 0,-1.67111 1.096668,-2.71556 1.096668,-1.04444 2.820004,-1.04444 1.723336,0 2.767782,1.04444 1.096669,1.04445 1.096669,2.71556 0,1.67112 -1.096669,2.76778 -1.044446,1.04445 -2.767782,1.04445 z m -2.193336,30.02782 q -0.835557,0 -0.835557,-0.83555 v -25.01449 q 0,-0.83555 0.835557,-0.83555 h 4.386673 q 0.835557,0 0.835557,0.83555 v 25.01449 q 0,0.83555 -0.835557,0.83555 z"
       style="font-weight:600;font-size:52.2223px;line-height:1.25;font-family:Barlow;-inkscape-font-specification:'Barlow Semi-Bold';font-variant-ligatures:none;fill:#00aad4;stroke-width:2.17593"
       id="path18721" />
    <path
       d="m 69.749654,168.72001 q 0,-0.83556 0.835557,-0.83556 h 4.386674 q 0.835556,0 0.835556,0.83556 v 34.8845 q 0,0.83555 -0.835556,0.83555 h -4.386674 q -0.835557,0 -0.835557,-0.83555 v -14.67447 q 0,-0.31333 -0.313333,-0.31333 H 56.224078 q -0.313333,0 -0.313333,0.31333 v 14.67447 q 0,0.83555 -0.835557,0.83555 h -4.386674 q -0.835556,0 -0.835556,-0.83555 v -34.8845 q 0,-0.83556 0.835556,-0.83556 h 4.386674 q 0.835557,0 0.835557,0.83556 v 14.36113 q 0,0.31334 0.313333,0.31334 h 13.212243 q 0.313333,0 0.313333,-0.31334 z"
       style="font-weight:600;font-size:52.2223px;line-height:1.25;font-family:Barlow;-inkscape-font-specification:'Barlow Semi-Bold';font-variant-ligatures:none;fill:#00aad4;stroke-width:2.17593"
       id="path18723" />
    <path
       d="m 92.727425,177.33669 q 3.290005,0 5.796675,1.14889 2.55889,1.14889 3.91667,3.18556 1.35778,1.98445 1.35778,4.54334 v 17.39003 q 0,0.83555 -0.83555,0.83555 h -4.386677 q -0.835557,0 -0.835557,-0.83555 v -1.30556 q 0,-0.20889 -0.104445,-0.20889 -0.104444,-0.0522 -0.261111,0.0522 -2.820004,2.71556 -7.520012,2.71556 -3.86445,0 -6.37112,-1.98445 -2.454449,-1.98444 -2.454449,-5.90112 0,-4.07334 2.820005,-6.31889 2.872226,-2.29779 8.042234,-2.29779 h 5.535564 q 0.313334,0 0.313334,-0.31333 v -1.20111 q 0,-2.03667 -1.253335,-3.13334 -1.201113,-1.14889 -3.603339,-1.14889 -1.827781,0 -3.028894,0.67889 -1.201113,0.62667 -1.618891,1.77556 -0.208889,0.73111 -0.940001,0.67889 l -4.700008,-0.57445 q -0.417778,-0.0522 -0.626667,-0.20889 -0.208889,-0.20889 -0.156667,-0.47 0.470001,-3.13334 3.446672,-5.11778 3.028893,-1.98445 7.467789,-1.98445 z m -1.201113,22.7167 q 2.558893,0 4.386673,-1.35778 1.827781,-1.35778 1.827781,-3.44667 v -2.40223 q 0,-0.31333 -0.313334,-0.31333 h -4.334451 q -2.767782,0 -4.386673,1.04444 -1.618892,1.04445 -1.618892,2.97668 0,1.67111 1.253336,2.61111 1.253335,0.88778 3.18556,0.88778 z"
       style="font-weight:600;font-size:52.2223px;line-height:1.25;font-family:Barlow;-inkscape-font-specification:'Barlow Semi-Bold';font-variant-ligatures:none;fill:#00aad4;stroke-width:2.17593"
       id="path18725" />
    <path
       d="m 119.77855,204.7534 q -3.29001,0 -5.79668,-0.94 -2.45445,-0.99223 -3.81223,-2.66334 -1.35778,-1.72334 -1.35778,-3.81223 v -0.26111 q 0,-0.83556 0.83556,-0.83556 h 4.17778 q 0.83556,0 0.83556,0.36556 v 0.36555 q 0,1.30556 1.41,2.29779 1.46223,0.94 3.65556,0.94 2.0889,0 3.39445,-0.83556 1.30556,-0.88778 1.30556,-2.19334 0,-1.20111 -1.09667,-1.77555 -1.04444,-0.62667 -3.44667,-1.30556 l -1.98445,-0.62667 q -2.66333,-0.78333 -4.49112,-1.67111 -1.82778,-0.88778 -3.08111,-2.40223 -1.25334,-1.56667 -1.25334,-3.96889 0,-3.65557 2.82001,-5.79668 2.87222,-2.19334 7.57223,-2.19334 3.18556,0 5.58779,1.04445 2.40222,0.99222 3.70778,2.82 1.35778,1.77556 1.35778,4.07334 0,0.26111 -0.26111,0.47 -0.20889,0.15667 -0.57445,0.15667 h -4.02111 q -0.83556,0 -0.83556,-0.31333 v -0.31334 q 0,-1.35778 -1.35778,-2.24556 -1.30556,-0.94 -3.60334,-0.94 -2.03667,0 -3.34223,0.78334 -1.25333,0.73111 -1.25333,2.08889 0,1.25333 1.20111,1.93222 1.20112,0.62667 4.02112,1.41001 l 1.20111,0.31333 q 2.82001,0.83556 4.70001,1.67111 1.88,0.83556 3.18556,2.40223 1.30556,1.56667 1.30556,4.02112 0,3.70778 -2.92445,5.8489 -2.92445,2.08889 -7.78112,2.08889 z"
       style="font-weight:600;font-size:52.2223px;line-height:1.25;font-family:Barlow;-inkscape-font-specification:'Barlow Semi-Bold';font-variant-ligatures:none;fill:#00aad4;stroke-width:2.17593"
       id="path18727" />
    <path
       d="m 148.39634,177.33669 q 4.28223,0 6.7889,2.50667 2.55889,2.50667 2.55889,6.84112 v 16.92003 q 0,0.83555 -0.83555,0.83555 h -4.38668 q -0.83555,0 -0.83555,-0.83555 v -15.66669 q 0,-2.40223 -1.41001,-3.86445 -1.35778,-1.51445 -3.60334,-1.51445 -2.24555,0 -3.65556,1.46222 -1.35778,1.46223 -1.35778,3.86445 v 15.71892 q 0,0.83555 -0.83555,0.83555 h -4.38668 q -0.83555,0 -0.83555,-0.83555 v -34.8845 q 0,-0.83556 0.83555,-0.83556 h 4.38668 q 0.83555,0 0.83555,0.83556 v 11.28002 q 0,0.20889 0.10445,0.26111 0.10444,0.0522 0.20889,-0.10445 2.19333,-2.82 6.42334,-2.82 z"
       style="font-weight:600;font-size:52.2223px;line-height:1.25;font-family:Barlow;-inkscape-font-specification:'Barlow Semi-Bold';font-variant-ligatures:none;fill:#00aad4;stroke-width:2.17593"
       id="path18729" />
    <path
       d="m 165.80747,204.55728 q -1.1647,0 -1.95368,-0.75141 -0.75142,-0.75142 -0.75142,-1.87854 0,-1.05199 0.82656,-1.8034 0.82655,-0.75142 1.87854,-0.75142 1.05198,0 1.87854,0.75142 0.86413,0.75141 0.86413,1.8034 0,1.08955 -0.78899,1.87854 -0.78899,0.75141 -1.95368,0.75141 z"
       style="font-weight:500;font-size:37.5708px;line-height:1.25;font-family:Barlow;-inkscape-font-specification:'Barlow Medium';font-variant-ligatures:none;fill:#00ccff;stroke-width:2.17593"
       id="path18758" />
    <path
       d="m 175.68858,182.57836 q -1.08955,0 -1.80339,-0.6387 -0.67628,-0.67627 -0.67628,-1.72826 0,-1.05198 0.67628,-1.69068 0.71384,-0.67628 1.80339,-0.67628 1.08956,0 1.76583,0.67628 0.67628,0.6387 0.67628,1.69068 0,1.05199 -0.67628,1.72826 -0.67627,0.6387 -1.76583,0.6387 z m -1.23983,21.97892 q -0.263,0 -0.41328,-0.15028 -0.15028,-0.15028 -0.15028,-0.41328 v -17.99641 q 0,-0.263 0.15028,-0.41328 0.15028,-0.15029 0.41328,-0.15029 h 2.47967 q 0.263,0 0.41328,0.15029 0.15028,0.15028 0.15028,0.41328 v 17.99641 q 0,0.263 -0.15028,0.41328 -0.15028,0.15028 -0.41328,0.15028 z"
       style="font-weight:500;font-size:37.5708px;line-height:1.25;font-family:Barlow;-inkscape-font-specification:'Barlow Medium';font-variant-ligatures:none;fill:#00ccff;stroke-width:2.17593"
       id="path18760" />
    <path
       d="m 190.86717,204.85785 q -2.81781,0 -4.88421,-1.39012 -2.02882,-1.42769 -2.85538,-3.94494 -0.67627,-2.02882 -0.67627,-4.58363 0,-2.66753 0.6387,-4.5085 0.82656,-2.47967 2.89295,-3.86979 2.0664,-1.42769 4.92178,-1.42769 2.7051,0 4.69635,1.42769 2.02882,1.39012 2.89295,3.83222 0.67627,1.91611 0.67627,4.5085 0,2.62995 -0.67627,4.6212 -0.82656,2.51725 -2.85538,3.94494 -2.02882,1.39012 -4.77149,1.39012 z m 0,-3.11838 q 1.50283,0 2.62995,-0.82656 1.12713,-0.86412 1.61555,-2.40453 0.41328,-1.42769 0.41328,-3.53165 0,-2.10397 -0.37571,-3.49409 -0.48842,-1.5404 -1.61555,-2.36696 -1.12712,-0.86413 -2.74266,-0.86413 -1.54041,0 -2.66753,0.86413 -1.12712,0.82656 -1.61555,2.36696 -0.41327,1.31498 -0.41327,3.49409 0,2.1791 0.41327,3.53165 0.45085,1.54041 1.57798,2.40453 1.16469,0.82656 2.78024,0.82656 z"
       style="font-weight:500;font-size:37.5708px;line-height:1.25;font-family:Barlow;-inkscape-font-specification:'Barlow Medium';font-variant-ligatures:none;fill:#00ccff;stroke-width:2.17593"
       id="path18762" />
  </g>
</svg>
