<?xml version="1.0" encoding="UTF-8" standalone="no"?>
<!-- Created with Inkscape (http://www.inkscape.org/) -->

<svg
   width="148.29611mm"
   height="148.29955mm"
   viewBox="0 0 148.29611 148.29954"
   version="1.1"
   id="svg82920"
   xmlns="http://www.w3.org/2000/svg"
   xmlns:svg="http://www.w3.org/2000/svg">
  <defs
     id="defs82917" />
  <g
     id="layer1"
     transform="translate(194.26755,-105.22848)">
    <path
       id="path87562"
       style="fill:#17a2b8;stroke-width:2.01208;stroke-linecap:round;stroke-linejoin:bevel;paint-order:stroke fill markers"
       d="m -123.69642,201.25525 -0.47903,1.72909 c -0.36573,0.60945 -0.85291,0.91364 -1.46246,0.91364 h -19.68095 l -31.24409,31.24409 -3.56103,13.18576 c -0.24365,0.97513 -0.1833,1.7061 0.18241,2.19366 0.36565,0.60946 0.97557,0.91364 1.82882,0.91364 l 11.75692,0.14418 7.98761,-7.98763 5.66944,-20.49539 c 0.24382,-0.60945 0.67056,-0.91519 1.28003,-0.91519 h 14.46112 l 17.09354,-17.09353 z" />
    <path
       id="path84789"
       style="fill:#28a745;stroke-width:2.01119;stroke-linecap:round;stroke-linejoin:bevel;paint-order:stroke fill markers"
       d="m -157.87904,167.07232 -13.05708,13.05657 h 8.18142 c 0.9751,0 1.27937,0.36627 0.91363,1.09761 l -6.03321,21.75784 c -0.24381,0.60945 -0.66903,0.91364 -1.27847,0.91364 h -12.25095 c -1.82832,0 -2.92555,0.97464 -3.29125,2.92489 l -1.64487,12.43335 c -0.0646,1.03424 0.14754,1.79185 0.63098,2.27789 l 41.14581,-41.1458 z" />
    <g
       aria-label="#"
       id="g84797"
       style="font-size:55.9522px;line-height:1.25;font-family:Barlow;-inkscape-font-specification:'Barlow, Normal';font-variant-ligatures:none;fill:#f2f2f2;fill-opacity:1;stroke-width:2.33134"
       clip-path="none"
       transform="matrix(-3.2677227,0,0,-3.2677227,299.76067,745.58995)" />
    <path
       id="path85070"
       style="fill:#ffc107;stroke-width:2.01101;stroke-linecap:round;stroke-linejoin:bevel;paint-order:stroke fill markers"
       d="m -121.51021,106.00783 -48.7159,48.71589 7.30655,7.30653 h 5.28338 c 0.60947,0 1.03619,-0.30581 1.28003,-0.91518 l 7.13134,-25.78034 c 0.36563,-1.82836 1.46285,-2.74247 3.29128,-2.74247 l 14.99132,0.18396 c 0.85328,0 1.46323,0.24349 1.82885,0.73123 0.36571,0.60946 0.42638,1.40096 0.18241,2.37608 l -1.54461,5.72058 30.05656,-30.05656 a 86.893052,86.893052 0 0 0 -21.09121,-5.53972 z" />
    <path
       id="path85315"
       style="fill:#ffc107;stroke-width:2.01101;stroke-linecap:round;stroke-linejoin:bevel;paint-order:stroke fill markers"
       d="m -169.88549,162.02819 c -1.82832,0 -2.92399,0.97617 -3.28969,2.92643 l -1.46402,12.24938 c -0.24382,1.95025 0.60981,2.92489 2.56005,2.92489 h 3.07838 l 12.08918,-12.08918 -6.01205,-6.01152 z" />
    <g
       aria-label="#"
       id="g85319"
       style="font-size:55.9522px;line-height:1.25;font-family:Barlow;-inkscape-font-specification:'Barlow, Normal';font-variant-ligatures:none;fill:#f2f2f2;fill-opacity:1;stroke-width:2.33134"
       clip-path="none"
       transform="matrix(-3.2677227,0,0,-3.2677227,220.38562,745.58995)" />
    <path
       id="path85601"
       style="fill:#dc3545;stroke-width:2.01462;stroke-linecap:round;stroke-linejoin:bevel;paint-order:stroke fill markers"
       d="m -144.23908,105.99853 a 86.893052,86.893052 0 0 0 -40.34792,16.3251 86.893052,86.893052 0 0 0 -9.68055,8.35867 l 12.67261,12.67261 z" />
    <path
       id="path85947"
       style="fill:#fd7e14;stroke-width:2.01488;stroke-linecap:round;stroke-linejoin:bevel;paint-order:stroke fill markers"
       d="m -132.43463,105.22855 a 86.893052,86.893052 0 0 0 -14.1609,1.14309 l -35.99108,35.9916 13.34079,13.34078 19.8882,-19.8887 0.1328,-0.48059 c 0.35057,-1.75297 1.38109,-2.65625 3.07631,-2.72852 l 26.38081,-26.38082 a 86.893052,86.893052 0 0 0 -12.66693,-0.99684 z" />
    <path
       id="path84448"
       style="fill:#28a745;stroke-width:7.60135;stroke-linecap:round;stroke-linejoin:bevel;paint-order:stroke fill markers"
       d="M -530.45117,21.724609 -636.19141,127.4668 -658.625,210.53906 c -1.38225,2.76405 -0.23316,4.14258 3.45312,4.14258 H -622.75 l 68.81055,-68.80859 8.64453,-32.08203 c 2.30336,-6.9103 6.67704,-10.36524 13.12695,-10.36524 l 20.42188,0.25195 47.44726,-47.447261 a 328.41469,328.41469 0 0 0 -66.15234,-34.50586 z"
       transform="matrix(0.26458333,0,0,0.26458333,38.565712,105.22752)" />
    <g
       aria-label="#"
       id="g86331"
       style="font-size:55.9522px;line-height:1.25;font-family:Barlow;-inkscape-font-specification:'Barlow, Normal';font-variant-ligatures:none;fill:#f2f2f2;fill-opacity:1;stroke-width:2.33134"
       clip-path="none"
       transform="matrix(-3.2677227,0,0,-3.2677227,532.59415,745.58995)" />
    <path
       id="path86323"
       style="fill:#20c997;stroke-width:2.01265;stroke-linecap:round;stroke-linejoin:bevel;paint-order:stroke fill markers"
       d="m -145.53625,179.41524 -21.86585,21.86636 -0.47232,1.70274 c -0.24381,0.60945 -0.66903,0.91364 -1.27848,0.91364 h -0.86558 l -16.29358,16.29358 c 0.18144,1.32583 1.02325,1.99109 2.5306,1.99109 h 9.50898 c 0.73127,0 1.03494,0.36472 0.91312,1.09606 l -3.92586,14.53762 33.91835,-33.91835 h -2.74919 c -0.97508,0 -1.27936,-0.36625 -0.91364,-1.0976 l 5.30717,-19.57142 z" />
    <path
       id="path86740"
       style="fill:#20c997;stroke-width:2.01265;stroke-linecap:round;stroke-linejoin:bevel;paint-order:stroke fill markers"
       d="m -139.90026,180.13096 c -0.60942,0 -1.03622,0.36472 -1.28003,1.09606 l -0.54208,2.00091 9.51312,9.51259 12.60956,-12.60956 z" />
    <path
       id="path86594"
       style="fill:#20c997;stroke-width:2.01265;stroke-linecap:round;stroke-linejoin:bevel;paint-order:stroke fill markers"
       d="m -85.423519,119.30263 -13.332504,13.33252 11.328494,0.13952 c 0.97505,0 1.64553,0.24531 2.01123,0.73278 0.36566,0.60947 0.42773,1.40096 0.18399,2.37608 l -3.79306,13.67307 18.244361,-18.24437 a 86.893052,86.893052 0 0 0 -14.642511,-12.0096 z m -21.856031,21.85603 -20.87004,20.87004 h 14.0281 c 0.60942,0 1.09831,-0.3043 1.46399,-0.91363 z" />
    <path
       id="path87544"
       style="fill:#17a2b8;stroke-width:2.01208;stroke-linecap:round;stroke-linejoin:bevel;paint-order:stroke fill markers"
       d="m -71.763378,130.34227 -16.512161,16.51217 -3.905187,14.07821 c -0.24376,0.73132 0.12247,1.09605 1.09762,1.09605 h 9.142064 c 1.81779,0 2.67007,0.85938 2.58175,2.55385 l 19.550738,-19.55074 a 86.893052,86.893052 0 0 0 -3.223047,-4.6669 86.893052,86.893052 0 0 0 -8.731777,-10.02264 z m -24.439835,49.78714 c -0.48755,0 -0.97491,0.36625 -1.46243,1.09761 l -0.61857,2.28048 3.37809,-3.37809 z" />
    <path
       id="path87554"
       style="fill:#17a2b8;stroke-width:2.01208;stroke-linecap:round;stroke-linejoin:bevel;paint-order:stroke fill markers"
       d="m -121.55193,180.13096 -11.63392,11.63391 9.4883,9.4878 5.55366,-20.02565 c 0.12189,-0.73134 -0.18193,-1.09606 -0.9131,-1.09606 z" />
    <g
       aria-label="#"
       id="g87566"
       style="font-size:55.9522px;line-height:1.25;font-family:Barlow;-inkscape-font-specification:'Barlow, Normal';font-variant-ligatures:none;fill:#f2f2f2;fill-opacity:1;stroke-width:2.33134"
       clip-path="none"
       transform="matrix(-3.2677227,0,0,-3.2677227,-1.8644591,745.58995)" />
    <path
       id="path87834"
       style="fill:#0d6efd;stroke-width:2.01138;stroke-linecap:round;stroke-linejoin:bevel;paint-order:stroke fill markers"
       d="m -60.579584,143.85979 -19.105788,19.10529 c 0.3084,0.47942 0.41031,1.14259 0.30437,1.99006 l -1.64642,12.24938 c -0.24376,1.95021 -1.2805,2.92489 -3.108847,2.92489 h -12.066954 c -0.48755,0 -0.97491,0.36625 -1.46243,1.09761 l -5.851337,21.57387 c -0.12187,0.36569 -0.0598,0.61089 0.18399,0.73277 0.24376,0.24377 0.48739,0.36484 0.7312,0.36484 h 8.618584 l 42.438746,-42.43875 a 86.893052,86.893052 0 0 0 -9.035114,-17.59996 z" />
    <g
       aria-label="#"
       id="g87846"
       style="font-size:55.9522px;line-height:1.25;font-family:Barlow;-inkscape-font-specification:'Barlow, Normal';font-variant-ligatures:none;fill:#f2f2f2;fill-opacity:1;stroke-width:2.33134"
       clip-path="none"
       transform="matrix(-3.2677227,0,0,-3.2677227,156.88558,745.58995)" />
    <path
       id="path87842"
       style="fill:#0d6efd;stroke-width:2.01138;stroke-linecap:round;stroke-linejoin:bevel;paint-order:stroke fill markers"
       d="m -120.83572,204.11554 -18.06556,18.06556 h 8.32559 c 0.24381,0 0.48741,0.0622 0.73123,0.18397 0.24355,0.24378 0.30578,0.54796 0.18396,0.91364 l -6.25647,22.55315 28.39879,-28.39879 z m -36.78949,36.78949 -10.65101,10.65102 5.15524,0.0631 c 0.85326,0 1.58576,-0.24521 2.1952,-0.73277 0.48755,-0.48757 0.85225,-1.15802 1.09606,-2.01125 z" />
    <path
       id="path88171"
       style="fill:#6610f2;stroke-width:2.00904;stroke-linecap:round;stroke-linejoin:bevel;paint-order:stroke fill markers"
       d="m -52.08139,160.07275 -43.825713,43.82575 h 2.263927 c 1.95025,0 2.80377,0.97464 2.56006,2.92489 l -1.64642,12.43334 c -0.1219,0.85324 -0.42619,1.5237 -0.91364,2.01125 -0.60946,0.60946 -1.340397,0.91519 -2.193657,0.91519 h -6.930327 l 7.589727,7.58972 48.52775,-48.52779 a 86.893052,86.893052 0 0 0 -5.431707,-21.17235 z" />
    <g
       aria-label="#"
       id="g88183"
       style="font-size:55.9522px;line-height:1.25;font-family:Barlow;-inkscape-font-specification:'Barlow, Normal';font-variant-ligatures:none;fill:#f2f2f2;fill-opacity:1;stroke-width:2.33134"
       clip-path="none"
       transform="matrix(-3.2677227,0,0,-3.2677227,151.59391,745.58995)" />
    <path
       id="path88179"
       style="fill:#6610f2;stroke-width:2.00904;stroke-linecap:round;stroke-linejoin:bevel;paint-order:stroke fill markers"
       d="m -108.47988,216.47137 -26.69863,26.69863 -1.43092,5.15783 c -0.24371,0.97513 -0.1832,1.7061 0.18243,2.19366 0.36571,0.60946 1.03616,0.91364 2.01123,0.91364 l 14.811,0.18242 c 1.95025,0 3.10804,-0.91411 3.47369,-2.74247 l 6.94685,-25.77879 c 0.36563,-0.60945 0.85497,-0.91519 1.46452,-0.91519 h 4.94906 z" />
    <path
       id="path88366"
       style="fill:#6f42c1;stroke-width:2.00803;stroke-linecap:round;stroke-linejoin:bevel;paint-order:stroke fill markers"
       d="m -46.876543,179.57078 -49.25175,49.25126 13.295831,13.29583 35.663952,-35.66449 a 86.893052,86.893052 0 0 0 0.291967,-26.8826 z" />
    <g
       aria-label="#"
       id="g88378"
       style="font-size:55.9522px;line-height:1.25;font-family:Barlow;-inkscape-font-specification:'Barlow, Normal';font-variant-ligatures:none;fill:#f2f2f2;fill-opacity:1;stroke-width:2.33134"
       clip-path="none"
       transform="matrix(-3.2677227,0,0,-3.2677227,141.01057,745.58995)" />
    <path
       id="path88374"
       style="fill:#6f42c1;stroke-width:2.00803;stroke-linecap:round;stroke-linejoin:bevel;paint-order:stroke fill markers"
       d="m -116.11247,248.80687 -2.76212,2.76159 c 1.5112,-0.20945 2.42612,-1.10636 2.74352,-2.69338 z" />
    <path
       id="path88561"
       style="fill:#d63384;stroke-width:2.01149;stroke-linecap:round;stroke-linejoin:bevel;paint-order:stroke fill markers"
       d="m -46.816063,204.18324 -36.975499,36.97552 12.369264,12.36927 a 86.893052,86.893052 0 0 0 24.606235,-49.34479 z" />
  </g>
</svg>
