<?xml version="1.0" encoding="UTF-8" standalone="no"?>
<!-- Created with Inkscape (http://www.inkscape.org/) -->

<svg
   width="283.22754mm"
   height="48.622383mm"
   viewBox="0 0 283.22754 48.622383"
   version="1.1"
   id="svg861"
   xmlns="http://www.w3.org/2000/svg"
   xmlns:svg="http://www.w3.org/2000/svg">
  <defs
     id="defs858" />
  <g
     id="layer1"
     transform="translate(233.84979,-43.482287)">
    <path
       d="m -195.08197,91.657051 q -0.78333,0 -1.00714,-0.727379 l -11.58211,-37.432023 q -0.0559,-0.111904 -0.0559,-0.335713 0,-0.671426 0.78333,-0.671426 h 5.09165 q 0.78333,0 1.00714,0.727378 l 8.28093,28.927289 q 0.1119,0.223809 0.22381,0.223809 0.16785,0 0.22381,-0.223809 l 8.22497,-28.871336 q 0.16786,-0.783331 1.00714,-0.783331 h 4.97974 q 0.44762,0 0.61548,0.279761 0.22381,0.279761 0.1119,0.727378 l -11.74996,37.432023 q -0.22381,0.727379 -1.00714,0.727379 z"
       style="font-weight:600;font-size:55.9522px;line-height:1.25;font-family:Barlow;-inkscape-font-specification:'Barlow Semi-Bold';font-variant-ligatures:none;fill:#ffcc00;stroke-width:2.33134"
       id="path3387" />
    <path
       d="m -162.29412,86.621353 q 2.07024,-0.05595 3.58095,-0.839283 1.56666,-0.839283 2.51784,-2.238088 0.27977,-0.447618 0.72738,-0.447618 0.27976,0 0.50357,0.167857 l 2.68571,2.126183 q 0.39166,0.391666 0.39166,0.727379 0,0.223809 -0.16785,0.50357 -1.62262,2.573801 -4.42023,4.028558 -2.79761,1.454758 -6.4345,1.454758 -4.42022,0 -7.44164,-2.070232 -2.96547,-2.126183 -4.30832,-5.874981 -1.11905,-3.077371 -1.11905,-6.938073 0,-3.860702 0.61548,-5.930933 1.06309,-3.972607 4.19641,-6.322599 3.13333,-2.349993 7.6095,-2.349993 10.46306,0 12.25353,11.470202 0.27977,1.846422 0.39167,4.58808 0,0.895235 -0.89523,0.895235 h -17.34519 q -0.33571,0 -0.33571,0.335714 0,1.510709 0.33571,2.461897 0.61548,2.014279 2.34999,3.133323 1.73452,1.119044 4.30832,1.119044 z m -1.11904,-18.408274 q -2.12618,0 -3.52499,1.063091 -1.34285,1.00714 -1.84642,2.853563 -0.39167,1.119044 -0.44762,2.349992 -0.0559,0.335713 0.27976,0.335713 h 11.2464 q 0.33571,0 0.33571,-0.335713 -0.22381,-1.678566 -0.33571,-2.014279 -0.50357,-1.958327 -2.01428,-3.077371 -1.45476,-1.174996 -3.69285,-1.174996 z"
       style="font-weight:600;font-size:55.9522px;line-height:1.25;font-family:Barlow;-inkscape-font-specification:'Barlow Semi-Bold';font-variant-ligatures:none;fill:#ffcc00;stroke-width:2.33134"
       id="path3389" />
    <path
       d="m -131.46446,62.729763 q 1.62261,0 2.96547,0.615474 0.67142,0.335713 0.50356,1.119044 l -0.89523,4.644033 q -0.0559,0.447617 -0.33571,0.559522 -0.22381,0.111904 -0.72738,0 -0.67143,-0.223809 -1.79047,-0.223809 -0.67143,0 -1.06309,0.05595 -2.35,0.111905 -3.91666,1.678566 -1.56666,1.51071 -1.56666,3.972607 v 15.610664 q 0,0.895235 -0.89524,0.895235 h -4.69998 q -0.89524,0 -0.89524,-0.895235 V 63.960711 q 0,-0.895235 0.89524,-0.895235 h 4.69998 q 0.89524,0 0.89524,0.895235 v 2.182136 q 0,0.223809 0.1119,0.279761 0.11191,0.05595 0.22381,-0.167857 2.35,-3.524988 6.49046,-3.524988 z"
       style="font-weight:600;font-size:55.9522px;line-height:1.25;font-family:Barlow;-inkscape-font-specification:'Barlow Semi-Bold';font-variant-ligatures:none;fill:#ffcc00;stroke-width:2.33134"
       id="path3391" />
    <path
       d="m -120.05025,59.484535 q -1.84642,0 -3.02141,-1.119044 -1.175,-1.174996 -1.175,-2.965467 0,-1.79047 1.175,-2.909514 1.17499,-1.119044 3.02141,-1.119044 1.84643,0 2.96547,1.119044 1.175,1.119044 1.175,2.909514 0,1.790471 -1.175,2.965467 -1.11904,1.119044 -2.96547,1.119044 z m -2.34999,32.172516 q -0.89523,0 -0.89523,-0.895235 V 63.960711 q 0,-0.895235 0.89523,-0.895235 h 4.69999 q 0.89523,0 0.89523,0.895235 v 26.801105 q 0,0.895235 -0.89523,0.895235 z"
       style="font-weight:600;font-size:55.9522px;line-height:1.25;font-family:Barlow;-inkscape-font-specification:'Barlow Semi-Bold';font-variant-ligatures:none;fill:#ffcc00;stroke-width:2.33134"
       id="path3393" />
    <path
       d="m -87.542067,53.385745 q 0,-0.895235 0.895235,-0.895235 h 4.699985 q 0.895236,0 0.895236,0.895235 v 37.376071 q 0,0.895235 -0.895236,0.895235 h -4.699985 q -0.895235,0 -0.895235,-0.895235 V 75.039247 q 0,-0.335713 -0.335713,-0.335713 h -14.15591 q -0.33571,0 -0.33571,0.335713 v 15.722569 q 0,0.895235 -0.89524,0.895235 h -4.69998 q -0.89524,0 -0.89524,-0.895235 V 53.385745 q 0,-0.895235 0.89524,-0.895235 h 4.69998 q 0.89524,0 0.89524,0.895235 v 15.386856 q 0,0.335713 0.33571,0.335713 h 14.15591 q 0.335713,0 0.335713,-0.335713 z"
       style="font-weight:600;font-size:55.9522px;line-height:1.25;font-family:Barlow;-inkscape-font-specification:'Barlow Semi-Bold';font-variant-ligatures:none;fill:#ffcc00;stroke-width:2.33134"
       id="path3395" />
    <path
       d="m -62.923141,62.617858 q 3.524989,0 6.210695,1.230949 2.741658,1.230948 4.196415,3.413084 1.454757,2.126184 1.454757,4.867842 v 18.632083 q 0,0.895235 -0.895235,0.895235 h -4.699985 q -0.895235,0 -0.895235,-0.895235 v -1.398805 q 0,-0.223809 -0.111905,-0.223809 -0.111904,-0.05595 -0.279761,0.05595 -3.021419,2.909515 -8.057117,2.909515 -4.140463,0 -6.826168,-2.126184 -2.629754,-2.126184 -2.629754,-6.322599 0,-4.364272 3.021419,-6.770216 3.077371,-2.461897 8.616639,-2.461897 h 5.930934 q 0.335713,0 0.335713,-0.335713 v -1.286901 q 0,-2.182136 -1.342853,-3.357132 -1.286901,-1.230948 -3.860702,-1.230948 -1.958327,0 -3.245228,0.727378 -1.2869,0.671427 -1.734518,1.902375 -0.223809,0.783331 -1.00714,0.727379 l -5.035698,-0.615475 q -0.447617,-0.05595 -0.671426,-0.223808 -0.223809,-0.223809 -0.167857,-0.50357 0.50357,-3.357132 3.692846,-5.483316 3.245227,-2.126184 8.001164,-2.126184 z m -1.2869,24.339208 q 2.741658,0 4.699985,-1.454757 1.958327,-1.454757 1.958327,-3.692845 v -2.573802 q 0,-0.335713 -0.335713,-0.335713 h -4.644033 q -2.965467,0 -4.699985,1.119044 -1.734518,1.119044 -1.734518,3.189276 0,1.79047 1.342852,2.79761 1.342853,0.951187 3.413085,0.951187 z"
       style="font-weight:600;font-size:55.9522px;line-height:1.25;font-family:Barlow;-inkscape-font-specification:'Barlow Semi-Bold';font-variant-ligatures:none;fill:#ffcc00;stroke-width:2.33134"
       id="path3397" />
    <path
       d="m -33.939933,91.992764 q -3.524989,0 -6.210695,-1.007139 -2.629753,-1.063092 -4.084511,-2.853563 -1.454757,-1.846422 -1.454757,-4.08451 v -0.279761 q 0,-0.895236 0.895235,-0.895236 h 4.476177 q 0.895235,0 0.895235,0.391666 v 0.391665 q 0,1.398805 1.510709,2.461897 1.566662,1.00714 3.916654,1.00714 2.238088,0 3.636894,-0.895235 1.398805,-0.951188 1.398805,-2.349993 0,-1.286901 -1.174997,-1.902375 -1.119044,-0.671426 -3.692845,-1.398805 l -2.126184,-0.671426 q -2.853562,-0.839283 -4.811889,-1.790471 -1.958327,-0.951187 -3.30118,-2.573801 -1.342853,-1.678566 -1.342853,-4.252367 0,-3.916655 3.021419,-6.210695 3.077371,-2.349992 8.113069,-2.349992 3.413085,0 5.986886,1.119044 2.573801,1.063092 3.972606,3.021419 1.454758,1.902375 1.454758,4.364271 0,0.279761 -0.279761,0.50357 -0.223809,0.167857 -0.615475,0.167857 h -4.308319 q -0.895235,0 -0.895235,-0.335713 v -0.335714 q 0,-1.454757 -1.454758,-2.405944 -1.398805,-1.00714 -3.860702,-1.00714 -2.182135,0 -3.580941,0.839283 -1.342852,0.783331 -1.342852,2.238088 0,1.342853 1.2869,2.070232 1.286901,0.671426 4.30832,1.510709 l 1.2869,0.335713 q 3.021419,0.895236 5.035699,1.790471 2.014279,0.895235 3.413084,2.573801 1.398805,1.678566 1.398805,4.30832 0,3.972606 -3.133323,6.266646 -3.133324,2.238088 -8.336878,2.238088 z"
       style="font-weight:600;font-size:55.9522px;line-height:1.25;font-family:Barlow;-inkscape-font-specification:'Barlow Semi-Bold';font-variant-ligatures:none;fill:#ffcc00;stroke-width:2.33134"
       id="path3399" />
    <path
       d="m -3.2781641,62.617858 q 4.5880805,0 7.2737862,2.685706 Q 6.73728,67.98927 6.73728,72.633302 v 18.128514 q 0,0.895235 -0.8952352,0.895235 h -4.699985 q -0.89523523,0 -0.89523523,-0.895235 V 73.976155 q 0,-2.573801 -1.51070947,-4.140463 -1.4547572,-1.622613 -3.8607019,-1.622613 -2.4059447,0 -3.9166541,1.566661 -1.4547571,1.566662 -1.4547571,4.140463 v 16.841613 q 0,0.895235 -0.895235,0.895235 h -4.699985 q -0.895236,0 -0.895236,-0.895235 V 53.385745 q 0,-0.895235 0.895236,-0.895235 h 4.699985 q 0.895235,0 0.895235,0.895235 v 12.085676 q 0,0.223808 0.111904,0.279761 0.111905,0.05595 0.223809,-0.111905 2.3499925,-3.021419 6.8821209,-3.021419 z"
       style="font-weight:600;font-size:55.9522px;line-height:1.25;font-family:Barlow;-inkscape-font-specification:'Barlow Semi-Bold';font-variant-ligatures:none;fill:#ffcc00;stroke-width:2.33134"
       id="path3401" />
    <path
       d="m 15.049737,91.695151 q -1.3335,0 -2.2098,-0.8382 -0.8382,-0.8382 -0.8382,-2.0955 0,-1.1811 0.9144,-2.0193 0.9525,-0.8763 2.1336,-0.8763 1.2192,0 2.1717,0.8763 0.9525,0.8382 0.9525,2.0193 0,1.2192 -0.9144,2.0955 -0.8763,0.8382 -2.2098,0.8382 z"
       style="font-size:38.1px;line-height:1.25;font-family:Barlow;-inkscape-font-specification:'Barlow, Normal';font-variant-ligatures:none;fill:#999999;stroke-width:2.33134"
       id="path3403" />
    <path
       d="m 25.146178,69.749552 q -1.257299,0 -2.057399,-0.762 -0.8001,-0.8001 -0.8001,-2.0193 0,-1.2192 0.8001,-1.9812 0.8001,-0.762 2.057399,-0.762 1.2573,0 2.0193,0.762 0.8001,0.762 0.8001,1.9812 0,1.2192 -0.8001,2.0193 -0.762,0.762 -2.0193,0.762 z m -1.600199,21.907499 q -0.6096,0 -0.6096,-0.6096 V 72.797552 q 0,-0.6096 0.6096,-0.6096 h 3.200399 q 0.6096,0 0.6096,0.6096 v 18.249899 q 0,0.6096 -0.6096,0.6096 z"
       style="font-size:38.1px;line-height:1.25;font-family:Barlow;-inkscape-font-specification:'Barlow, Normal';font-variant-ligatures:none;fill:#999999;stroke-width:2.33134"
       id="path3405" />
    <path
       d="m 40.652848,91.961851 q -3.0099,0 -5.1816,-1.524 -2.1717,-1.524 -3.0099,-4.2291 -0.6477,-1.8669 -0.6477,-4.3434 0,-2.438399 0.6096,-4.343399 0.8763,-2.667 3.048,-4.1529 2.1717,-1.4859 5.2197,-1.4859 2.895599,0 4.991099,1.4859 2.1336,1.4859 3.0099,4.1148 0.6858,1.8288 0.6858,4.343399 0,2.4003 -0.6477,4.3434 -0.8763,2.7051 -3.0099,4.2672 -2.1336,1.524 -5.067299,1.524 z m 0,-3.81 q 1.4097,0 2.400299,-0.8001 1.0287,-0.8001 1.4478,-2.2479 0.4191,-1.2192 0.4191,-3.2004 0,-1.866899 -0.381,-3.200399 -0.4191,-1.4478 -1.4859,-2.2098 -1.028699,-0.8001 -2.476499,-0.8001 -1.4478,0 -2.4765,0.8001 -1.0287,0.762 -1.4478,2.2098 -0.381,1.3335 -0.381,3.200399 0,1.8669 0.381,3.2004 0.4191,1.4478 1.4478,2.2479 1.0668,0.8001 2.5527,0.8001 z"
       style="font-size:38.1px;line-height:1.25;font-family:Barlow;-inkscape-font-specification:'Barlow, Normal';font-variant-ligatures:none;fill:#999999;stroke-width:2.33134"
       id="path3407" />
    <g
       aria-label="#"
       id="text832"
       style="font-size:55.9522px;line-height:1.25;font-family:Barlow;-inkscape-font-specification:'Barlow, Normal';font-variant-ligatures:none;display:inline;fill:#999999;stroke-width:2.33134"
       transform="translate(-263.97406,-59.054473)">
      <path
         d="m 57.609229,117.1402 c -0.186507,0 -0.317063,0.0933 -0.391666,0.27976 l -1.846422,6.65831 c -0.111905,0.22381 -0.01865,0.33572 0.279761,0.33572 h 2.853562 c 0.596823,0 0.857934,0.29841 0.783331,0.89523 l -0.447618,3.7488 c -0.111904,0.59682 -0.447617,0.89523 -1.007139,0.89523 H 54.08424 c -0.186507,0 -0.317062,0.0933 -0.391665,0.27976 l -2.182136,7.88927 c -0.111905,0.55952 -0.447618,0.83928 -1.00714,0.83928 l -4.58808,-0.0559 c -0.261111,0 -0.447618,-0.0746 -0.559522,-0.22381 -0.111905,-0.18651 -0.130555,-0.42897 -0.05595,-0.72738 l 2.070232,-7.66545 c 0.111905,-0.22381 0.01865,-0.33572 -0.279761,-0.33572 h -6.322599 c -0.186507,0 -0.335713,0.0932 -0.447617,0.27976 l -2.126184,7.88927 c -0.186507,0.55952 -0.540871,0.83928 -1.063092,0.83928 l -4.532128,-0.0559 c -0.298412,0 -0.50357,-0.0746 -0.615475,-0.22381 -0.111904,-0.18651 -0.130554,-0.42897 -0.05595,-0.72738 l 2.126184,-7.66545 c 0.0746,-0.22381 -0.0373,-0.33572 -0.335713,-0.33572 h -2.79761 c -0.596824,0 -0.857934,-0.29841 -0.783331,-0.89523 l 0.50357,-3.7488 c 0.0746,-0.59682 0.391665,-0.89523 0.951187,-0.89523 h 3.69284 c 0.149206,0 0.298412,-0.11191 0.447618,-0.33572 l 1.79047,-6.60236 c 0.0373,-0.1119 0.01865,-0.1865 -0.05595,-0.22381 -0.0746,-0.0746 -0.149206,-0.1119 -0.223809,-0.1119 l 1.56666,-5.59522 c 0.186507,0 0.335713,-0.0932 0.447618,-0.27976 l 2.126183,-7.88926 c 0.111905,-0.55953 0.466269,-0.83929 1.063092,-0.83929 l 4.532129,0.056 c 0.298411,0 0.503569,0.0932 0.615474,0.27976 0.111904,0.14921 0.130554,0.37301 0.05595,0.67142 l -2.126184,7.66546 c -0.0373,0.1119 -0.01865,0.20515 0.05595,0.27976 0.0746,0.0373 0.149205,0.0559 0.223808,0.0559 1.767431,1.78555 3.939198,1.42879 6.378551,0 0.186507,0 0.317063,-0.0932 0.391666,-0.27976 l 2.182136,-7.88926 c 0.0746,-0.26111 0.186507,-0.46627 0.335713,-0.61548 0.186507,-0.14921 0.410316,-0.22381 0.671426,-0.22381 l 4.588081,0.056 c 0.26111,0 0.447617,0.0932 0.559522,0.27976 0.111904,0.14921 0.130554,0.37301 0.05595,0.67142 l -2.070231,7.66546 c -0.0373,0.22381 0.05595,0.33571 0.279761,0.33571 z m -8.952352,7.27379 c 0.186507,0 0.317062,-0.11191 0.391665,-0.33572 l 1.79047,-6.60236 c 0.111905,-0.22381 0.01865,-0.33571 -0.279761,-0.33571 -1.597017,-1.32342 -3.86581,-0.83935 -6.266646,0 -0.186507,0 -0.335713,0.0933 -0.447618,0.27976 l -1.846422,6.65831 c -0.0373,0.22381 0.05595,0.33572 0.279761,0.33572 z"
         style="font-style:italic;font-weight:600;-inkscape-font-specification:'Barlow Semi-Bold Italic'"
         id="path3781" />
    </g>
    <g
       aria-label="#"
       id="g836"
       style="font-size:55.9522px;line-height:1.25;font-family:Barlow;-inkscape-font-specification:'Barlow, Normal';font-variant-ligatures:none;display:inline;fill:#ffcc00;fill-opacity:1;stroke-width:2.33134"
       transform="translate(-232.22406,-16.721138)">
      <path
         d="m 30.615167,73.911636 c -0.111905,0.596823 -0.447618,0.895235 -1.00714,0.895235 H 2.7509705 c -0.5968235,0 -0.8579337,-0.298412 -0.7833308,-0.895235 l 0.5035698,-3.80475 c 0.037301,-0.26111 0.130555,-0.466268 0.279761,-0.615474 0.1865073,-0.186507 0.4103161,-0.279761 0.6714264,-0.279761 l 26.9130031,-6e-6 c 0.559522,0 0.820632,0.298412 0.783331,0.895235 z"
         style="font-style:italic;font-weight:600;-inkscape-font-specification:'Barlow Semi-Bold Italic';fill:#ffcc00;fill-opacity:1"
         id="path834" />
    </g>
  </g>
</svg>
