<?xml version="1.0" encoding="UTF-8" standalone="no"?>
<!-- Created with Inkscape (http://www.inkscape.org/) -->

<svg
   width="292.26923mm"
   height="45.383389mm"
   viewBox="0 0 292.26923 45.383389"
   version="1.1"
   id="svg14359"
   sodipodi:docname="logo-red.svg"
   inkscape:version="1.1.1 (3bf5ae0d25, 2021-09-20)"
   xmlns:inkscape="http://www.inkscape.org/namespaces/inkscape"
   xmlns:sodipodi="http://sodipodi.sourceforge.net/DTD/sodipodi-0.dtd"
   xmlns="http://www.w3.org/2000/svg"
   xmlns:svg="http://www.w3.org/2000/svg">
  <sodipodi:namedview
     id="namedview16"
     pagecolor="#ffffff"
     bordercolor="#666666"
     borderopacity="1.0"
     inkscape:pageshadow="2"
     inkscape:pageopacity="0.0"
     inkscape:pagecheckerboard="0"
     inkscape:document-units="mm"
     showgrid="false"
     inkscape:zoom="1.0709375"
     inkscape:cx="907.61596"
     inkscape:cy="85.439157"
     inkscape:window-width="1879"
     inkscape:window-height="1174"
     inkscape:window-x="41"
     inkscape:window-y="0"
     inkscape:window-maximized="1"
     inkscape:current-layer="svg14359" />
  <defs
     id="defs14356" />
  <path
     id="path92707"
     clip-path="none"
     style="fill:#ff2a2a;fill-opacity:1;stroke-width:0.466553;stroke-linejoin:bevel"
     d="M 37.59355,45.3834 A -26.591318,-26.591318 0 0 0 40.16136,10.75296 -26.591318,-26.591318 0 0 0 2.96259,5.23185 -26.591318,-26.591318 0 0 0 -10e-6,7.78983 l 9.59321,9.59321 h 1.61695 c 0.18651,0 0.3171,-0.0936 0.39172,-0.28008 L 13.78415,9.21352 C 13.89604,8.654 14.2318,8.37429 14.79134,8.37429 l 4.58782,0.0563 c 0.26112,0 0.44776,0.0745 0.55965,0.22376 0.11192,0.18651 0.13046,0.42867 0.0558,0.72708 l -2.07016,7.66569 c -0.11192,0.2238 -0.0189,0.33538 0.27956,0.33538 h 6.32262 c 0.1865,0 0.33612,-0.0931 0.44802,-0.27957 l 2.12598,-7.88944 c 0.1865,-0.55952 0.54075,-0.83923 1.06299,-0.83923 l 4.53202,0.0558 c 0.29839,0 0.50355,0.0751 0.61547,0.22428 0.11189,0.18651 0.13089,0.42867 0.0563,0.72708 l -2.12648,7.66569 c -0.0746,0.2238 0.0375,0.33538 0.33592,0.33538 h 2.79775 c 0.59682,0 0.85802,0.29872 0.78341,0.89555 l -0.50385,3.74861 c -0.0746,0.59681 -0.39185,0.89503 -0.95136,0.89503 h -3.69279 c -0.1492,0 -0.29832,0.11209 -0.44752,0.3359 l -1.79059,6.60218 c -0.0373,0.11191 -0.0183,0.18698 0.0563,0.22428 0.0746,0.0746 0.14915,0.11162 0.22376,0.11162 h 2.74143 c 0.59682,0 0.85801,0.29821 0.78343,0.89503 l -0.50385,3.80494 c -0.0373,0.26111 -0.13041,0.46626 -0.27958,0.61546 -0.18651,0.18651 -0.41016,0.28009 -0.67128,0.28009 H 28.00132 Z M 21.59608,29.38593 23.29571,23.25762 c 0.0373,-0.22381 -0.0558,-0.33538 -0.27956,-0.33538 h -6.37842 c -0.1865,0 -0.3171,0.11157 -0.39171,0.33538 l -0.16587,0.61237 z" />
  <g
     aria-label="#"
     id="g92711"
     style="font-size:55.9522px;line-height:1.25;font-family:Barlow;-inkscape-font-specification:'Barlow, Normal';font-variant-ligatures:none;fill:#ff2a2a;fill-opacity:1;stroke-width:2.33134"
     clip-path="none"
     transform="rotate(180,104.74091,97.982991)">
    <path
       id="path92709"
       style="font-style:italic;font-weight:600;-inkscape-font-specification:'Barlow Semi-Bold Italic';fill:#ff2a2a;fill-opacity:1;stroke-width:8.81136"
       d="m 1345.418,279.71875 c -0.9869,0 -1.8342,0.28373 -2.5391,0.84766 -0.5639,0.56393 -0.9856,1.33931 -1.2676,2.32617 l -8.248,29.8164 c -0.282,0.70491 -0.7756,1.0586 -1.4805,1.0586 h -24.1074 c -0.282,0 -0.5637,-0.072 -0.8457,-0.21289 -0.2817,-0.28196 -0.3538,-0.63369 -0.2129,-1.05664 l 8.0371,-28.97266 c 0.2819,-1.12786 0.212,-1.97318 -0.2109,-2.53711 -0.423,-0.70491 -1.1984,-1.05664 -2.3262,-1.05664 l -17.1309,-0.21094 c -2.2557,0 -3.5946,1.05716 -4.0175,3.17188 l -8.0352,29.8164 c -0.4229,0.70491 -0.9884,1.0586 -1.6934,1.0586 h -5.7246 l 24.2032,24.20312 0.5546,-2 c 0.423,-0.7049 0.9865,-1.05664 1.6915,-1.05664 h 23.6855 c 1.1278,0 1.4796,0.42363 1.0566,1.26953 l -6.1386,22.63672 24.5215,24.52149 h 8.0527 c 2.1147,0 3.3817,-1.12905 3.8047,-3.38477 l 1.6933,-14.16797 c 0.282,-2.2557 -0.7052,-3.38281 -2.9609,-3.38281 h -10.7852 c -1.1278,0 -1.4796,-0.42365 -1.0566,-1.26953 l 6.9785,-25.16602 c 0.282,-0.7049 0.7736,-1.05664 1.4785,-1.05664 h 14.17 c 2.1147,0 3.3836,-1.12711 3.8066,-3.38281 l 1.9023,-14.38086 c 0.141,-2.25572 -0.8442,-3.38477 -2.9589,-3.38477 h -10.9981 c -0.8458,0 -1.1975,-0.42169 -1.0566,-1.26757 l 7.8242,-28.97266 c 0.2818,-1.12786 0.212,-1.97318 -0.211,-2.53711 -0.4229,-0.70491 -1.1283,-1.05664 -2.1152,-1.05664 z"
       transform="matrix(0.26458333,0,0,0.26458333,-156.02499,77.15778)" />
  </g>
  <path
     d="m 62.477535,44.965611 q -0.731113,0 -0.940002,-0.67889 L 50.727517,9.3500009 q -0.05222,-0.1044446 -0.05222,-0.3133338 0,-0.6266676 0.731112,-0.6266676 h 4.752229 q 0.731112,0 0.940002,0.6788899 l 7.7289,26.9989296 q 0.104445,0.208889 0.208889,0.208889 0.156667,0 0.20889,-0.208889 L 72.921995,9.1411117 q 0.156667,-0.7311122 0.940001,-0.7311122 h 4.647785 q 0.417779,0 0.574446,0.2611115 0.208889,0.2611115 0.104444,0.6788899 L 68.221988,44.286721 q -0.208889,0.67889 -0.940002,0.67889 z"
     style="font-weight:600;font-size:52.2223px;line-height:1.25;font-family:Barlow;-inkscape-font-specification:'Barlow Semi-Bold';font-variant-ligatures:none;fill:#d40000;stroke-width:2.17593"
     id="path851" />
  <path
     d="m 93.079678,40.265603 q 1.932225,-0.05222 3.342227,-0.783334 1.462224,-0.783335 2.350004,-2.088892 0.261111,-0.417779 0.678889,-0.417779 0.261112,0 0.470001,0.156667 l 2.506671,1.984448 q 0.36556,0.365556 0.36556,0.67889 0,0.208889 -0.15667,0.47 -1.51445,2.402226 -4.125563,3.760006 -2.611115,1.35778 -6.005565,1.35778 -4.125561,0 -6.945566,-1.932225 -2.767782,-1.984448 -4.021117,-5.483342 -1.044446,-2.872226 -1.044446,-6.475565 0,-3.603339 0.574445,-5.535564 0.992224,-3.707784 3.916673,-5.90112 2.924449,-2.193337 7.102233,-2.193337 9.765566,0 11.436686,10.705572 0.26111,1.723336 0.36555,4.282229 0,0.835556 -0.83555,0.835556 H 86.865224 q -0.313334,0 -0.313334,0.313334 0,1.410002 0.313334,2.297781 0.574445,1.880003 2.193336,2.924449 1.618892,1.044446 4.021118,1.044446 z M 92.035232,23.084466 q -1.984448,0 -3.290005,0.992224 -1.253336,0.940001 -1.723336,2.663337 -0.365556,1.044446 -0.417779,2.193337 -0.05222,0.313334 0.261112,0.313334 h 10.496682 q 0.313334,0 0.313334,-0.313334 -0.208889,-1.566669 -0.313334,-1.880003 -0.47,-1.82778 -1.880002,-2.872226 -1.35778,-1.096669 -3.446672,-1.096669 z"
     style="font-weight:600;font-size:52.2223px;line-height:1.25;font-family:Barlow;-inkscape-font-specification:'Barlow Semi-Bold';font-variant-ligatures:none;fill:#d40000;stroke-width:2.17593"
     id="path853" />
  <path
     d="m 121.85416,17.966681 q 1.51444,0 2.76778,0.574445 0.62667,0.313334 0.47,1.044446 l -0.83556,4.334451 q -0.0522,0.417778 -0.31333,0.522223 -0.20889,0.104445 -0.67889,0 -0.62667,-0.208889 -1.67112,-0.208889 -0.62666,0 -0.99222,0.05222 -2.19334,0.104445 -3.65556,1.566669 -1.46222,1.410002 -1.46222,3.707784 v 14.570022 q 0,0.835557 -0.83556,0.835557 h -4.38667 q -0.83556,0 -0.83556,-0.835557 V 19.115571 q 0,-0.835557 0.83556,-0.835557 h 4.38667 q 0.83556,0 0.83556,0.835557 v 2.03667 q 0,0.208889 0.10444,0.261112 0.10444,0.05222 0.20889,-0.156667 2.19334,-3.290005 6.05779,-3.290005 z"
     style="font-weight:600;font-size:52.2223px;line-height:1.25;font-family:Barlow;-inkscape-font-specification:'Barlow Semi-Bold';font-variant-ligatures:none;fill:#d40000;stroke-width:2.17593"
     id="path855" />
  <path
     d="m 132.50748,14.937787 q -1.72334,0 -2.82001,-1.044446 -1.09667,-1.096668 -1.09667,-2.767782 0,-1.6711135 1.09667,-2.7155595 1.09667,-1.0444461 2.82001,-1.0444461 1.72333,0 2.76778,1.0444461 1.09667,1.044446 1.09667,2.7155595 0,1.671114 -1.09667,2.767782 -1.04445,1.044446 -2.76778,1.044446 z m -2.19334,30.027824 q -0.83556,0 -0.83556,-0.835557 V 19.115571 q 0,-0.835557 0.83556,-0.835557 h 4.38667 q 0.83556,0 0.83556,0.835557 v 25.014483 q 0,0.835557 -0.83556,0.835557 z"
     style="font-weight:600;font-size:52.2223px;line-height:1.25;font-family:Barlow;-inkscape-font-specification:'Barlow Semi-Bold';font-variant-ligatures:none;fill:#d40000;stroke-width:2.17593"
     id="path857" />
  <path
     d="m 162.84859,9.2455563 q 0,-0.8355568 0.83556,-0.8355568 h 4.38667 q 0.83556,0 0.83556,0.8355568 V 44.130054 q 0,0.835557 -0.83556,0.835557 h -4.38667 q -0.83556,0 -0.83556,-0.835557 V 29.455587 q 0,-0.313334 -0.31334,-0.313334 h -13.21224 q -0.31333,0 -0.31333,0.313334 v 14.674467 q 0,0.835557 -0.83556,0.835557 h -4.38667 q -0.83556,0 -0.83556,-0.835557 V 9.2455563 q 0,-0.8355568 0.83556,-0.8355568 h 4.38667 q 0.83556,0 0.83556,0.8355568 V 23.606689 q 0,0.313334 0.31333,0.313334 h 13.21224 q 0.31334,0 0.31334,-0.313334 z"
     style="font-weight:600;font-size:52.2223px;line-height:1.25;font-family:Barlow;-inkscape-font-specification:'Barlow Semi-Bold';font-variant-ligatures:none;fill:#d40000;stroke-width:2.17593"
     id="path859" />
  <path
     d="m 185.82636,17.862236 q 3.29,0 5.79667,1.148891 2.5589,1.14889 3.91668,3.18556 1.35778,1.984448 1.35778,4.54334 v 17.390027 q 0,0.835557 -0.83556,0.835557 h -4.38667 q -0.83556,0 -0.83556,-0.835557 v -1.305558 q 0,-0.208889 -0.10444,-0.208889 -0.10445,-0.05222 -0.26112,0.05222 -2.82,2.71556 -7.52001,2.71556 -3.86445,0 -6.37112,-1.984448 -2.45445,-1.984447 -2.45445,-5.90112 0,-4.073339 2.82001,-6.318898 2.87222,-2.297781 8.04223,-2.297781 h 5.53557 q 0.31333,0 0.31333,-0.313334 v -1.201113 q 0,-2.03667 -1.25334,-3.133338 -1.20111,-1.148891 -3.60333,-1.148891 -1.82778,0 -3.0289,0.67889 -1.20111,0.626668 -1.61889,1.775558 -0.20889,0.731113 -0.94,0.67889 l -4.70001,-0.574445 q -0.41778,-0.05222 -0.62666,-0.208889 -0.20889,-0.208889 -0.15667,-0.470001 0.47,-3.133338 3.44667,-5.117786 3.02889,-1.984447 7.46779,-1.984447 z m -1.20111,22.716701 q 2.55889,0 4.38667,-1.35778 1.82778,-1.357779 1.82778,-3.446672 V 33.37226 q 0,-0.313334 -0.31333,-0.313334 h -4.33445 q -2.76779,0 -4.38668,1.044446 -1.61889,1.044446 -1.61889,2.976671 0,1.671114 1.25334,2.611115 1.25333,0.887779 3.18556,0.887779 z"
     style="font-weight:600;font-size:52.2223px;line-height:1.25;font-family:Barlow;-inkscape-font-specification:'Barlow Semi-Bold';font-variant-ligatures:none;fill:#d40000;stroke-width:2.17593"
     id="path861" />
  <path
     d="m 212.87748,45.278944 q -3.29001,0 -5.79668,-0.940001 -2.45444,-0.992224 -3.81222,-2.663337 -1.35778,-1.723336 -1.35778,-3.812228 v -0.261112 q 0,-0.835557 0.83555,-0.835557 h 4.17779 q 0.83555,0 0.83555,0.365556 v 0.365556 q 0,1.305558 1.41001,2.297782 1.46222,0.940001 3.65556,0.940001 2.08889,0 3.39445,-0.835557 1.30555,-0.887779 1.30555,-2.193336 0,-1.201113 -1.09666,-1.775559 -1.04445,-0.626667 -3.44668,-1.305557 l -1.98444,-0.626668 q -2.66334,-0.783334 -4.49112,-1.671113 -1.82778,-0.88778 -3.08112,-2.402226 -1.25333,-1.566669 -1.25333,-3.968895 0,-3.655561 2.82,-5.796676 2.87223,-2.193336 7.57224,-2.193336 3.18556,0 5.58778,1.044446 2.40223,0.992223 3.70779,2.820004 1.35778,1.775558 1.35778,4.073339 0,0.261112 -0.26112,0.470001 -0.20889,0.156667 -0.57444,0.156667 h -4.02112 q -0.83556,0 -0.83556,-0.313334 V 25.90447 q 0,-1.357779 -1.35778,-2.245559 -1.30555,-0.940001 -3.60333,-0.940001 -2.03667,0 -3.34223,0.783335 -1.25334,0.731112 -1.25334,2.088892 0,1.253335 1.20112,1.932225 1.20111,0.626667 4.02111,1.410002 l 1.20112,0.313334 q 2.82,0.835557 4.7,1.671113 1.88001,0.835557 3.18556,2.402226 1.30556,1.566669 1.30556,4.021117 0,3.707784 -2.92445,5.848898 -2.92445,2.088892 -7.78112,2.088892 z"
     style="font-weight:600;font-size:52.2223px;line-height:1.25;font-family:Barlow;-inkscape-font-specification:'Barlow Semi-Bold';font-variant-ligatures:none;fill:#d40000;stroke-width:2.17593"
     id="path863" />
  <path
     d="m 241.49527,17.862236 q 4.28223,0 6.7889,2.506671 2.5589,2.50667 2.5589,6.841121 v 16.920026 q 0,0.835557 -0.83556,0.835557 h -4.38667 q -0.83556,0 -0.83556,-0.835557 V 28.463363 q 0,-2.402226 -1.41,-3.86445 -1.35778,-1.514447 -3.60334,-1.514447 -2.24556,0 -3.65556,1.462225 -1.35778,1.462224 -1.35778,3.86445 v 15.718913 q 0,0.835557 -0.83556,0.835557 h -4.38667 q -0.83556,0 -0.83556,-0.835557 V 9.2455563 q 0,-0.8355568 0.83556,-0.8355568 h 4.38667 q 0.83556,0 0.83556,0.8355568 V 20.525573 q 0,0.20889 0.10444,0.261112 0.10445,0.05222 0.20889,-0.104445 2.19334,-2.820004 6.42334,-2.820004 z"
     style="font-weight:600;font-size:52.2223px;line-height:1.25;font-family:Barlow;-inkscape-font-specification:'Barlow Semi-Bold';font-variant-ligatures:none;fill:#d40000;stroke-width:2.17593"
     id="path865" />
  <path
     d="m 258.90637,45.082829 q -1.16469,0 -1.95368,-0.751416 -0.75141,-0.751417 -0.75141,-1.878541 0,-1.051982 0.82655,-1.803398 0.82656,-0.751416 1.87854,-0.751416 1.05199,0 1.87854,0.751416 0.86413,0.751416 0.86413,1.803398 0,1.089554 -0.78898,1.878541 -0.78899,0.751416 -1.95369,0.751416 z"
     style="font-weight:500;font-size:37.5708px;line-height:1.25;font-family:Barlow;-inkscape-font-specification:'Barlow Medium';font-variant-ligatures:none;fill:#ff5555;stroke-width:2.17593"
     id="path894" />
  <path
     d="m 268.78749,23.10391 q -1.08955,0 -1.8034,-0.638704 -0.67627,-0.676274 -0.67627,-1.728256 0,-1.051983 0.67627,-1.690686 0.71385,-0.676275 1.8034,-0.676275 1.08955,0 1.76583,0.676275 0.67627,0.638703 0.67627,1.690686 0,1.051982 -0.67627,1.728256 -0.67628,0.638704 -1.76583,0.638704 z m -1.23983,21.978919 q -0.263,0 -0.41328,-0.150284 -0.15029,-0.150283 -0.15029,-0.413278 V 26.522853 q 0,-0.262996 0.15029,-0.413279 0.15028,-0.150283 0.41328,-0.150283 h 2.47967 q 0.26299,0 0.41328,0.150283 0.15028,0.150283 0.15028,0.413279 v 17.996414 q 0,0.262995 -0.15028,0.413278 -0.15029,0.150284 -0.41328,0.150284 z"
     style="font-weight:500;font-size:37.5708px;line-height:1.25;font-family:Barlow;-inkscape-font-specification:'Barlow Medium';font-variant-ligatures:none;fill:#ff5555;stroke-width:2.17593"
     id="path896" />
  <path
     d="m 283.96608,45.383395 q -2.81781,0 -4.88421,-1.39012 -2.02882,-1.42769 -2.85538,-3.944934 -0.67627,-2.028823 -0.67627,-4.583637 0,-2.667527 0.6387,-4.508497 0.82656,-2.479672 2.89295,-3.869792 2.0664,-1.42769 4.92178,-1.42769 2.70509,0 4.69635,1.42769 2.02882,1.39012 2.89295,3.832222 0.67627,1.91611 0.67627,4.508496 0,2.629956 -0.67627,4.621208 -0.82656,2.517244 -2.85538,3.944934 -2.02883,1.39012 -4.77149,1.39012 z m 0,-3.118377 q 1.50283,0 2.62995,-0.826557 1.12713,-0.864129 1.61555,-2.404531 0.41327,-1.427691 0.41327,-3.531656 0,-2.103965 -0.3757,-3.494084 -0.48842,-1.540403 -1.61555,-2.366961 -1.12712,-0.864128 -2.74267,-0.864128 -1.5404,0 -2.66752,0.864128 -1.12713,0.826558 -1.61555,2.366961 -0.41328,1.314978 -0.41328,3.494084 0,2.179107 0.41328,3.531656 0.45085,1.540402 1.57798,2.404531 1.16469,0.826557 2.78024,0.826557 z"
     style="font-weight:500;font-size:37.5708px;line-height:1.25;font-family:Barlow;-inkscape-font-specification:'Barlow Medium';font-variant-ligatures:none;fill:#ff5555;stroke-width:2.17593"
     id="path898" />
</svg>
