<?xml version="1.0" encoding="UTF-8" standalone="no"?>
<!-- Created with Inkscape (http://www.inkscape.org/) -->

<svg
   width="16.83712mm"
   height="13.22917mm"
   viewBox="0 0 16.83712 13.22917"
   version="1.1"
   id="svg946"
   xmlns="http://www.w3.org/2000/svg"
   xmlns:svg="http://www.w3.org/2000/svg">
  <defs
     id="defs943" />
  <g
     id="layer1"
     transform="translate(143.54434,-208.29535)">
    <path
       d="m -127.90987,220.0212 v -7.2159 q -0.30066,0.33824 -0.6483,0.62012 -2.51806,1.93551 -4.00258,3.17575 -0.47918,0.40401 -0.77985,0.62951 -0.30066,0.2255 -0.81272,0.45569 -0.51207,0.23019 -0.96306,0.23019 h -0.009 -0.009 q -0.451,0 -0.96307,-0.23019 -0.51206,-0.23019 -0.81272,-0.45569 -0.30067,-0.2255 -0.77985,-0.62951 -1.48452,-1.24024 -4.00257,-3.17575 -0.34765,-0.28188 -0.64831,-0.62012 v 7.2159 q 0,0.12215 0.0893,0.21141 0.0893,0.0893 0.2114,0.0893 h 13.8305 q 0.12214,0 0.2114,-0.0893 0.0893,-0.0893 0.0893,-0.21141 z m 0,-9.87489 v -0.10335 -0.12685 q 0,0 -0.005,-0.12214 -0.005,-0.12214 -0.0282,-0.11745 -0.0235,0.005 -0.0517,-0.0846 -0.0282,-0.0893 -0.0846,-0.0705 -0.0564,0.0188 -0.13154,-0.0235 h -13.8305 q -0.12214,0 -0.2114,0.0893 -0.0893,0.0893 -0.0893,0.2114 0,1.57848 1.38117,2.66838 1.81338,1.42815 3.76768,2.97844 0.0564,0.047 0.32885,0.27718 0.27248,0.23019 0.43221,0.35234 0.15972,0.12214 0.41811,0.29596 0.25838,0.17382 0.47448,0.25838 0.2161,0.0846 0.40402,0.0846 h 0.009 0.009 q 0.18792,0 0.40402,-0.0846 0.2161,-0.0846 0.47448,-0.25838 0.25838,-0.17382 0.41811,-0.29596 0.15973,-0.12215 0.43221,-0.35234 0.27247,-0.2302 0.32885,-0.27718 1.9543,-1.55029 3.76768,-2.97844 0.50737,-0.40402 0.94426,-1.0852 0.43691,-0.68119 0.43691,-1.23554 z m 1.20265,-0.34764 v 10.22253 q 0,0.62012 -0.4416,1.06172 -0.4416,0.4416 -1.06171,0.4416 h -13.8305 q -0.62011,0 -1.06171,-0.4416 -0.4416,-0.4416 -0.4416,-1.06172 v -10.22253 q 0,-0.62012 0.4416,-1.06172 0.4416,-0.4416 1.06171,-0.4416 h 13.8305 q 0.62011,0 1.06171,0.4416 0.4416,0.4416 0.4416,1.06172 z"
       id="path2993"
       style="fill:#1d2021;fill-opacity:1;stroke-width:0.264583" />
  </g>
</svg>
