<?xml version="1.0" encoding="UTF-8" standalone="no"?>
<!-- Created with Inkscape (http://www.inkscape.org/) -->

<svg
   width="13.56443mm"
   height="13.229165mm"
   viewBox="0 0 13.56443 13.229165"
   version="1.1"
   id="svg1213"
   xmlns="http://www.w3.org/2000/svg"
   xmlns:svg="http://www.w3.org/2000/svg">
  <defs
     id="defs1210" />
  <g
     id="layer1"
     transform="translate(-73.92431,-212.44598)">
    <path
       d="m 80.70566,212.44598 c -3.74456,0 -6.78135,3.03636 -6.78135,6.78219 0,2.9964 1.94305,5.53816 4.63803,6.43496 0.33932,0.0624 0.46297,-0.14697 0.46297,-0.32683 0,-0.16113 -0.006,-0.58746 -0.009,-1.15327 -1.88643,0.40969 -2.28446,-0.90928 -2.28446,-0.90928 -0.30851,-0.78356 -0.75316,-0.99214 -0.75316,-0.99214 -0.61577,-0.42051 0.0466,-0.41218 0.0466,-0.41218 0.68072,0.0479 1.03877,0.69903 1.03877,0.69903 0.60494,1.03628 1.58751,0.73693 1.97387,0.56331 0.0616,-0.43798 0.2369,-0.73692 0.4305,-0.90637 -1.50591,-0.17112 -3.08925,-0.75316 -3.08925,-3.35196 0,-0.74025 0.26437,-1.34603 0.6982,-1.81982 -0.07,-0.17154 -0.30268,-0.86141 0.0666,-1.79485 0,0 0.56914,-0.18235 1.86478,0.69529 0.54083,-0.15071 1.12121,-0.22565 1.69784,-0.22856 0.57621,0.002 1.15618,0.0779 1.69784,0.22856 1.29483,-0.87764 1.86313,-0.69529 1.86313,-0.69529 0.37013,0.93344 0.13739,1.62331 0.0679,1.79485 0.43466,0.47379 0.69695,1.07957 0.69695,1.81982 0,2.60546 -1.58584,3.17877 -3.09632,3.34655 0.24315,0.20941 0.46005,0.62327 0.46005,1.25569 0,0.90679 -0.008,1.6383 -0.008,1.86062 0,0.18152 0.1224,0.39261 0.4663,0.32641 2.69288,-0.89888 4.63429,-3.43898 4.63429,-6.43454 0,-3.74583 -3.03679,-6.78219 -6.78261,-6.78219"
       style="fill:#cc241d"
       id="path79179" />
  </g>
</svg>
