<?xml version="1.0" encoding="UTF-8" standalone="no"?>
<!-- Created with Inkscape (http://www.inkscape.org/) -->

<svg
   width="100"
   height="100"
   viewBox="0 0 26.458334 26.458334"
   version="1.1"
   id="svg1473"
   xmlns="http://www.w3.org/2000/svg"
   xmlns:svg="http://www.w3.org/2000/svg">
  <defs
     id="defs938" />
  <path
     d="M 21.9168,26.458334 A 15.502565,15.502634 0 0 0 23.413815,6.2689324 15.502565,15.502634 0 0 0 1.7271763,3.0501343 15.502565,15.502634 0 0 0 0,4.5414381 l 5.5927772,5.5927999 h 0.9426725 c 0.1087374,0 0.1848603,-0.05459 0.2283687,-0.1632017 L 8.0360706,5.371537 C 8.1013117,5.0453358 8.2970537,4.8822567 8.6232596,4.8822567 l 2.6746674,0.032817 c 0.152221,0 0.261044,0.043429 0.326273,0.130397 0.06526,0.1088054 0.07606,0.2499247 0.03251,0.423904 l -1.206888,4.4690592 c -0.06524,0.1303971 -0.01098,0.1956021 0.16298,0.1956021 h 3.686048 c 0.108737,0 0.195956,-0.05423 0.261191,-0.1629997 L 15.79947,5.3715125 c 0.108744,-0.3262012 0.315257,-0.489262 0.619718,-0.489262 l 2.642139,0.032633 c 0.17396,0 0.293567,0.043797 0.358814,0.1308019 0.06522,0.1087992 0.0763,0.2499001 0.03282,0.4238795 l -1.239726,4.4690592 c -0.04349,0.1304029 0.02184,0.1956019 0.19584,0.1956019 h 1.631066 c 0.347945,0 0.500221,0.1742 0.456725,0.522116 l -0.293745,2.185423 c -0.04349,0.34794 -0.228442,0.521797 -0.554636,0.521797 h -2.152879 c -0.08697,0 -0.173917,0.0654 -0.260897,0.195804 l -1.043902,3.849038 c -0.02171,0.0652 -0.01061,0.109002 0.03282,0.130802 0.04349,0.04343 0.08696,0.065 0.130439,0.065 h 1.598238 c 0.347938,0 0.500209,0.173802 0.456731,0.521803 l -0.293745,2.21826 c -0.02171,0.152197 -0.07602,0.271823 -0.162999,0.358822 -0.108737,0.108799 -0.239121,0.163195 -0.391349,0.163195 h -1.236405 z m -9.326422,-9.326457 0.990874,-3.572781 c 0.02171,-0.130403 -0.03251,-0.195601 -0.162981,-0.195601 H 9.6996962 c -0.1087435,0 -0.1848602,0.065 -0.2283687,0.195601 l -0.096721,0.357 z"
     style="fill:#eef9fe;fill-opacity:1"
     id="path940" />
  <path
     d="m 5.5568791,26.117819 c 0.1522297,0 0.2829261,-0.04377 0.3916571,-0.130753 0.086982,-0.08699 0.1520292,-0.206589 0.1955278,-0.358814 l 1.272257,-4.59921 C 7.45982,20.920309 7.5359575,20.865751 7.6446886,20.865751 h 3.7185754 c 0.0435,0 0.08695,0.01111 0.130449,0.03284 0.04345,0.04349 0.05457,0.09775 0.03284,0.162988 l -1.239725,4.469063 c -0.04348,0.173973 -0.0327,0.304365 0.03253,0.391352 0.06525,0.108733 0.184854,0.162987 0.358817,0.162987 l 2.642448,0.03254 c 0.347942,0 0.554468,-0.163068 0.619701,-0.489266 l 1.239432,-4.59921 c 0.06523,-0.108733 0.152461,-0.163291 0.261208,-0.163291 h 0.883021 l -3.733352,-3.733356 -0.08555,0.308502 c -0.06525,0.108732 -0.152168,0.162988 -0.260915,0.162988 H 8.5906752 c -0.1739635,0 -0.2282288,-0.06534 -0.1629809,-0.195826 L 9.3745756,13.916321 5.5921254,10.133856 H 4.3499935 c -0.3261933,0 -0.5216285,0.174157 -0.5868764,0.522104 L 3.501925,12.841384 c -0.043499,0.347944 0.1087774,0.521802 0.4567199,0.521802 h 1.663621 c 0.1739635,0 0.2282288,0.06535 0.1629809,0.195826 l -1.0764361,3.881885 c -0.043499,0.108732 -0.1193281,0.162988 -0.2280592,0.162988 H 2.2950239 c -0.3261932,0 -0.5219215,0.173858 -0.5871694,0.521802 L 1.414424,20.34395 c -0.021749,0.347947 0.1302182,0.522104 0.4564114,0.522104 h 1.6964609 c 0.130465,0 0.1847148,0.06505 0.1629809,0.195524 l -1.2068856,4.469063 c -0.043468,0.173973 -0.032701,0.304365 0.032547,0.391352 0.065233,0.108733 0.1740407,0.162987 0.3262704,0.162987 z"
     style="fill:#eef9fe;fill-opacity:1"
     id="path942" />
</svg>
