<?xml version="1.0" encoding="UTF-8" standalone="no"?>
<!-- Created with Inkscape (http://www.inkscape.org/) -->

<svg
   width="292.2692mm"
   height="45.383404mm"
   viewBox="0 0 292.2692 45.383404"
   version="1.1"
   id="svg1109"
   xmlns="http://www.w3.org/2000/svg"
   xmlns:svg="http://www.w3.org/2000/svg">
  <defs
     id="defs1106" />
  <path
     id="path4581"
     clip-path="none"
     style="fill:#cc241d;fill-opacity:1;stroke-width:0.466553;stroke-linejoin:bevel"
     d="M 37.59356,45.38339 A 26.591318,26.591318 0 0 0 40.16137,10.75295 26.591318,26.591318 0 0 0 2.9626,5.23184 26.591318,26.591318 0 0 0 0,7.78982 l 9.59321,9.59321 h 1.61695 c 0.18651,0 0.3171,-0.0936 0.39172,-0.28008 l 2.18228,-7.88944 c 0.11189,-0.55952 0.44765,-0.83923 1.00719,-0.83923 l 4.58782,0.0563 c 0.26112,0 0.44776,0.0745 0.55965,0.22376 0.11192,0.18651 0.13046,0.42867 0.0558,0.72708 l -2.07016,7.66569 c -0.11192,0.2238 -0.0189,0.33538 0.27956,0.33538 h 6.32262 c 0.1865,0 0.33612,-0.0931 0.44802,-0.27957 l 2.12598,-7.88944 c 0.1865,-0.55952 0.54075,-0.83923 1.06299,-0.83923 l 4.53202,0.0558 c 0.29839,0 0.50355,0.0751 0.61547,0.22428 0.11189,0.18651 0.13089,0.42867 0.0563,0.72708 l -2.12648,7.66569 c -0.0746,0.2238 0.0375,0.33538 0.33592,0.33538 h 2.79775 c 0.59682,0 0.85802,0.29872 0.78341,0.89555 l -0.50385,3.74861 c -0.0746,0.59681 -0.39185,0.89503 -0.95136,0.89503 h -3.69279 c -0.1492,0 -0.29832,0.11209 -0.44752,0.3359 l -1.79059,6.60218 c -0.0373,0.11191 -0.0183,0.18698 0.0563,0.22428 0.0746,0.0746 0.14915,0.11162 0.22376,0.11162 h 2.74143 c 0.59682,0 0.85801,0.29821 0.78343,0.89503 l -0.50385,3.80494 c -0.0373,0.26111 -0.13041,0.46626 -0.27958,0.61546 -0.18651,0.18651 -0.41016,0.28009 -0.67128,0.28009 H 28.00133 Z M 21.59609,29.38592 23.29572,23.25761 c 0.0373,-0.22381 -0.0558,-0.33538 -0.27956,-0.33538 h -6.37842 c -0.1865,0 -0.3171,0.11157 -0.39171,0.33538 l -0.16587,0.61237 z" />
  <g
     aria-label="#"
     id="g4585"
     style="font-size:55.9522px;line-height:1.25;font-family:Barlow;-inkscape-font-specification:'Barlow, Normal';font-variant-ligatures:none;fill:#cc241d;fill-opacity:1;stroke-width:2.33134"
     clip-path="none"
     transform="rotate(180,104.74092,97.982985)">
    <path
       id="path4583"
       style="font-style:italic;font-weight:600;-inkscape-font-specification:'Barlow Semi-Bold Italic';fill:#cc241d;fill-opacity:1;stroke-width:8.81136"
       d="m 1345.418,279.71875 c -0.9869,0 -1.8342,0.28373 -2.5391,0.84766 -0.5639,0.56393 -0.9856,1.33931 -1.2676,2.32617 l -8.248,29.8164 c -0.282,0.70491 -0.7756,1.0586 -1.4805,1.0586 h -24.1074 c -0.282,0 -0.5637,-0.072 -0.8457,-0.21289 -0.2817,-0.28196 -0.3538,-0.63369 -0.2129,-1.05664 l 8.0371,-28.97266 c 0.2819,-1.12786 0.212,-1.97318 -0.2109,-2.53711 -0.423,-0.70491 -1.1984,-1.05664 -2.3262,-1.05664 l -17.1309,-0.21094 c -2.2557,0 -3.5946,1.05716 -4.0175,3.17188 l -8.0352,29.8164 c -0.4229,0.70491 -0.9884,1.0586 -1.6934,1.0586 h -5.7246 l 24.2032,24.20312 0.5546,-2 c 0.423,-0.7049 0.9865,-1.05664 1.6915,-1.05664 h 23.6855 c 1.1278,0 1.4796,0.42363 1.0566,1.26953 l -6.1386,22.63672 24.5215,24.52149 h 8.0527 c 2.1147,0 3.3817,-1.12905 3.8047,-3.38477 l 1.6933,-14.16797 c 0.282,-2.2557 -0.7052,-3.38281 -2.9609,-3.38281 h -10.7852 c -1.1278,0 -1.4796,-0.42365 -1.0566,-1.26953 l 6.9785,-25.16602 c 0.282,-0.7049 0.7736,-1.05664 1.4785,-1.05664 h 14.17 c 2.1147,0 3.3836,-1.12711 3.8066,-3.38281 l 1.9023,-14.38086 c 0.141,-2.25572 -0.8442,-3.38477 -2.9589,-3.38477 h -10.9981 c -0.8458,0 -1.1975,-0.42169 -1.0566,-1.26757 l 7.8242,-28.97266 c 0.2818,-1.12786 0.212,-1.97318 -0.211,-2.53711 -0.4229,-0.70491 -1.1283,-1.05664 -2.1152,-1.05664 z"
       transform="matrix(0.26458333,0,0,0.26458333,-156.02499,77.15778)" />
  </g>
  <path
     d="m 62.47753,44.96563 q -0.731112,0 -0.940001,-0.67889 L 50.727512,9.35003 q -0.05222,-0.10445 -0.05222,-0.31334 0,-0.62667 0.731112,-0.62667 h 4.75223 q 0.731112,0 0.940001,0.67889 l 7.728901,26.99893 q 0.104444,0.20889 0.208889,0.20889 0.156667,0 0.208889,-0.20889 L 72.92199,9.14114 q 0.15667,-0.73112 0.94,-0.73112 h 4.64779 q 0.41777,0 0.57444,0.26112 0.20889,0.26111 0.10445,0.67889 L 68.22198,44.28674 q -0.20889,0.67889 -0.94,0.67889 z"
     style="font-weight:600;font-size:52.2223px;line-height:1.25;font-family:Barlow;-inkscape-font-specification:'Barlow Semi-Bold';font-variant-ligatures:none;fill:#1d2021;fill-opacity:1;stroke-width:2.17593"
     id="path3065" />
  <path
     d="m 93.07967,40.26563 q 1.93223,-0.0522 3.34223,-0.78334 1.46222,-0.78333 2.35,-2.08889 0.26112,-0.41778 0.67889,-0.41778 0.26112,0 0.47,0.15667 l 2.50668,1.98445 q 0.36555,0.36555 0.36555,0.67889 0,0.20889 -0.15667,0.47 -1.51444,2.40222 -4.12556,3.76 -2.61111,1.35778 -6.00556,1.35778 -4.12556,0 -6.94557,-1.93222 -2.76778,-1.98445 -4.02112,-5.48334 -1.04444,-2.87223 -1.04444,-6.47557 0,-3.60334 0.57444,-5.53556 0.99223,-3.70779 3.91668,-5.90112 2.92445,-2.19334 7.10223,-2.19334 9.76557,0 11.43668,10.70557 0.26111,1.72334 0.36556,4.28223 0,0.83556 -0.83556,0.83556 H 86.86522 q -0.31333,0 -0.31333,0.31333 0,1.41 0.31333,2.29778 0.57444,1.88001 2.19334,2.92445 1.61889,1.04445 4.02111,1.04445 z M 92.03523,23.08449 q -1.98445,0 -3.29001,0.99222 -1.25333,0.94001 -1.72333,2.66334 -0.36556,1.04445 -0.41778,2.19334 -0.0522,0.31333 0.26111,0.31333 H 97.3619 q 0.31334,0 0.31334,-0.31333 -0.20889,-1.56667 -0.31334,-1.88 -0.47,-1.82779 -1.88,-2.87223 -1.35778,-1.09667 -3.44667,-1.09667 z"
     style="font-weight:600;font-size:52.2223px;line-height:1.25;font-family:Barlow;-inkscape-font-specification:'Barlow Semi-Bold';font-variant-ligatures:none;fill:#1d2021;fill-opacity:1;stroke-width:2.17593"
     id="path3067" />
  <path
     d="m 121.85415,17.9667 q 1.51445,0 2.76778,0.57445 0.62667,0.31333 0.47,1.04445 l -0.83555,4.33445 q -0.0522,0.41778 -0.31334,0.52222 -0.20889,0.10444 -0.67889,0 -0.62666,-0.20889 -1.67111,-0.20889 -0.62667,0 -0.99222,0.0522 -2.19334,0.10445 -3.65556,1.56667 -1.46223,1.41 -1.46223,3.70779 v 14.57002 q 0,0.83555 -0.83556,0.83555 h -4.38667 q -0.83556,0 -0.83556,-0.83555 V 19.11558 q 0,-0.83556 0.83556,-0.83556 h 4.38667 q 0.83556,0 0.83556,0.83556 v 2.03667 q 0,0.20888 0.10445,0.26111 0.10444,0.0522 0.20888,-0.15667 2.19334,-3.29001 6.05779,-3.29001 z"
     style="font-weight:600;font-size:52.2223px;line-height:1.25;font-family:Barlow;-inkscape-font-specification:'Barlow Semi-Bold';font-variant-ligatures:none;fill:#1d2021;fill-opacity:1;stroke-width:2.17593"
     id="path3069" />
  <path
     d="m 132.50747,14.93781 q -1.72334,0 -2.82,-1.04444 -1.09667,-1.09667 -1.09667,-2.76779 0,-1.67111 1.09667,-2.71556 1.09666,-1.04444 2.82,-1.04444 1.72334,0 2.76778,1.04444 1.09667,1.04445 1.09667,2.71556 0,1.67112 -1.09667,2.76779 -1.04444,1.04444 -2.76778,1.04444 z m -2.19334,30.02782 q -0.83555,0 -0.83555,-0.83555 V 19.1156 q 0,-0.83556 0.83555,-0.83556 h 4.38668 q 0.83555,0 0.83555,0.83556 v 25.01448 q 0,0.83555 -0.83555,0.83555 z"
     style="font-weight:600;font-size:52.2223px;line-height:1.25;font-family:Barlow;-inkscape-font-specification:'Barlow Semi-Bold';font-variant-ligatures:none;fill:#1d2021;fill-opacity:1;stroke-width:2.17593"
     id="path3071" />
  <path
     d="m 162.84858,9.24558 q 0,-0.83556 0.83556,-0.83556 h 4.38667 q 0.83556,0 0.83556,0.83556 v 34.8845 q 0,0.83555 -0.83556,0.83555 h -4.38667 q -0.83556,0 -0.83556,-0.83555 V 29.45561 q 0,-0.31333 -0.31333,-0.31333 h -13.21224 q -0.31334,0 -0.31334,0.31333 v 14.67447 q 0,0.83555 -0.83555,0.83555 h -4.38668 q -0.83555,0 -0.83555,-0.83555 V 9.24558 q 0,-0.83556 0.83555,-0.83556 h 4.38668 q 0.83555,0 0.83555,0.83556 v 14.36113 q 0,0.31334 0.31334,0.31334 h 13.21224 q 0.31333,0 0.31333,-0.31334 z"
     style="font-weight:600;font-size:52.2223px;line-height:1.25;font-family:Barlow;-inkscape-font-specification:'Barlow Semi-Bold';font-variant-ligatures:none;fill:#1d2021;fill-opacity:1;stroke-width:2.17593"
     id="path3073" />
  <path
     d="m 185.82635,17.86226 q 3.29001,0 5.79668,1.14889 2.55889,1.14889 3.91667,3.18556 1.35778,1.98445 1.35778,4.54334 v 17.39003 q 0,0.83555 -0.83555,0.83555 h -4.38668 q -0.83555,0 -0.83555,-0.83555 v -1.30556 q 0,-0.20889 -0.10445,-0.20889 -0.10444,-0.0522 -0.26111,0.0522 -2.82,2.71556 -7.52001,2.71556 -3.86445,0 -6.37112,-1.98444 -2.45445,-1.98445 -2.45445,-5.90112 0,-4.07334 2.82,-6.3189 2.87223,-2.29778 8.04224,-2.29778 h 5.53556 q 0.31334,0 0.31334,-0.31334 V 27.3667 q 0,-2.03667 -1.25334,-3.13334 -1.20111,-1.14889 -3.60334,-1.14889 -1.82778,0 -3.02889,0.67889 -1.20112,0.62667 -1.61889,1.77556 -0.20889,0.73111 -0.94,0.67889 l -4.70001,-0.57445 q -0.41778,-0.0522 -0.62667,-0.20889 -0.20889,-0.20889 -0.15667,-0.47 0.47,-3.13333 3.44668,-5.11778 3.02889,-1.98445 7.46778,-1.98445 z m -1.20111,22.7167 q 2.55889,0 4.38667,-1.35778 1.82779,-1.35778 1.82779,-3.44667 v -2.40223 q 0,-0.31333 -0.31334,-0.31333 h -4.33445 q -2.76778,0 -4.38667,1.04445 -1.61889,1.04444 -1.61889,2.97667 0,1.67111 1.25333,2.61111 1.25334,0.88778 3.18556,0.88778 z"
     style="font-weight:600;font-size:52.2223px;line-height:1.25;font-family:Barlow;-inkscape-font-specification:'Barlow Semi-Bold';font-variant-ligatures:none;fill:#1d2021;fill-opacity:1;stroke-width:2.17593"
     id="path3075" />
  <path
     d="m 212.87748,45.27897 q -3.29001,0 -5.79668,-0.94 -2.45445,-0.99223 -3.81223,-2.66334 -1.35778,-1.72334 -1.35778,-3.81223 v -0.26111 q 0,-0.83556 0.83556,-0.83556 h 4.17778 q 0.83556,0 0.83556,0.36556 v 0.36556 q 0,1.30555 1.41,2.29778 1.46223,0.94 3.65556,0.94 2.08889,0 3.39445,-0.83556 1.30556,-0.88778 1.30556,-2.19334 0,-1.20111 -1.09667,-1.77555 -1.04444,-0.62667 -3.44667,-1.30556 l -1.98445,-0.62667 q -2.66334,-0.78333 -4.49112,-1.67111 -1.82778,-0.88778 -3.08111,-2.40223 -1.25334,-1.56667 -1.25334,-3.96889 0,-3.65556 2.82001,-5.79668 2.87222,-2.19334 7.57223,-2.19334 3.18556,0 5.58779,1.04445 2.40222,0.99222 3.70778,2.82001 1.35778,1.77555 1.35778,4.07333 0,0.26112 -0.26111,0.47001 -0.20889,0.15666 -0.57445,0.15666 h -4.02111 q -0.83556,0 -0.83556,-0.31333 v -0.31334 q 0,-1.35778 -1.35778,-2.24555 -1.30556,-0.94001 -3.60334,-0.94001 -2.03667,0 -3.34223,0.78334 -1.25333,0.73111 -1.25333,2.08889 0,1.25334 1.20111,1.93223 1.20111,0.62666 4.02112,1.41 l 1.20111,0.31333 q 2.82001,0.83556 4.70001,1.67112 1.88,0.83555 3.18556,2.40222 1.30556,1.56667 1.30556,4.02112 0,3.70778 -2.92445,5.8489 -2.92445,2.08889 -7.78112,2.08889 z"
     style="font-weight:600;font-size:52.2223px;line-height:1.25;font-family:Barlow;-inkscape-font-specification:'Barlow Semi-Bold';font-variant-ligatures:none;fill:#1d2021;fill-opacity:1;stroke-width:2.17593"
     id="path3077" />
  <path
     d="m 241.49527,17.86226 q 4.28223,0 6.7889,2.50667 2.55889,2.50667 2.55889,6.84112 v 16.92003 q 0,0.83555 -0.83556,0.83555 h -4.38667 q -0.83556,0 -0.83556,-0.83555 V 28.46339 q 0,-2.40223 -1.41,-3.86445 -1.35778,-1.51445 -3.60334,-1.51445 -2.24556,0 -3.65556,1.46222 -1.35778,1.46223 -1.35778,3.86446 v 15.71891 q 0,0.83555 -0.83555,0.83555 h -4.38668 q -0.83555,0 -0.83555,-0.83555 V 9.24558 q 0,-0.83556 0.83555,-0.83556 h 4.38668 q 0.83555,0 0.83555,0.83556 V 20.5256 q 0,0.20889 0.10445,0.26111 0.10444,0.0522 0.20889,-0.10445 2.19333,-2.82 6.42334,-2.82 z"
     style="font-weight:600;font-size:52.2223px;line-height:1.25;font-family:Barlow;-inkscape-font-specification:'Barlow Semi-Bold';font-variant-ligatures:none;fill:#1d2021;fill-opacity:1;stroke-width:2.17593"
     id="path3079" />
  <path
     d="m 258.90634,45.08282 q -1.1647,0 -1.95368,-0.75141 -0.75142,-0.75142 -0.75142,-1.87854 0,-1.05199 0.82656,-1.8034 0.82656,-0.75142 1.87854,-0.75142 1.05198,0 1.87854,0.75142 0.86413,0.75141 0.86413,1.8034 0,1.08955 -0.78899,1.87854 -0.78899,0.75141 -1.95368,0.75141 z"
     style="font-weight:500;font-size:37.5708px;line-height:1.25;font-family:Barlow;-inkscape-font-specification:'Barlow Medium';font-variant-ligatures:none;fill:#cc241d;stroke-width:2.17593"
     id="path3115" />
  <path
     d="m 268.78746,23.1039 q -1.08956,0 -1.8034,-0.6387 -0.67628,-0.67627 -0.67628,-1.72826 0,-1.05198 0.67628,-1.69068 0.71384,-0.67628 1.8034,-0.67628 1.08955,0 1.76582,0.67628 0.67628,0.6387 0.67628,1.69068 0,1.05199 -0.67628,1.72826 -0.67627,0.6387 -1.76582,0.6387 z m -1.23984,21.97892 q -0.263,0 -0.41328,-0.15028 -0.15028,-0.15028 -0.15028,-0.41328 V 26.52285 q 0,-0.263 0.15028,-0.41328 0.15028,-0.15029 0.41328,-0.15029 h 2.47967 q 0.263,0 0.41328,0.15029 0.15028,0.15028 0.15028,0.41328 v 17.99641 q 0,0.263 -0.15028,0.41328 -0.15028,0.15028 -0.41328,0.15028 z"
     style="font-weight:500;font-size:37.5708px;line-height:1.25;font-family:Barlow;-inkscape-font-specification:'Barlow Medium';font-variant-ligatures:none;fill:#cc241d;stroke-width:2.17593"
     id="path3117" />
  <path
     d="m 283.96604,45.38339 q -2.81781,0 -4.8842,-1.39012 -2.02883,-1.42769 -2.85538,-3.94494 -0.67628,-2.02882 -0.67628,-4.58363 0,-2.66753 0.6387,-4.5085 0.82656,-2.47967 2.89296,-3.86979 2.06639,-1.42769 4.92177,-1.42769 2.7051,0 4.69635,1.42769 2.02882,1.39012 2.89295,3.83222 0.67628,1.91611 0.67628,4.5085 0,2.62995 -0.67628,4.6212 -0.82655,2.51725 -2.85538,3.94494 -2.02882,1.39012 -4.77149,1.39012 z m 0,-3.11838 q 1.50283,0 2.62996,-0.82656 1.12712,-0.86412 1.61554,-2.40453 0.41328,-1.42769 0.41328,-3.53165 0,-2.10397 -0.37571,-3.49409 -0.48842,-1.5404 -1.61554,-2.36696 -1.12713,-0.86413 -2.74267,-0.86413 -1.5404,0 -2.66753,0.86413 -1.12712,0.82656 -1.61554,2.36696 -0.41328,1.31498 -0.41328,3.49409 0,2.1791 0.41328,3.53165 0.45085,1.54041 1.57797,2.40453 1.1647,0.82656 2.78024,0.82656 z"
     style="font-weight:500;font-size:37.5708px;line-height:1.25;font-family:Barlow;-inkscape-font-specification:'Barlow Medium';font-variant-ligatures:none;fill:#cc241d;stroke-width:2.17593"
     id="path3119" />
</svg>
