<?xml version="1.0" encoding="UTF-8" standalone="no"?>
<!-- Created with Inkscape (http://www.inkscape.org/) -->

<svg
   width="61.539185"
   height="50"
   viewBox="0 0 16.282243 13.22927"
   version="1.1"
   id="svg975"
   xmlns="http://www.w3.org/2000/svg"
   xmlns:svg="http://www.w3.org/2000/svg">
  <defs
     id="defs969" />
  <path
     fill="#1d2021"
     d="m 16.282307,1.56628 c -0.5988,0.26585 -1.24295,0.44494 -1.9186,0.52617 0.68968,-0.41355 1.21943,-1.0681 1.46879,-1.84819 -0.6455,0.38278 -1.36042,0.66083 -2.12137,0.81061 C 13.101877,0.40562 12.233597,0 11.272757,0 9.4279565,0 7.9321465,1.49563 7.9321465,3.3405 c 0,0.26155 0.0308,0.51694 0.0868,0.76125 -2.77636,-0.13907 -5.2378,-1.46922 -6.88549,-3.49034 -0.28739997,0.49356 -0.45231997,1.06718 -0.45231997,1.67945 0,1.159 0.58955997,2.18143 1.48613997,2.78047 -0.54771,-0.0185 -1.06268,-0.16739 -1.51309997,-0.41786 -3.1e-4,0.0123 -3.1e-4,0.0308 -3.1e-4,0.0431 0,1.61846 1.15148997,2.96854 2.67972997,3.27563 -0.28001,0.0763 -0.5754,0.11692 -0.88009,0.11692 -0.2154,0 -0.42463,-0.0185 -0.62852,-0.0615 0.42525,1.32713 1.65877,2.29295 3.12067,2.31984 -1.1433,0.89603 -2.58366,1.43009 -4.14882997,1.43009 -0.26954,0 -0.5354,-0.0185 -0.796889999337,-0.0492 C 1.4783265,12.6762 3.2342765,13.22927 5.1207465,13.22927 c 6.1445305,0 9.5047105,-5.09022 9.5047105,-9.50478 0,-0.14462 -0.003,-0.28862 -0.0123,-0.43202 0.65258,-0.47078 1.21888,-1.05924 1.66678,-1.72917 z"
     id="path973" />
</svg>
