<svg width="317.5mm" height="10.583mm" version="1.1" viewBox="0 0 317.5 10.583" xmlns="http://www.w3.org/2000/svg">
 <g transform="translate(153.45 -143.21)">
  <path d="m136.44 153.79 6.9022-7.9375h6.9022l6.9022 5.2917h6.9022v-7.9375h-317.5v7.9375l6.9022-2.6458h6.9022l6.9022 2.6458h6.9022l6.9022-5.2917h6.9022l6.9022 7.9375h6.9022l6.9022-2.6458h6.9022l6.9022-2.6458h6.9022l6.9022 2.6458h6.9022l6.9022-2.6458h6.9022l6.9022 2.6458h6.9022l6.9022 2.6458h6.9022l6.9022-5.2917h6.9022l6.9022 2.6458h6.9022l6.9022-2.6458h6.9022l6.9022-2.6458h6.9022l6.9022 7.9375h6.9022l6.9022-2.6458h6.9022l6.9022-2.6458h6.9022l6.9022 2.6458h6.9022l6.9022-5.2917h6.9022l6.9022 5.2917h6.9022l6.9022 2.6458z" fill="#000000" stop-color="#000000" stroke-linejoin="bevel" stroke-width="1.1" style="paint-order:stroke fill markers"/>
 </g>
</svg>
