<svg width="317.5mm" height="7.9375mm" version="1.1" viewBox="0 0 317.5 7.9375" xmlns="http://www.w3.org/2000/svg">
 <g transform="translate(115.09 -116.42)">
  <path d="m-87.485 116.42-6.9022 7.9375h-6.9022l-6.9022-5.2917h-6.9022v5.2917h317.5l1e-5 -5.2917-6.9022 2.6458h-6.9022l-6.9022-2.6458h-6.9022l-6.9022 5.2917h-6.9022l-6.9022-7.9375h-6.9022l-6.9022 2.6458h-6.9022l-6.9022 2.6458h-6.9022l-6.9022-2.6458h-6.9022l-6.9022 2.6458h-6.9022l-6.9022-2.6458h-6.9022l-6.9022-2.6458h-6.9022l-6.9022 5.2917h-6.9022l-6.9022-2.6458h-6.9022l-6.9022 2.6458h-6.9022l-6.9022 2.6458h-6.9022l-6.9022-7.9375h-6.9022l-6.9022 2.6458h-6.9022l-6.9022 2.6458h-6.9022l-6.9022-2.6458h-6.9022l-6.9022 5.2917h-6.9022l-6.9022-5.2917h-6.9022l-6.9022-2.6458z" fill="#7c878e" stop-color="#000000" stroke-linejoin="bevel" stroke-width="1.1" style="paint-order:stroke fill markers"/>
 </g>
</svg>
