<?xml version="1.0" encoding="UTF-8" standalone="no"?>
<svg
   width="1200"
   height="40"
   version="1.1"
   viewBox="0 0 317.5 10.583333"
   id="svg6"
   xmlns="http://www.w3.org/2000/svg"
   xmlns:svg="http://www.w3.org/2000/svg">
  <defs
     id="defs10" />
  <path
     d="m 289.8912,10.5833 6.9022,-7.9375 h 6.9022 l 6.9022,5.2917 H 317.5 V 0 H 0 V 7.9375 L 6.9022,5.2917 h 6.9022 l 6.9022,2.6458 h 6.9022 L 34.511,2.6458 h 6.9022 l 6.9022,7.9375 h 6.9022 l 6.9022,-2.6458 h 6.9022 l 6.9022,-2.6458 h 6.9022 l 6.9022,2.6458 h 6.9022 l 6.9022,-2.6458 h 6.9022 l 6.9022,2.6458 h 6.9022 l 6.9022,2.6458 h 6.9022 l 6.9022,-5.2917 h 6.9022 l 6.9022,2.6458 h 6.9022 l 6.9022,-2.6458 h 6.9022 l 6.9022,-2.6458 h 6.9022 l 6.9022,7.9375 h 6.9022 l 6.9022,-2.6458 h 6.9022 l 6.9022,-2.6458 h 6.9022 l 6.9022,2.6458 h 6.9022 l 6.9022,-5.2917 h 6.9022 l 6.9022,5.2917 h 6.9022 l 6.9022,2.6458 z"
     fill="#cc241d"
     stop-color="#000000"
     stroke-linejoin="bevel"
     stroke-width="1.1"
     style="paint-order:stroke fill markers"
     id="path2" />
</svg>
