<?xml version="1.0" encoding="UTF-8" standalone="no"?>
<svg
   width="1200"
   height="30"
   version="1.1"
   viewBox="0 0 317.5 7.9375"
   id="svg6"
   xmlns="http://www.w3.org/2000/svg"
   xmlns:svg="http://www.w3.org/2000/svg">
  <defs
     id="defs10" />
  <path
     d="M 27.6088,0 20.7066,7.9375 H 13.8044 L 6.9022,2.6458 H 0 v 5.2917 h 317.5 l 10e-6,-5.2917 -6.9022,2.6458 h -6.9022 l -6.9022,-2.6458 h -6.9022 l -6.9022,5.2917 h -6.9022 L 269.18461,0 h -6.9022 l -6.9022,2.6458 h -6.9022 l -6.9022,2.6458 h -6.9022 l -6.9022,-2.6458 h -6.9022 l -6.9022,2.6458 h -6.9022 l -6.9022,-2.6458 h -6.9022 L 186.35821,0 h -6.9022 l -6.9022,5.2917 h -6.9022 l -6.9022,-2.6458 h -6.9022 l -6.9022,2.6458 h -6.9022 l -6.9022,2.6458 h -6.9022 L 117.33621,0 h -6.9022 l -6.9022,2.6458 h -6.9022 l -6.9022,2.6458 h -6.9022 l -6.9022,-2.6458 h -6.9022 l -6.9022,5.2917 h -6.9022 l -6.9022,-5.2917 h -6.9022 L 34.50981,0 Z"
     fill="#cc241dff"
     stop-color="#000000"
     stroke-linejoin="bevel"
     stroke-width="1.1"
     style="fill:#cc241d;fill-opacity:1;paint-order:stroke fill markers"
     id="path2" />
</svg>
