<?xml version="1.0" encoding="UTF-8" standalone="no"?>
<!-- Generator: Adobe Illustrator 21.0.0, SVG Export Plug-In . SVG Version: 6.00 Build 0)  -->

<svg
   version="1.1"
   id="Layer_1"
   x="0px"
   y="0px"
   viewBox="0 0 145.10533 148.4549"
   width="203.6566"
   height="208"
   xml:space="preserve"
   sodipodi:docname="grafana.svg"
   inkscape:export-filename="/home/dgleason/mine/git/verihash/verihash.github.io/assets/logos/grafana.png"
   inkscape:export-xdpi="115.38461"
   inkscape:export-ydpi="115.38461"
   inkscape:version="1.1.1 (3bf5ae0d25, 2021-09-20)"
   xmlns:inkscape="http://www.inkscape.org/namespaces/inkscape"
   xmlns:sodipodi="http://sodipodi.sourceforge.net/DTD/sodipodi-0.dtd"
   xmlns="http://www.w3.org/2000/svg"
   xmlns:svg="http://www.w3.org/2000/svg"><defs
   id="defs30" /><sodipodi:namedview
   id="namedview28"
   pagecolor="#ffffff"
   bordercolor="#666666"
   borderopacity="1.0"
   inkscape:pageshadow="2"
   inkscape:pageopacity="0.0"
   inkscape:pagecheckerboard="0"
   showgrid="false"
   fit-margin-top="2"
   lock-margins="true"
   fit-margin-left="2"
   fit-margin-right="2"
   fit-margin-bottom="2"
   inkscape:zoom="1.5784314"
   inkscape:cx="97.248447"
   inkscape:cy="152.04969"
   inkscape:window-width="1332"
   inkscape:window-height="875"
   inkscape:window-x="1069"
   inkscape:window-y="267"
   inkscape:window-maximized="0"
   inkscape:current-layer="Layer_1" />
<style
   type="text/css"
   id="style2">
	.st0{fill:#565656;}
	.st1{fill:url(#SVGID_1_);}
</style>
<g
   id="g18"
   transform="translate(1.304902,1.427451)">
	<path
   class="st0"
   d="m 28.7,131.5 c -0.3,7.9 -6.6,14.1 -14.4,14.1 C 6.1,145.6 0,139 0,130.9 c 0,-8.1 6.6,-14.7 14.7,-14.7 3.6,0 7.2,1.6 10.2,4.4 l -2.3,2.9 c -2.3,-2 -5.1,-3.4 -7.9,-3.4 -5.9,0 -10.8,4.8 -10.8,10.8 0,6.1 4.6,10.8 10.4,10.8 5.2,0 9.3,-3.8 10.2,-8.8 H 12.6 v -3.5 h 16.1 z"
   id="path4" />
	<path
   class="st0"
   d="m 42.3,129.5 h -2.2 c -2.4,0 -4.4,2 -4.4,4.4 v 11.4 H 31.8 V 125.7 H 35 v 1.6 c 1.1,-1.1 2.7,-1.6 4.6,-1.6 h 4.2 z"
   id="path6" />
	<path
   class="st0"
   d="m 63.7,145.3 h -3.4 v -2.5 c -2.6,2.5 -6.6,3.7 -10.7,1.9 -3,-1.3 -5.3,-4.1 -5.9,-7.4 -1.2,-6.3 3.7,-11.9 9.9,-11.9 2.6,0 5,1.1 6.7,2.8 v -2.5 h 3.4 z m -4,-8.3 c 0.9,-4 -2.1,-7.6 -6,-7.6 -3.4,0 -6.1,2.8 -6.1,6.1 0,3.8 3.3,6.7 7.2,6.1 2.3,-0.4 4.3,-2.3 4.9,-4.6 z"
   id="path8" />
	<path
   class="st0"
   d="m 71.5,124.7 v 1.1 h 6.2 v 3.4 h -6.2 v 16.1 h -3.8 v -20.5 c 0,-4.3 3.1,-6.8 7,-6.8 h 4.7 l -1.6,3.7 h -3.1 c -1.8,-0.1 -3.2,1.3 -3.2,3 z"
   id="path10" />
	<path
   class="st0"
   d="m 98.5,145.3 h -3.3 v -2.5 c -2.6,2.5 -6.6,3.7 -10.7,1.9 -3,-1.3 -5.3,-4.1 -5.9,-7.4 -1.2,-6.3 3.7,-11.9 9.9,-11.9 2.6,0 5,1.1 6.7,2.8 v -2.5 h 3.4 v 19.6 z m -4,-8.3 c 0.9,-4 -2.1,-7.6 -6,-7.6 -3.4,0 -6.1,2.8 -6.1,6.1 0,3.8 3.3,6.7 7.2,6.1 2.4,-0.4 4.3,-2.3 4.9,-4.6 z"
   id="path12" />
	<path
   class="st0"
   d="m 119.4,133.8 v 11.5 h -3.9 v -11.6 c 0,-2.4 -2,-4.4 -4.4,-4.4 -2.5,0 -4.4,2 -4.4,4.4 v 11.6 h -3.9 v -19.6 h 3.2 v 1.7 c 1.4,-1.3 3.3,-2 5.2,-2 4.6,0.1 8.2,3.8 8.2,8.4 z"
   id="path14" />
	<path
   class="st0"
   d="m 142.4,145.3 h -3.3 v -2.5 c -2.6,2.5 -6.6,3.7 -10.7,1.9 -3,-1.3 -5.3,-4.1 -5.9,-7.4 -1.2,-6.3 3.7,-11.9 9.9,-11.9 2.6,0 5,1.1 6.7,2.8 v -2.5 h 3.4 v 19.6 z m -4,-8.3 c 0.9,-4 -2.1,-7.6 -6,-7.6 -3.4,0 -6.1,2.8 -6.1,6.1 0,3.8 3.3,6.7 7.2,6.1 2.4,-0.4 4.3,-2.3 4.9,-4.6 z"
   id="path16" />
</g>
<linearGradient
   id="SVGID_1_"
   gradientUnits="userSpaceOnUse"
   x1="71.25"
   y1="10.4893"
   x2="71.25"
   y2="113.3415"
   gradientTransform="matrix(1,0,0,-1,1.304902,150.02745)">
	<stop
   offset="0"
   style="stop-color:#FCEE1F"
   id="stop20" />
	<stop
   offset="1"
   style="stop-color:#F15B2A"
   id="stop22" />
</linearGradient>
<path
   class="st1"
   d="m 124.2049,51.327451 c -0.2,-1.9 -0.5,-4.1 -1.1,-6.5 -0.6,-2.4 -1.6,-5 -2.9,-7.8 -1.4,-2.7 -3.1,-5.6 -5.4,-8.3 -0.9,-1.1 -1.9,-2.1 -2.9,-3.2 1.6,-6.3 -1.9,-11.8 -1.9,-11.8 -6.1,-0.4 -9.9,1.9 -11.299998,2.9 -0.2,-0.1 -0.5,-0.2 -0.7,-0.3 -1,-0.4 -2.1,-0.8 -3.2,-1.2 -1.1,-0.3 -2.2,-0.7 -3.3,-0.9 -1.1,-0.3 -2.3,-0.5 -3.5,-0.7 -0.2,0 -0.4,-0.1 -0.6,-0.1 -2.6,-8.4 -10.2,-12 -10.2,-12 -8.7,5.6 -10.4,13.1 -10.4,13.1 0,0 0,0.2 -0.1,0.4 -0.5,0.1 -0.9,0.3 -1.4,0.4 -0.6,0.2 -1.3,0.4 -1.9,0.7 -0.6,0.3 -1.3,0.5 -1.9,0.8 -1.3,0.6 -2.5,1.2 -3.8,1.9 -1.2,0.7 -2.4,1.4 -3.5,2.2 -0.2,-0.1 -0.3,-0.2 -0.3,-0.2 -11.7,-4.5 -22.1,0.9 -22.1,0.9 -0.9,12.5 4.7,20.3 5.8,21.7 -0.3,0.8 -0.5,1.5 -0.8,2.3 -0.9,2.8 -1.5,5.7 -1.9,8.7 -0.1,0.4 -0.1,0.9 -0.2,1.3 -10.8,5.3 -14,16.3 -14,16.3 9,10.4 19.6,11 19.6,11 v 0 c 1.3,2.4 2.9,4.7 4.6,6.8 0.7,0.9 1.5,1.7 2.3,2.6 -3.3,9.399999 0.5,17.299999 0.5,17.299999 10.1,0.4 16.7,-4.4 18.1,-5.5 1,0.3 2,0.6 3,0.9 3.1,0.8 6.3,1.3 9.4,1.4 0.8,0 1.6,0 2.4,0 h 0.4 0.3 0.5 0.5 v 0 c 4.7,6.8 13.1,7.7 13.1,7.7 5.899998,-6.3 6.299998,-12.4 6.299998,-13.8 v 0 c 0,0 0,0 0,-0.1 0,-0.1 0,-0.2 0,-0.2 v 0 c 0,-0.1 0,-0.199999 0,-0.299999 1.2,-0.9 2.4,-1.8 3.6,-2.8 2.4,-2.1 4.4,-4.6 6.2,-7.2 0.2,-0.2 0.3,-0.5 0.5,-0.7 6.7,0.4 11.4,-4.2 11.4,-4.2 -1.1,-7 -5.1,-10.4 -5.9,-11 v 0 c 0,0 0,0 -0.1,-0.1 l -0.1,-0.1 v 0 l -0.1,-0.1 c 0,-0.4 0.1,-0.8 0.1,-1.3 0.1,-0.8 0.1,-1.5 0.1,-2.3 v -0.6 -0.3 -0.1 c 0,-0.2 0,-0.1 0,-0.2 v -0.5 -0.6 c 0,-0.2 0,-0.4 0,-0.6 0,-0.2 0,-0.4 -0.1,-0.6 l -0.1,-0.6 -0.1,-0.6 c -0.1,-0.8 -0.3,-1.5 -0.4,-2.3 -0.7,-3 -1.9,-5.9 -3.4,-8.4 -1.6,-2.6 -3.5,-4.8 -5.7,-6.8 -2.2,-1.9 -4.6,-3.5 -7.2,-4.6 -2.599998,-1.2 -5.199998,-1.9 -7.899998,-2.2 -1.3,-0.2 -2.7,-0.2 -4,-0.2 h -0.5 -0.1 -0.2 -0.2 -0.5 c -0.2,0 -0.4,0 -0.5,0 -0.7,0.1 -1.4,0.2 -2,0.3 -2.7,0.5 -5.2,1.5 -7.4,2.8 -2.2,1.3 -4.1,3 -5.7,4.9 -1.6,1.9 -2.8,3.9 -3.6,6.1 -0.8,2.1 -1.3,4.4 -1.4,6.5 0,0.5 0,1.1 0,1.6 0,0.1 0,0.3 0,0.4 v 0.4 c 0,0.3 0,0.5 0.1,0.8 0.1,1.1 0.3,2.1 0.6,3.1 0.6,2 1.5,3.8 2.7,5.4 1.2,1.6 2.5,2.8 4,3.8 1.5,1 3,1.7 4.6,2.2 1.6,0.5 3.1,0.7 4.5,0.6 0.2,0 0.4,0 0.5,0 0.1,0 0.2,0 0.3,0 0.1,0 0.2,0 0.3,0 0.2,0 0.3,0 0.5,0 h 0.1 0.1 c 0.1,0 0.2,0 0.3,0 0.2,0 0.4,-0.1 0.5,-0.1 0.2,0 0.3,-0.1 0.5,-0.1 0.3,-0.1 0.7,-0.2 1,-0.3 0.6,-0.2 1.2,-0.5 1.8,-0.7 0.6,-0.3 1.1,-0.6 1.5,-0.9 0.1,-0.1 0.3,-0.2 0.4,-0.3 0.5,-0.4 0.6,-1.1 0.2,-1.6 -0.4,-0.4 -1,-0.5 -1.5,-0.3 -0.1,0.1 -0.2,0.1 -0.4,0.2 -0.4,0.2 -0.9,0.4 -1.3,0.5 -0.5,0.1 -1,0.3 -1.5,0.4 -0.3,0 -0.5,0.1 -0.8,0.1 -0.1,0 -0.3,0 -0.4,0 -0.1,0 -0.3,0 -0.4,0 -0.1,0 -0.3,0 -0.4,0 -0.2,0 -0.3,0 -0.5,0 0,0 -0.1,0 0,0 h -0.1 -0.1 c -0.1,0 -0.1,0 -0.2,0 -0.1,0 -0.3,0 -0.4,-0.1 -1.1,-0.2 -2.3,-0.5 -3.4,-1 -1.1,-0.5 -2.2,-1.2 -3.1,-2.1 -1,-0.9 -1.8,-1.9 -2.5,-3.1 -0.7,-1.2 -1.1,-2.5 -1.3,-3.8 -0.1,-0.7 -0.2,-1.4 -0.1,-2.1 0,-0.2 0,-0.4 0,-0.6 0,0.1 0,0 0,0 v -0.1 -0.1 c 0,-0.1 0,-0.2 0,-0.3 0,-0.4 0.1,-0.7 0.2,-1.1 0.5,-3 2,-5.9 4.3,-8.1 0.6,-0.6 1.2,-1.1 1.9,-1.5 0.7,-0.5 1.4,-0.9 2.1,-1.2 0.7,-0.3 1.5,-0.6 2.3,-0.8 0.8,-0.2 1.6,-0.4 2.4,-0.4 0.4,0 0.8,-0.1 1.2,-0.1 0.1,0 0.2,0 0.3,0 h 0.3 0.2 c 0.1,0 0,0 0,0 h 0.1 0.3 c 0.9,0.1 1.8,0.2 2.6,0.4 1.7,0.4 3.4,1 5,1.9 3.2,1.8 5.899998,4.5 7.499998,7.8 0.8,1.6 1.4,3.4 1.7,5.3 0.1,0.5 0.1,0.9 0.2,1.4 v 0.3 0.3 c 0,0.1 0,0.2 0,0.3 0,0.1 0,0.2 0,0.3 v 0.3 0.3 c 0,0.2 0,0.6 0,0.8 0,0.5 -0.1,1 -0.1,1.5 -0.1,0.5 -0.1,1 -0.2,1.5 -0.1,0.5 -0.2,1 -0.3,1.5 -0.2,1 -0.6,1.9 -0.9,2.9 -0.7,1.9 -1.7,3.7 -2.9,5.3 -2.399998,3.3 -5.699998,6 -9.399998,7.7 -1.9,0.8 -3.8,1.5 -5.8,1.8 -1,0.2 -2,0.3 -3,0.3 h -0.2 -0.2 -0.3 -0.5 -0.3 c 0.1,0 0,0 0,0 h -0.1 c -0.5,0 -1.1,0 -1.6,-0.1 -2.2,-0.2 -4.3,-0.6 -6.4,-1.2 -2.1,-0.6 -4.1,-1.4 -6,-2.4 -3.8,-2 -7.2,-4.9 -9.9,-8.2 -1.3,-1.7 -2.5,-3.5 -3.5,-5.4 -1,-1.9 -1.7,-3.9 -2.3,-5.9 -0.6,-2 -0.9,-4.1 -1,-6.2 v -0.4 -0.1 -0.1 -0.2 -0.3 -0.1 -0.1 -0.2 -0.5 -0.1 0 -0.2 c 0,-0.3 0,-0.5 0,-0.8 0,-1 0.1,-2.1 0.3,-3.2 0.1,-1.1 0.3,-2.1 0.5,-3.2 0.2,-1.1 0.5,-2.1 0.8,-3.2 0.6,-2.1 1.3,-4.1 2.2,-6 1.8,-3.8 4.1,-7.2 6.8,-9.9 0.7,-0.7 1.4,-1.3 2.2,-1.9 0.3,-0.3 1,-0.9 1.8,-1.4 0.8,-0.5 1.6,-1 2.5,-1.4 0.4,-0.2 0.8,-0.4 1.3,-0.6 0.2,-0.1 0.4,-0.2 0.7,-0.3 0.2,-0.1 0.4,-0.2 0.7,-0.3 0.9,-0.4 1.8,-0.7 2.7,-1 0.2,-0.1 0.5,-0.1 0.7,-0.2 0.2,-0.1 0.5,-0.1 0.7,-0.2 0.5,-0.1 0.9,-0.2 1.4,-0.4 0.2,-0.1 0.5,-0.1 0.7,-0.2 0.2,0 0.5,-0.1 0.7,-0.1 0.2,0 0.5,-0.1 0.7,-0.1 l 0.4,-0.1 0.4,-0.1 c 0.2,0 0.5,-0.1 0.7,-0.1 0.3,0 0.5,-0.1 0.8,-0.1 0.2,0 0.6,-0.1 0.8,-0.1 0.2,0 0.3,0 0.5,-0.1 h 0.3 0.2 0.2 c 0.3,0 0.5,0 0.8,-0.1 h 0.4 c 0,0 0.1,0 0,0 h 0.1 0.2 c 0.2,0 0.5,0 0.7,0 0.9,0 1.8,0 2.7,0 1.8,0.1 3.6,0.3 5.3,0.6 3.4,0.6 6.7,1.7 9.599998,3.2 2.9,1.4 5.6,3.2 7.8,5.1 0.1,0.1 0.3,0.2 0.4,0.4 0.1,0.1 0.3,0.2 0.4,0.4 0.3,0.2 0.5,0.5 0.8,0.7 0.3,0.2 0.5,0.5 0.8,0.7 0.2,0.3 0.5,0.5 0.7,0.8 1,1 1.9,2.1 2.7,3.1 1.6,2.1 2.9,4.2 3.9,6.2 0.1,0.1 0.1,0.2 0.2,0.4 0.1,0.1 0.1,0.2 0.2,0.4 0.1,0.2 0.2,0.5 0.4,0.7 0.1,0.2 0.2,0.5 0.3,0.7 0.1,0.2 0.2,0.5 0.3,0.7 0.4,0.9 0.7,1.8 1,2.7 0.5,1.4 0.8,2.6 1.1,3.6 0.1,0.4 0.5,0.7 0.9,0.7 0.5,0 0.8,-0.4 0.8,-0.9 -0.1,-1.2 -0.1,-2.5 -0.2,-4 z"
   id="path25"
   style="fill:url(#SVGID_1_)" />
</svg>
