<svg width="219" height="32" viewBox="0 0 219 32" fill="none" xmlns="http://www.w3.org/2000/svg">
<g clip-path="url(#clip0_59:549)">
<path d="M16.3753 23.5375C14.8086 23.5374 13.2821 23.0442 12.0137 22.1284C10.7454 21.2126 9.80005 19.921 9.31283 18.4382L0.665649 20.5317C1.41174 23.0597 2.77424 25.3647 4.63175 27.2411C6.48925 29.1176 8.78405 30.5073 11.3116 31.2863C13.8392 32.0653 16.5211 32.2095 19.1182 31.706C21.7153 31.2026 24.147 30.067 26.1966 28.4006L21.131 21.822C19.7968 22.9315 18.1135 23.5387 16.3753 23.5375Z" fill="#EA9E30"/>
<path d="M8.94221 16.138C8.94342 14.9358 9.23906 13.7519 9.8035 12.6892C10.3679 11.6264 11.1842 10.7168 12.1814 10.0392L6.0781 3.49158C3.56735 5.46672 1.70948 8.1467 0.744819 11.1848C-0.219842 14.223 -0.246906 17.4795 0.667128 20.5331L9.31283 18.4382C9.06828 17.6957 8.9432 16.9194 8.94221 16.138Z" fill="#007EBE"/>
<path d="M16.3753 8.73856C17.5738 8.74142 18.7535 9.03588 19.8116 9.59632L23.8899 2.04033C21.1138 0.486759 17.9349 -0.205142 14.7612 0.0534469C11.5874 0.312035 8.56369 1.50931 6.07812 3.49159L12.1859 10.0304C13.4196 9.18555 14.8825 8.73496 16.3797 8.73856" fill="#008ECE"/>
<path d="M22.9781 12.7454L29.7589 7.66671C28.3159 5.3267 26.298 3.39136 23.8958 2.04327L19.8116 9.59631C21.1647 10.3 22.2696 11.3988 22.9781 12.7454Z" fill="#009CDD"/>
<path d="M47.9086 8.73856C49.6663 8.73899 51.3668 9.36047 52.7076 10.4924C54.0483 11.6243 54.9423 13.1933 55.2305 14.9201L63.7146 12.9609C63.2038 10.2995 62.0208 7.81139 60.2772 5.73124C58.5336 3.65109 56.2868 2.0474 53.7486 1.07134C51.2104 0.0952764 48.4645 -0.220998 45.7696 0.152329C43.0747 0.525656 40.5196 1.57628 38.3453 3.20518L43.6406 10.085C44.8895 9.20802 46.3805 8.73767 47.9086 8.73856Z" fill="#EA9E30"/>
<path d="M41.4941 19.8614L34.6896 25.0183C36.7007 27.9444 39.6283 30.1248 43.0151 31.219C43.9045 28.5099 45.0638 25.132 45.7042 23.1847C43.9314 22.6362 42.4279 21.4485 41.4881 19.854" fill="#00A5E5"/>
<path d="M47.9087 23.5375C47.1631 23.535 46.4223 23.4195 45.7117 23.195C45.0698 25.1409 43.9105 28.5099 43.021 31.2264C45.509 32.0287 48.1567 32.2105 50.7317 31.7556C53.3067 31.3008 55.7301 30.2232 57.7893 28.6177L52.4257 21.9977C51.1324 22.9934 49.5434 23.533 47.9087 23.5316" fill="#00ACEB"/>
<path d="M55.3417 16.138C55.3429 17.2737 55.0804 18.3942 54.5745 19.4121C54.0686 20.4299 53.3332 21.3173 52.4257 22.0051L57.7907 28.6177C59.7268 27.1271 61.2945 25.215 62.3737 23.0278C63.453 20.8405 64.0151 18.4363 64.0171 15.9993C64.0182 14.9802 63.9189 13.9636 63.7206 12.9639L55.2365 14.92C55.3074 15.3223 55.3446 15.7297 55.3476 16.138" fill="#21BCEC"/>
<path d="M78.2338 22.1645V9.27301H80.3093L85.7321 17.7753V9.27301H88.322V22.1645H86.2465L80.84 13.6637V22.1645H78.2338Z" fill="white"/>
<path d="M97.1085 22.2517C96.7863 22.2487 96.4648 22.2226 96.1464 22.1734C95.7812 22.1197 95.4292 21.9985 95.1087 21.8161C94.7617 21.6157 94.4774 21.3234 94.2874 20.9717C94.071 20.5937 93.9627 20.074 93.9627 19.4126V12.2169C93.9474 11.7278 94.0369 11.2412 94.2251 10.7892C94.3789 10.4337 94.6194 10.1221 94.9248 9.88275C95.2117 9.66518 95.5385 9.50568 95.887 9.41326C96.2252 9.32135 96.5741 9.2742 96.9247 9.27301C97.7993 9.27301 98.5717 9.28482 99.2418 9.30844C99.9118 9.33206 100.515 9.35815 101.052 9.38669C101.588 9.41622 102.078 9.45313 102.522 9.50037V11.6632H97.6941C97.3911 11.6441 97.0917 11.7372 96.8535 11.9245C96.6549 12.0988 96.557 12.3675 96.557 12.7262V14.5864L101.682 14.734V16.7714L96.557 16.9191V18.6907C96.5437 18.9348 96.5948 19.1781 96.7053 19.3964C96.794 19.5559 96.9362 19.6792 97.107 19.7448C97.2776 19.8088 97.4584 19.8413 97.6407 19.8408H102.522V21.9977C102.008 22.0568 101.439 22.106 100.816 22.1454C100.193 22.1847 99.5639 22.2138 98.9275 22.2325C98.2871 22.2443 97.6807 22.2507 97.1085 22.2517Z" fill="white"/>
<path d="M110.614 22.1645V11.5909H107.056V9.27301H116.764V11.5909H113.202V22.1645H110.614Z" fill="white"/>
<path d="M121.668 22.1645V9.27301H124.258V14.6396H129.139V9.27301H131.745V22.1645H129.139V16.956H124.258V22.1645H121.668Z" fill="white"/>
<path d="M140.614 22.2517C140.292 22.2489 139.971 22.2227 139.652 22.1734C139.287 22.1192 138.935 21.9981 138.614 21.8161C138.267 21.6157 137.983 21.3234 137.793 20.9717C137.577 20.5937 137.469 20.074 137.47 19.4126V12.2169C137.452 11.7287 137.537 11.2422 137.72 10.7892C137.875 10.4336 138.116 10.122 138.422 9.88275C138.708 9.66491 139.035 9.50539 139.384 9.41326C139.722 9.32122 140.071 9.27406 140.422 9.27301C141.296 9.27301 142.069 9.28482 142.739 9.30844C143.409 9.33206 144.013 9.35815 144.55 9.38669C145.085 9.41622 145.576 9.45313 146.019 9.50037V11.6632H141.191C140.888 11.6439 140.589 11.737 140.352 11.9245C140.154 12.0988 140.055 12.366 140.055 12.7262V14.5864L145.18 14.734V16.7714L140.055 16.9191V18.6907C140.042 18.9348 140.093 19.1781 140.204 19.3964C140.292 19.5563 140.435 19.6797 140.607 19.7448C140.777 19.8088 140.958 19.8413 141.141 19.8408H146.022V21.9977C145.507 22.0568 144.939 22.106 144.316 22.1454C143.693 22.1847 143.064 22.2138 142.427 22.2325C141.79 22.2443 141.185 22.2507 140.614 22.2517Z" fill="white"/>
<path d="M151.407 22.1645V9.27301H156.76C157.244 9.26902 157.726 9.3306 158.193 9.45608C158.629 9.57377 159.03 9.79173 159.366 10.0924C159.732 10.4377 160.006 10.8685 160.162 11.3458C160.374 12.0102 160.472 12.7055 160.451 13.4024C160.46 13.9128 160.402 14.4222 160.276 14.9171C160.183 15.286 160.026 15.6358 159.812 15.9506C159.634 16.2033 159.412 16.4214 159.155 16.5943C158.919 16.7526 158.667 16.8871 158.404 16.9958L160.817 22.1631H158.178L156.103 17.39C155.964 17.39 155.804 17.3871 155.623 17.3812C155.442 17.3752 155.258 17.3723 155.071 17.3723H154.512C154.326 17.3723 154.157 17.3723 154.004 17.3546V22.1631L151.407 22.1645ZM153.995 15.3187H156.305C156.518 15.3212 156.73 15.2919 156.935 15.2316C157.122 15.1739 157.29 15.0685 157.424 14.926C157.576 14.7597 157.687 14.5599 157.747 14.3428C157.832 14.0367 157.87 13.7198 157.861 13.4024C157.869 13.0991 157.831 12.7964 157.747 12.5048C157.688 12.2949 157.577 12.1034 157.424 11.9482C157.287 11.8154 157.119 11.7194 156.935 11.6691C156.729 11.6141 156.517 11.5878 156.305 11.5909H153.995V15.3187Z" fill="white"/>
<path d="M165.524 22.1645L167.027 9.27301H169.512L172.486 19.1513L175.442 9.27301H177.908L179.431 22.1645H176.929L175.809 12.6701L176.211 12.7055L173.675 22.1645H171.243L168.673 12.7055L169.117 12.6878L168.032 22.1645H165.524Z" fill="white"/>
<path d="M184.818 22.1645V9.27301H187.407V22.1645H184.818Z" fill="white"/>
<path d="M193.233 22.1645V9.27301H195.308L200.731 17.7753V9.27301H203.319V22.1645H201.244L195.833 13.6637V22.1645H193.233Z" fill="white"/>
<path d="M208.959 22.1645V9.27301H214.433C215.308 9.27301 216.037 9.42704 216.62 9.73511C217.199 10.0395 217.681 10.4999 218.01 11.0638C218.375 11.6964 218.621 12.3898 218.737 13.1101C218.883 13.9734 218.953 14.8477 218.947 15.7232C218.947 17.1759 218.781 18.3782 218.448 19.3299C218.115 20.2817 217.616 20.9928 216.952 21.4633C216.288 21.9337 215.448 22.169 214.432 22.169L208.959 22.1645ZM211.547 19.8481H214.171C214.404 19.8603 214.637 19.8257 214.856 19.7463C215.076 19.6669 215.277 19.5444 215.447 19.386C215.764 19.079 215.994 18.6174 216.14 18.0012C216.298 17.251 216.372 16.4853 216.358 15.7188C216.368 15.0272 216.322 14.3358 216.218 13.6519C216.157 13.2095 216.018 12.7816 215.806 12.3881C215.653 12.1113 215.414 11.8916 215.124 11.7621C214.822 11.6404 214.497 11.5811 214.171 11.5879H211.547V19.8481Z" fill="white"/>
</g>
<defs>
<clipPath id="clip0_59:549">
<rect width="218.947" height="32" fill="white"/>
</clipPath>
</defs>
</svg>