<?xml version="1.0" encoding="UTF-8" standalone="no"?>
<svg
   version="1.1"
   id="Слой_1"
   x="0px"
   y="0px"
   viewBox="0 0 152 47.049999"
   xml:space="preserve"
   sodipodi:docname="ssv.svg"
   width="152"
   height="47.049999"
   inkscape:export-filename="/home/dgleason/mine/git/verihash/verihash.github.io/assets/logos/ssv.png"
   inkscape:export-xdpi="157.89"
   inkscape:export-ydpi="157.89"
   inkscape:version="1.1.1 (3bf5ae0d25, 2021-09-20)"
   xmlns:inkscape="http://www.inkscape.org/namespaces/inkscape"
   xmlns:sodipodi="http://sodipodi.sourceforge.net/DTD/sodipodi-0.dtd"
   xmlns="http://www.w3.org/2000/svg"
   xmlns:svg="http://www.w3.org/2000/svg"><defs
   id="defs11" /><sodipodi:namedview
   id="namedview9"
   pagecolor="#ffffff"
   bordercolor="#666666"
   borderopacity="1.0"
   inkscape:pageshadow="2"
   inkscape:pageopacity="0.0"
   inkscape:pagecheckerboard="0"
   showgrid="false"
   lock-margins="true"
   fit-margin-top="1"
   fit-margin-left="1"
   fit-margin-right="1"
   fit-margin-bottom="1"
   inkscape:zoom="3.9433333"
   inkscape:cx="79.501268"
   inkscape:cy="3.2967033"
   inkscape:window-width="1584"
   inkscape:window-height="1027"
   inkscape:window-x="1069"
   inkscape:window-y="267"
   inkscape:window-maximized="0"
   inkscape:current-layer="Слой_1" /> <path
   fill="#72c7fb"
   d="m 10.1,36.625 5.7,-7 c 0.6,-0.7 1.7,-0.7 2.3,0 l 5.7,7 c 0.4,0.5 0.4,1.3 0,1.9 l -5.7,7 c -0.6,0.7 -1.7,0.7 -2.3,0 l -5.7,-7 c -0.4,-0.6 -0.4,-1.4 0,-1.9 z"
   id="path2" /> <path
   fill="#011627"
   d="m 52.5,23.425 c 0.5,0.5 0.7,1.2 0.7,2.3 0,2.3 -1.4,3.5 -4.3,3.5 -0.9,0 -2.1,-0.1 -3.4,-0.4 l -0.7,-0.1 0.1,-2.4 c 1.8,0.2 3,0.3 3.7,0.3 0.7,0 1.2,-0.1 1.4,-0.2 0.3,-0.1 0.4,-0.3 0.4,-0.6 0,-0.3 -0.1,-0.5 -0.4,-0.6 -0.3,-0.2 -1,-0.3 -2.1,-0.5 -1.1,-0.1 -2,-0.4 -2.5,-0.9 -0.5,-0.5 -0.8,-1.3 -0.8,-2.4 0,-1.2 0.4,-2 1.2,-2.6 0.8,-0.6 1.8,-0.9 3,-0.9 0.9,0 2,0.1 3.5,0.4 l 0.7,0.1 v 2.4 c -1.7,-0.2 -3,-0.3 -3.7,-0.3 -0.7,0 -1.2,0.1 -1.4,0.2 -0.2,0.1 -0.3,0.3 -0.3,0.6 0,0.3 0.1,0.5 0.4,0.6 0.3,0.1 1,0.2 2.2,0.4 1.2,0.2 2,0.6 2.3,1.1 z m 7.4,-1.1 c -1.1,-0.2 -1.9,-0.4 -2.2,-0.5 -0.3,-0.1 -0.4,-0.3 -0.4,-0.6 0,-0.3 0.1,-0.5 0.3,-0.6 0.2,-0.1 0.7,-0.2 1.4,-0.2 0.7,0 2,0.1 3.7,0.3 v -2.4 l -0.7,-0.1 c -1.5,-0.3 -2.6,-0.4 -3.5,-0.4 -1.2,0 -2.2,0.3 -3,0.9 -0.8,0.6 -1.2,1.4 -1.2,2.6 0,1.1 0.3,1.9 0.8,2.4 0.5,0.4 1.4,0.8 2.5,0.9 1.1,0.2 1.8,0.3 2.1,0.5 0.3,0.1 0.4,0.3 0.4,0.6 0,0.3 -0.1,0.5 -0.4,0.6 -0.2,0.1 -0.7,0.2 -1.4,0.2 -0.7,0 -1.9,-0.1 -3.7,-0.3 l -0.1,2.4 0.7,0.1 c 1.3,0.3 2.5,0.4 3.4,0.4 2.9,0 4.3,-1.2 4.3,-3.5 0,-1.1 -0.2,-1.8 -0.7,-2.3 -0.3,-0.4 -1.1,-0.8 -2.3,-1 z m 9.1,4.1 h -0.6 l -1.7,-8.3 h -3 l 2.5,10.8 h 4.9 l 2.6,-10.8 h -2.9 z m 16.2,-8.5 c -1.1,0 -2.2,0.3 -3.3,1 v -0.8 h -1.6 v 10.8 h 1.6 v -8.7 l 0.4,-0.2 c 0.3,-0.1 0.7,-0.3 1.2,-0.4 0.5,-0.1 1,-0.2 1.5,-0.2 1,0 1.6,0.3 1.9,0.8 0.3,0.5 0.5,1.6 0.5,3.1 v 5.6 H 89 v -5.7 c 0,-2 -0.3,-3.4 -0.8,-4.1 -0.6,-0.8 -1.6,-1.2 -3,-1.2 z m 13.6,1.3 c 0.7,0.8 1.1,2.1 1.1,3.8 l -0.1,1.2 h -7.1 c 0,1.1 0.2,2 0.6,2.6 0.4,0.6 1.1,0.9 2.2,0.9 1.1,0 2.2,0 3.3,-0.1 l 0.6,-0.1 v 1.3 c -1.6,0.2 -3,0.3 -4.2,0.3 -1.6,0 -2.7,-0.4 -3.3,-1.3 -0.7,-0.9 -1,-2.3 -1,-4.2 0,-3.8 1.5,-5.7 4.5,-5.7 1.4,0 2.5,0.4 3.4,1.3 z m -0.7,3.6 c 0,-1.3 -0.2,-2.3 -0.6,-2.8 -0.5,-0.5 -1.1,-0.8 -2.1,-0.8 -1,0 -1.7,0.3 -2.2,0.9 -0.4,0.6 -0.7,1.5 -0.7,2.7 0,0 5.6,0 5.6,0 z m 7.3,4.9 c -0.7,0 -1.1,-0.2 -1.3,-0.6 -0.2,-0.4 -0.3,-1.2 -0.3,-2.4 v -5.1 h 3.4 v -1.4 h -3.4 v -3.3 h -1.6 v 3.3 h -1.5 v 1.4 h 1.5 v 5.7 c 0,1.5 0.2,2.6 0.6,3.1 0.4,0.5 1.2,0.8 2.3,0.8 0.5,0 1.2,-0.1 2.2,-0.2 l -0.1,-1.3 c 0,0 -1.8,0 -1.8,0 z m 13.9,-0.2 h -0.4 l -2.6,-9.2 h -1.6 l -2.6,9.2 h -0.3 l -2.2,-9.4 H 108 l 2.5,10.8 h 2.7 l 2.3,-8.4 2.3,8.4 h 2.7 l 2.5,-10.8 h -1.6 z m 12.9,-8.3 c 0.7,0.9 1.1,2.3 1.1,4.3 0,2 -0.3,3.4 -1,4.3 -0.6,0.9 -1.8,1.3 -3.6,1.3 -1.7,0 -2.9,-0.4 -3.6,-1.3 -0.7,-0.9 -1,-2.3 -1,-4.3 0,-2 0.4,-3.4 1.1,-4.3 0.8,-0.9 1.9,-1.3 3.6,-1.3 1.7,0 2.9,0.4 3.4,1.3 z m -0.6,4.3 c 0,-1.5 -0.2,-2.6 -0.6,-3.2 -0.4,-0.6 -1.2,-0.9 -2.3,-0.9 -1.1,0 -1.9,0.3 -2.3,0.9 -0.4,0.5 -0.6,1.6 -0.6,3.2 0,1.6 0.2,2.7 0.6,3.3 0.4,0.6 1.2,0.9 2.4,0.9 1.2,0 2,-0.3 2.4,-0.9 0.4,-0.7 0.4,-1.8 0.4,-3.3 z m 5.6,-5.4 h -1.6 v 10.8 h 1.6 v -7.9 l 0.5,-0.3 c 0.3,-0.2 0.8,-0.4 1.5,-0.6 0.7,-0.2 1.3,-0.4 1.9,-0.5 v -1.6 c -1.4,0.3 -2.7,0.8 -3.9,1.7 z m 10.1,5 3.5,-5 H 149 l -3.1,4.4 -1.6,0.1 v -9.2 h -1.6 v 15.5 h 1.6 v -4.9 l 1.7,-0.1 3.2,5 h 1.8 z"
   id="path4" /> <path
   fill="#1ba5f8"
   d="m 26.9,12.525 c -0.6,-0.7 -1.7,-0.7 -2.3,0 l -5.7,7 c -0.4,0.5 -0.4,1.3 0,1.9 l 5.7,7 c 0.6,0.7 1.7,0.7 2.3,0 l 5.7,-7 c 0.4,-0.5 0.4,-1.3 0,-1.9 z m -17.6,0 c -0.6,-0.7 -1.7,-0.7 -2.3,0 l -5.7,7 c -0.4,0.5 -0.4,1.3 0,1.9 l 5.7,7 c 0.6,0.7 1.7,0.7 2.3,0 l 5.7,-7 c 0.4,-0.5 0.4,-1.3 0,-1.9 z m 14.5,-4 -5.7,-7 c -0.6,-0.7 -1.7,-0.7 -2.3,0 l -5.7,7 c -0.4,0.5 -0.4,1.3 0,1.9 l 5.7,7 c 0.6,0.7 1.7,0.7 2.3,0 l 5.7,-7 c 0.4,-0.5 0.4,-1.3 0,-1.9 z m 53.7,16.9 H 75 c -0.2,0 -0.4,0.2 -0.4,0.4 v 2.8 c 0,0.2 0.2,0.4 0.4,0.4 h 2.5 c 0.2,0 0.4,-0.2 0.4,-0.4 v -2.8 c 0,-0.3 -0.2,-0.4 -0.4,-0.4 z"
   id="path6" /> </svg>
