<svg width="120" height="30" viewBox="0 0 1306.9 231.07" xmlns="http://www.w3.org/2000/svg" xmlns:xlink="http://www.w3.org/1999/xlink"><defs><clipPath id="clipPath18"><path d="m0 2e3h2e3v-2e3h-2e3z"></path></clipPath><linearGradient id="linearGradient70" x2="1" gradientTransform="matrix(98.88,-49.806,-49.806,-98.88,518.44,970.01)" gradientUnits="userSpaceOnUse"><stop stop-color="#8277a6" offset="0"></stop><stop stop-color="#655880" offset="1"></stop></linearGradient><clipPath id="clipPath80"><path d="m0 2e3h2e3v-2e3h-2e3z"></path></clipPath><linearGradient id="linearGradient104" x2="1" gradientTransform="matrix(71.844,105.37,105.37,-71.844,587.26,874.18)" gradientUnits="userSpaceOnUse"><stop stop-color="#665a82" offset="0"></stop><stop stop-color="#73638d" offset="0.23712"></stop><stop stop-color="#b4a6d1" offset="1"></stop></linearGradient><clipPath id="clipPath114"><path d="m0 2e3h2e3v-2e3h-2e3z"></path></clipPath><linearGradient id="linearGradient124" x2="1" gradientTransform="matrix(96.735 0 0 96.735 -.0251 2048.4)" gradientUnits="userSpaceOnUse"><stop stop-color="#73638d" offset="0"></stop><stop stop-color="#b4a6d1" offset="0.60887"></stop><stop stop-color="#b4a6d1" offset="1"></stop></linearGradient><linearGradient id="linearGradient144" x2="1" gradientTransform="matrix(75.533,83.327,83.327,-75.533,640.81,953.56)" gradientUnits="userSpaceOnUse"><stop stop-color="#b0a0ce" offset="0"></stop><stop stop-color="#cec6e2" offset="1"></stop></linearGradient><clipPath id="clipPath154"><path d="m0 2e3h2e3v-2e3h-2e3z"></path></clipPath><linearGradient id="linearGradient176" x2="1" gradientTransform="matrix(10.653,31.958,31.958,-10.653,547.86,960.58)" gradientUnits="userSpaceOnUse"><stop stop-color="#887cae" offset="0"></stop><stop stop-color="#7a6e9b" offset="1"></stop></linearGradient><clipPath id="clipPath186"><path d="m0 2e3h2e3v-2e3h-2e3z"></path></clipPath><linearGradient id="linearGradient208" x2="1" gradientTransform="matrix(-50.172,0,0,50.172,607.88,1048.4)" gradientUnits="userSpaceOnUse"><stop stop-color="#b0a0ce" offset="0"></stop><stop stop-color="#887cae" offset="1"></stop></linearGradient><clipPath id="clipPath218"><path d="m0 2e3h2e3v-2e3h-2e3z"></path></clipPath><linearGradient id="linearGradient240" x2="1" gradientTransform="matrix(35.395,-33.595,-33.595,-35.395,611.9,1032.2)" gradientUnits="userSpaceOnUse"><stop stop-color="#b0a0ce" offset="0"></stop><stop stop-color="#cec6e2" offset="1"></stop></linearGradient><clipPath id="clipPath250"><path d="m0 2e3h2e3v-2e3h-2e3z"></path></clipPath><linearGradient id="linearGradient492" x2="1" gradientTransform="matrix(98.88,-49.806,-49.806,-98.88,518.44,970.01)" gradientUnits="userSpaceOnUse" xlink:href="#linearGradient70"></linearGradient><linearGradient id="linearGradient494" x2="1" gradientTransform="matrix(71.844,105.37,105.37,-71.844,587.26,874.18)" gradientUnits="userSpaceOnUse" xlink:href="#linearGradient104"></linearGradient><linearGradient id="linearGradient496" x2="1" gradientTransform="matrix(96.735 0 0 96.735 -.0251 2048.4)" gradientUnits="userSpaceOnUse" xlink:href="#linearGradient124"></linearGradient><linearGradient id="linearGradient498" x2="1" gradientTransform="matrix(75.533,83.327,83.327,-75.533,640.81,953.56)" gradientUnits="userSpaceOnUse" xlink:href="#linearGradient144"></linearGradient><linearGradient id="linearGradient500" x2="1" gradientTransform="matrix(10.653,31.958,31.958,-10.653,547.86,960.58)" gradientUnits="userSpaceOnUse" xlink:href="#linearGradient176"></linearGradient><linearGradient id="linearGradient502" x2="1" gradientTransform="matrix(-50.172,0,0,50.172,607.88,1048.4)" gradientUnits="userSpaceOnUse" xlink:href="#linearGradient208"></linearGradient><linearGradient id="linearGradient504" x2="1" gradientTransform="matrix(35.395,-33.595,-33.595,-35.395,611.9,1032.2)" gradientUnits="userSpaceOnUse" xlink:href="#linearGradient240"></linearGradient></defs><g transform="matrix(1.3333 0 0 -1.3333 -742.44 1428)"><g transform="translate(34.929 -3.3546)" fill="#fff"><g clip-path="url(#clipPath18)" fill="#fff"><g transform="translate(787.08,980.69)"><path d="m0 0c-3.757 1.486-8.799 2.995-14.991 4.486-4.759 1.09-8.58 2.139-11.357 3.118-2.757 0.97-5.102 2.349-6.969 4.098-1.85 1.736-2.788 4.026-2.788 6.805 0 3.791 1.667 6.93 4.958 9.328 3.302 2.409 8.333 3.63 14.953 3.63 3.738 0 7.613-0.573 11.517-1.704 3.753-1.089 7.344-2.691 10.672-4.76l0.502-0.312 3.983 9.66-0.334 0.229c-3.326 2.27-7.339 4.041-11.928 5.266-4.708 1.254-9.556 1.889-14.412 1.889-6.978 0-12.904-1.074-17.613-3.193-4.717-2.122-8.284-4.993-10.602-8.532-2.321-3.54-3.498-7.568-3.498-11.973 0-5.271 1.379-9.522 4.097-12.635 2.712-3.106 6.02-5.437 9.831-6.928 3.809-1.493 8.87-3.001 15.046-4.485 4.925-1.174 8.787-2.243 11.479-3.178 2.678-0.931 4.963-2.29 6.791-4.039 1.812-1.735 2.731-4.025 2.731-6.806 0-3.788-1.687-6.866-5.014-9.149-3.34-2.292-8.471-3.454-15.252-3.454-5.148 0-10.23 0.89-15.102 2.645-4.683 1.684-8.61 3.887-11.672 6.544l-0.497 0.431-4.47-9.424 0.275-0.249c3.281-2.977 7.808-5.44 13.453-7.323 5.758-1.919 11.818-2.892 18.013-2.892 6.981 0 12.947 1.053 17.731 3.132 4.794 2.084 8.421 4.954 10.78 8.532 2.36 3.581 3.557 7.59 3.557 11.916 0 5.193-1.379 9.385-4.099 12.458-2.711 3.064-5.999 5.375-9.771 6.869" fill="#fff"></path></g><g transform="translate(813.66,1011)"><path d="m0 0h28.288v-72.251h11.919v72.251h28.288v10.505h-68.495z" fill="#fff"></path></g><g transform="translate(947.84,969.03)"><path d="m0 0h-35.212l17.606 39.994zm-11.632 52.451h-11.83l-37.476-82.756h12.415l9.076 20.626h43.682l9.077-20.626h12.651l-37.462 82.463z" fill="#fff"></path></g><g transform="translate(1065,1021.5)"><path d="m0 0h-13.78l-44.611-45.903v45.903h-12.037v-82.756h12.037v21.406l14.954 15.19 31.388-36.422 0.15-0.174h14.114l-37.58 45.497z" fill="#fff"></path></g><g transform="translate(1100.2,975.62)"><path d="m0 0h41.37v10.269h-41.37v25.091h46.438v10.505h-58.476v-82.756h60.127v10.504h-48.089z" fill="#fff"></path></g><g transform="translate(1257.5,954.33)"><path d="m0 0-22.543 66.813-0.114 0.34h-11.024l-23.129-66.8-22.073 66.458-0.114 0.342h-12.403l27.663-82.756h12.792l22.422 65.625 22.423-65.625h12.555l27.445 82.098 0.22 0.658h-11.462z" fill="#fff"></path></g><path d="m1314.6 938.73h12.038v82.756h-12.038z"></path><g transform="translate(1402.3,980.69)"><path d="m0 0c-3.755 1.486-8.796 2.995-14.99 4.486-4.766 1.092-8.586 2.141-11.357 3.118-2.757 0.969-5.101 2.348-6.968 4.098-1.852 1.737-2.79 4.027-2.79 6.805 0 3.791 1.667 6.929 4.959 9.328 3.303 2.409 8.335 3.63 14.955 3.63 3.737 0 7.611-0.573 11.514-1.704 3.754-1.09 7.345-2.691 10.674-4.76l0.501-0.312 3.984 9.66-0.335 0.229c-3.327 2.27-7.34 4.042-11.928 5.266-4.708 1.254-9.556 1.889-14.41 1.889-6.979 0-12.906-1.074-17.615-3.193-4.716-2.122-8.284-4.993-10.602-8.532-2.321-3.542-3.497-7.57-3.497-11.973 0-5.272 1.378-9.522 4.095-12.635 2.714-3.106 6.023-5.437 9.832-6.928 3.809-1.493 8.871-3.001 15.046-4.485 4.924-1.173 8.786-2.242 11.48-3.178 2.68-0.932 4.964-2.29 6.79-4.039 1.812-1.735 2.731-4.025 2.731-6.806 0-3.788-1.687-6.866-5.014-9.149-3.339-2.292-8.471-3.454-15.251-3.454-5.15 0-10.231 0.89-15.104 2.645-4.682 1.685-8.609 3.887-11.671 6.544l-0.498 0.431-4.468-9.424 0.275-0.249c3.281-2.977 7.808-5.441 13.452-7.323 5.759-1.919 11.819-2.892 18.014-2.892 6.981 0 12.946 1.053 17.729 3.132 4.795 2.084 8.422 4.954 10.78 8.532 2.361 3.579 3.557 7.588 3.557 11.916 0 5.192-1.379 9.384-4.099 12.458-2.71 3.065-5.999 5.376-9.771 6.869" fill="#fff"></path></g><g transform="translate(1454,949.23)"><path d="m0 0v26.387h41.37v10.268h-41.37v25.092h46.438v10.505h-58.476v-82.756h60.127v10.504z" fill="#fff"></path></g></g></g><g transform="matrix(.74106 0 0 .74106 187.84 243.3)"><path d="m498 932.51 96.808-49.373v96.809z" fill="url(#linearGradient492)"></path><g clip-path="url(#clipPath80)"><g transform="translate(594.81,883.14)"><path d="M 0,0 -96.808,49.372 0,96.809 Z" fill="none" stroke="#726792" stroke-miterlimit="10" stroke-width="0.05"></path></g></g><path d="m594.81 883.14 96.654 49.167-96.654 47.642z" fill="url(#linearGradient494)"></path><g clip-path="url(#clipPath114)"><g transform="translate(594.81,979.95)"><path d="M 0,0 96.654,-47.642 0,-96.809 Z" fill="none" stroke="url(#linearGradient496)" stroke-miterlimit="10" stroke-width="0.05"></path></g></g><path d="m594.81 979.95 96.654-47.642-39.488 75.547z" fill="url(#linearGradient498)"></path><g clip-path="url(#clipPath154)"><g transform="translate(651.97,1007.9)"><path d="m0 0 39.489-75.546-96.654 47.641z" fill="none" stroke="#b6a7d2" stroke-miterlimit="10" stroke-width="0.05"></path></g></g><path d="m498 932.51 96.808 47.436-57.104 28.027z" fill="url(#linearGradient500)"></path><g clip-path="url(#clipPath186)"><g transform="translate(537.7,1008)"><path d="m0 0 57.104-28.026-96.808-47.437z" fill="none" stroke="#8073a3" stroke-miterlimit="10" stroke-width="0.05"></path></g></g><path d="m537.7 1008 57.104-28.027v136.91z" fill="url(#linearGradient502)"></path><g clip-path="url(#clipPath218)"><g transform="translate(594.81,979.95)"><path d="m0 0v136.91l-57.104-108.89z" fill="none" stroke="#9689bd" stroke-miterlimit="10" stroke-width="0.05"></path></g></g><path d="m594.81 979.95 57.166 27.905-57.166 109.01z" fill="url(#linearGradient504)"></path><g clip-path="url(#clipPath250)"><g transform="translate(594.81,979.95)"><path d="m0 0v136.91l57.165-109.01z" fill="none" stroke="#b0a0ce" stroke-miterlimit="10" stroke-width="0.05"></path></g></g><path d="m498 932.51 96.808-49.373v96.809z" fill="url(#linearGradient492)"></path><g clip-path="url(#clipPath80)"><g transform="translate(594.81,883.14)"><path d="M 0,0 -96.808,49.372 0,96.809 Z" fill="none" stroke="#726792" stroke-miterlimit="10" stroke-width="0.05"></path></g></g><path d="m594.81 883.14 96.654 49.167-96.654 47.642z" fill="url(#linearGradient494)"></path><g clip-path="url(#clipPath114)"><g transform="translate(594.81,979.95)"><path d="M 0,0 96.654,-47.642 0,-96.809 Z" fill="none" stroke="url(#linearGradient496)" stroke-miterlimit="10" stroke-width="0.05"></path></g></g><path d="m594.81 979.95 96.654-47.642-39.488 75.547z" fill="url(#linearGradient498)"></path><g clip-path="url(#clipPath154)"><g transform="translate(651.97,1007.9)"><path d="m0 0 39.489-75.546-96.654 47.641z" fill="none" stroke="#b6a7d2" stroke-miterlimit="10" stroke-width="0.05"></path></g></g><path d="m498 932.51 96.808 47.436-57.104 28.027z" fill="url(#linearGradient500)"></path><g clip-path="url(#clipPath186)"><g transform="translate(537.7,1008)"><path d="m0 0 57.104-28.026-96.808-47.437z" fill="none" stroke="#8073a3" stroke-miterlimit="10" stroke-width="0.05"></path></g></g><path d="m537.7 1008 57.104-28.027v136.91z" fill="url(#linearGradient502)"></path><g clip-path="url(#clipPath218)"><g transform="translate(594.81,979.95)"><path d="m0 0v136.91l-57.104-108.89z" fill="none" stroke="#9689bd" stroke-miterlimit="10" stroke-width="0.05"></path></g></g><path d="m594.81 979.95 57.166 27.905-57.166 109.01z" fill="url(#linearGradient504)"></path><g clip-path="url(#clipPath250)"><g transform="translate(594.81,979.95)"><path d="m0 0v136.91l57.165-109.01z" fill="none" stroke="#b0a0ce" stroke-miterlimit="10" stroke-width="0.05"></path></g></g></g></g></svg>