<?xml version="1.0" encoding="UTF-8" standalone="no"?>
<svg
   width="196.1201"
   height="218.29019"
   viewBox="0 0 196.1201 218.29019"
   fill="none"
   version="1.1"
   id="svg30"
   sodipodi:docname="terraform.svg"
   inkscape:export-filename="/home/dgleason/mine/git/verihash/verihash.github.io/assets/logos/terraform.png"
   inkscape:export-xdpi="122.37"
   inkscape:export-ydpi="122.37"
   inkscape:version="1.1.1 (3bf5ae0d25, 2021-09-20)"
   xmlns:inkscape="http://www.inkscape.org/namespaces/inkscape"
   xmlns:sodipodi="http://sodipodi.sourceforge.net/DTD/sodipodi-0.dtd"
   xmlns="http://www.w3.org/2000/svg"
   xmlns:svg="http://www.w3.org/2000/svg">
  <defs
     id="defs34" />
  <sodipodi:namedview
     id="namedview32"
     pagecolor="#ffffff"
     bordercolor="#666666"
     borderopacity="1.0"
     inkscape:pageshadow="2"
     inkscape:pageopacity="0.0"
     inkscape:pagecheckerboard="0"
     showgrid="false"
     lock-margins="true"
     fit-margin-top="2"
     fit-margin-left="2"
     fit-margin-right="2"
     fit-margin-bottom="2"
     inkscape:zoom="2.496124"
     inkscape:cx="92.743789"
     inkscape:cy="107.76708"
     inkscape:window-width="1332"
     inkscape:window-height="875"
     inkscape:window-x="1444"
     inkscape:window-y="242"
     inkscape:window-maximized="0"
     inkscape:current-layer="svg30" />
  <path
     d="M 11.6,187.0601 H 2 v -5.73 h 25.72 v 5.73 h -9.64 v 28.66 H 11.6 Z"
     fill="#000000"
     id="path2" />
  <path
     d="m 34.5103,211.1201 c 2.6074,-0.014 5.1985,-0.411 7.69,-1.18 l 1,4.75 c -2.9636,1.066 -6.0904,1.608 -9.24,1.6 -7.9,0 -10.64,-3.67 -10.64,-9.71 v -6.66 c 0,-5.32 2.38,-9.81 10.43,-9.81 8.05,0 9.86,4.7 9.86,10.12 v 5.37 h -14 v 1.29 c -0.01,3 1.07,4.23 4.9,4.23 z m -4.91,-10.58 h 8 v -1.24 c 0,-2.38 -0.72,-4 -3.82,-4 -3.1,0 -4.18,1.65 -4.18,4 z"
     fill="#000000"
     id="path4" />
  <path
     d="m 60.4307,195.8391 c -2.3135,1.052 -4.5433,2.279 -6.67,3.67 v 16.21 h -6.29 v -25.15 h 5.31 l 0.42,2.79 c 2.0485,-1.386 4.271,-2.495 6.61,-3.3 z"
     fill="#000000"
     id="path6" />
  <path
     d="m 75.8096,195.8391 c -2.3103,1.052 -4.5368,2.279 -6.66,3.67 v 16.21 h -6.3 v -25.15 h 5.32 l 0.41,2.79 c 2.0496,-1.384 4.2719,-2.493 6.61,-3.3 z"
     fill="#000000"
     id="path8" />
  <path
     d="m 96.8791,215.7191 h -5.16 l -0.47,-1.7 c -2.231,1.445 -4.832,2.216 -7.49,2.22 -4.59,0 -6.55,-3.15 -6.55,-7.49 0,-5.11 2.22,-7.07 7.33,-7.07 h 6 v -2.64 c 0,-2.79 -0.77,-3.77 -4.8,-3.77 -2.354,0.023 -4.699,0.284 -7,0.78 l -0.78,-4.8 c 2.81,-0.781 5.713,-1.181 8.63,-1.19 7.9,0 10.22,2.79 10.22,9.09 z m -6.3,-9.5 h -4.65 c -2.06,0 -2.63,0.57 -2.63,2.48 0,1.75 0.57,2.53 2.53,2.53 1.666,-0.024 3.3,-0.468 4.75,-1.29 z"
     fill="#000000"
     id="path10" />
  <path
     d="m 116.2391,184.8401 c -1.186,-0.257 -2.396,-0.394 -3.61,-0.41 -2.48,0 -2.84,1.08 -2.84,3 v 3.15 h 6.4 l -0.36,5 h -6 v 20.14 h -6.3 v -20.14 h -4 v -5 h 4 v -3.51 c 0,-5.21 2.43,-7.8 8,-7.8 1.832,-0.01 3.656,0.236 5.42,0.73 z"
     fill="#000000"
     id="path12" />
  <path
     d="m 128.5301,216.2391 c -8.62,0 -10.95,-4.75 -10.95,-9.92 v -6.35 c 0,-5.16 2.33,-9.91 10.95,-9.91 8.62,0 11,4.75 11,9.91 v 6.35 c -0.05,5.17 -2.37,9.92 -11,9.92 z m 0,-20.81 c -3.35,0 -4.65,1.5 -4.65,4.33 v 6.77 c 0,2.84 1.3,4.34 4.65,4.34 3.35,0 4.65,-1.5 4.65,-4.34 v -6.77 c 0,-2.83 -1.29,-4.33 -4.65,-4.33 z"
     fill="#000000"
     id="path14" />
  <path
     d="m 155.6901,195.8391 c -2.311,1.05 -4.538,2.277 -6.66,3.67 v 16.21 h -6.3 v -25.15 h 5.35 l 0.41,2.79 c 2.05,-1.384 4.272,-2.493 6.61,-3.3 z"
     fill="#000000"
     id="path16" />
  <path
     d="m 172.9901,215.7201 v -17.6 c 0,-1.34 -0.57,-2 -2,-2 -2.307,0.26 -4.537,0.981 -6.56,2.12 v 17.48 h -6.35 v -25.15 h 4.8 l 0.62,2.12 c 3.137,-1.568 6.567,-2.464 10.07,-2.63 0.971,-0.091 1.946,0.117 2.795,0.596 0.849,0.479 1.531,1.206 1.955,2.084 3.142,-1.608 6.594,-2.522 10.12,-2.68 4.18,0 5.68,2.94 5.68,7.43 v 18.23 h -6.3 v -17.6 c 0,-1.34 -0.57,-2 -2,-2 -2.311,0.24 -4.546,0.962 -6.56,2.12 v 17.48 z"
     fill="#000000"
     id="path18" />
  <path
     d="m 8.67,172.8201 v -4.82 H 4.25 v 4.82 H 2 v -11.59 h 2.25 v 4.89 h 4.42 v -4.86 h 2.26 v 11.56 z m 10.52,0 H 17.4 l -0.16,-0.56 c -0.7772,0.484 -1.6745,0.74 -2.59,0.74 -1.6,0 -2.27,-1 -2.27,-2.49 0,-1.71 0.76,-2.36 2.54,-2.36 h 2.09 v -0.87 c 0,-0.93 -0.27,-1.26 -1.67,-1.26 -0.8096,0.012 -1.6164,0.099 -2.41,0.26 l -0.27,-1.6 c 0.9792,-0.258 1.9874,-0.389 3,-0.39 2.74,0 3.54,0.92 3.54,3 z m -2.18,-3.16 H 15.4 c -0.72,0 -0.91,0.19 -0.91,0.83 0,0.64 0.19,0.84 0.87,0.84 0.5766,-0.008 1.1427,-0.156 1.65,-0.43 z m 6.75,3.34 c -1.0186,-0.016 -2.0293,-0.181 -3,-0.49 l 0.3,-1.59 c 0.848,0.229 1.7216,0.35 2.6,0.36 1,0 1.1,-0.21 1.1,-0.84 0,-0.63 -0.1,-0.78 -1.52,-1.1 -2.13,-0.5 -2.38,-1 -2.38,-2.63 0,-1.63 0.77,-2.42 3.26,-2.42 0.8781,-0.001 1.7535,0.097 2.61,0.29 l -0.21,1.67 c -0.7918,-0.149 -1.5945,-0.232 -2.4,-0.25 -0.95,0 -1.11,0.21 -1.11,0.73 0,0.52 0,0.72 1.24,1 2.43,0.62 2.66,0.93 2.66,2.64 0,1.71 -0.52,2.63 -3.15,2.63 z m 10,-0.18 v -5.84 c 0,-0.44 -0.19,-0.67 -0.69,-0.67 -0.799,0.086 -1.5736,0.327 -2.28,0.71 v 5.8 H 28.6 v -11.7 l 2.18,0.32 v 3.68 c 0.9965,-0.485 2.0828,-0.757 3.19,-0.8 1.45,0 2,1 2,2.47 v 6.06 z m 4,-9.55 v -2 h 2.18 v 2 z m 0,9.55 v -8.36 h 2.18 v 8.36 z m 3.92,-8.29 c 0,-2.1 1.27,-3.32 4.24,-3.32 1.0911,0 2.1785,0.128 3.24,0.38 l -0.25,1.87 c -0.9607,-0.174 -1.9338,-0.271 -2.91,-0.29 -1.56,0 -2.06,0.52 -2.06,1.74 v 4.39 c 0,1.22 0.5,1.74 2.06,1.74 0.9762,-0.019 1.9493,-0.116 2.91,-0.29 l 0.25,1.87 c -1.0615,0.252 -2.1489,0.38 -3.24,0.38 -3,0 -4.24,-1.22 -4.24,-3.32 z m 12.3,8.47 c -3,0 -3.79,-1.58 -3.79,-3.3 v -2.12 c 0,-1.71 0.81,-3.29 3.79,-3.29 2.98,0 3.8,1.58 3.8,3.29 v 2.12 c 0.01,1.72 -0.8,3.3 -3.79,3.3 z m 0,-6.93 c -1.16,0 -1.61,0.5 -1.61,1.45 v 2.25 c 0,0.94 0.45,1.44 1.61,1.44 1.16,0 1.61,-0.5 1.61,-1.44 v -2.25 c 0.01,-0.95 -0.43,-1.4 -1.6,-1.4 z m 9.94,0.14 c -0.7991,0.349 -1.5713,0.757 -2.31,1.22 v 5.39 h -2.17 v -8.36 h 1.84 l 0.15,0.93 c 0.7111,-0.467 1.4812,-0.837 2.29,-1.1 z m 8.73,3.83 c 0,1.86 -0.86,3 -2.88,3 -0.7822,-0.011 -1.5619,-0.091 -2.33,-0.24 v 3.41 l -2.18,0.33 v -12 h 1.73 l 0.22,0.7 c 0.8032,-0.57 1.7649,-0.875 2.75,-0.87 1.76,0 2.69,1 2.69,2.9 z m -5.21,1 c 0.6348,0.135 1.2811,0.209 1.93,0.22 0.79,0 1.09,-0.36 1.09,-1.12 v -3.02 c 0,-0.69 -0.26,-1.07 -1.07,-1.07 -0.7173,0.025 -1.4048,0.293 -1.95,0.76 z"
     fill="#000000"
     id="path20" />
  <path
     fill-rule="evenodd"
     clip-rule="evenodd"
     d="m 78.6601,27.0303 38.83,22.42 v 44.8298 l -38.83,-22.4098 z"
     fill="#7b42bc"
     id="path22" />
  <path
     fill-rule="evenodd"
     clip-rule="evenodd"
     d="m 121.7501,49.4503 v 44.8298 l 38.83,-22.4098 v -44.84 z"
     fill="#7b42bc"
     id="path24" />
  <path
     fill-rule="evenodd"
     clip-rule="evenodd"
     d="m 35.5801,2 v 44.84 l 38.83,22.42 V 24.42 Z"
     fill="#7b42bc"
     id="path26" />
  <path
     fill-rule="evenodd"
     clip-rule="evenodd"
     d="m 78.6601,121.6101 38.83,22.42 v -44.53 -0.3 l -38.83,-22.4198 z"
     fill="#7b42bc"
     id="path28" />
</svg>
